<svg xmlns="http://www.w3.org/2000/svg" viewBox="0 0 180 152"><defs><style>.cls-1,.cls-2,.cls-3{fill:none;}.cls-2,.cls-3{stroke:#fff;stroke-linecap:round;stroke-linejoin:round;}.cls-2{stroke-width:2.27px;}.cls-3{stroke-width:1.36px;}</style></defs><title>1</title><g id="Layer_2" data-name="Layer 2"><rect class="cls-1" width="180" height="152"/><path class="cls-2" d="M100.74,137.28c-.63-.66-2.48.75-3.91,0s-3.28-2.17-4.86-2.09-4.63,1.43-7.71-.37a10.13,10.13,0,0,0,.81-1.91c0-.3-.78-.81-2.35-.81s-4.26.7-4.74,2.17a12.22,12.22,0,0,1-3.34-1.91c-1.55-1.29-5.87-5.12-10.08-20.2s-9.69-40.06-9.4-48.48a105.37,105.37,0,0,1,1-13.15c.11-.55-.88-2.5-.66-5.43a17.88,17.88,0,0,1,2.39-7.75c1.21-2,2.82-3.9,3-4.85s.29-2.09-1.21-4a16.07,16.07,0,0,0-4.11-4,23.93,23.93,0,0,0-6.87-2.94c-2.24-.63-3.84-1.45-4.52-2.31S45.42,17,46.47,16.6a17.42,17.42,0,0,1,5.25-.87,16.62,16.62,0,0,0,4-.25C57.36,15,59.37,13,65,12.15s11.56-.1,14.79,2.25S85.91,22,86.6,25a20.15,20.15,0,0,0,5.09,9.79c3.13,3.23,8.81,14.89,11,19.78s4.11,8.82,5.09,16.75S110.2,88,109.32,96.57s-2.45,21.35-2.55,23.11.44,3.43,2.82,5.78a40.91,40.91,0,0,0,5,4c.39.39-2.26,1.47-2.26,1.47s7.45,3.82,14.3,5,9.89,2.15,9.21,2.35-12.93.78-17.24.78a29.11,29.11,0,0,1-8.91-1.76,6.9,6.9,0,0,0,2.1,1.76s-4.89-.2-7-2a4.6,4.6,0,0,0,1.32,2.5S102.11,138.72,100.74,137.28Z"/><path class="cls-2" d="M78,134.25s.24,1.34-.3,1.49-7.39-.59-8.52-.54A4.6,4.6,0,0,0,67,136a10.84,10.84,0,0,0-4.26,1.12c-1.57,1-3.53,1.72-4.16,2.5s4.06,0,5,0,3.09.68,5.49.59,14.78.19,15.32-.59.38-2-.13-4.81"/><path class="cls-2" d="M53.46,23.23A3.26,3.26,0,0,1,56,20.37c2.4-.49,6.32,1.37,8.52,2.86S72.3,23.8,73,28.6,72.69,34,71.81,40.45s-.52,16.38,2.71,21.37"/><path class="cls-2" d="M76.26,51.4s-.68,8.43-2.54,12.74-4.9,10.67-6.17,16.25a47.58,47.58,0,0,0-1.47,14.4,18.17,18.17,0,0,0,3.92,9.7c1,1.07,1.76.58,3-4.22s5.49-12.43,7.35-15,5.19-5.2,6.26-7.11,1.87-6.11,1.28-10.32"/><path class="cls-2" d="M86.64,78.18S90.86,89,90,93.24s-3.6,18.41-3.36,24.28a17,17,0,0,0,5.73,12.34c2.84,2.55,12.44,7.25,12.44,7.25"/><circle class="cls-3" cx="67.14" cy="17.5" r="1.65"/></g></svg>