<svg xmlns="http://www.w3.org/2000/svg" viewBox="0 0 180 152"><defs><style>.cls-1,.cls-2,.cls-3{fill:none;}.cls-2,.cls-3{stroke:#fff;stroke-miterlimit:10;}.cls-2{stroke-width:2.27px;}.cls-3{stroke-width:1.36px;}</style></defs><title>1</title><g id="Layer_2" data-name="Layer 2"><rect class="cls-1" width="180" height="152"/><ellipse class="cls-2" cx="90" cy="30.51" rx="24.13" ry="6.03"/><path class="cls-3" d="M67,32.37c3.13-2.43,12.23-4.18,23-4.18s19.83,1.75,23,4.18"/><path class="cls-2" d="M65.87,30.51v3.71c0,3.34,10.8,6,24.13,6s24.13-2.7,24.13-6V30.51"/><path class="cls-2" d="M67.72,36.55a32.48,32.48,0,0,0-4.79,6.51c-1.29,2.81-1.08,5.82-1.08,11.21V80c0,5,0,24.85,0,28.51s.54,6.48,2,7.83c4.38,4.1,18.73,6,26.17,6"/><path class="cls-2" d="M66.17,117.92c1.28,2.06,3,4.75,6.13,6.37s9.18,3.23,17.7,3.23"/><path class="cls-2" d="M112.28,36.55a32.48,32.48,0,0,1,4.79,6.51c1.29,2.81,1.08,5.82,1.08,11.21V80c0,5,0,24.85,0,28.51s-.54,6.48-2,7.83c-4.38,4.1-18.73,6-26.17,6"/><path class="cls-2" d="M113.83,117.92c-1.28,2.06-3,4.75-6.13,6.37s-9.18,3.23-17.7,3.23"/><path class="cls-3" d="M79.09,35.89a23.35,23.35,0,0,1,5.27-2.51c2.12-.62,4.27-1.12,5.64-.52,1.64.71-1.24,3.15-2.67,3.65"/><path class="cls-3" d="M76.21,35.46a24,24,0,0,1,7.13-3.92c4.1-1.35,7.33-1.19,9.11,0s.32,4.19-2,5"/></g></svg>