<svg xmlns="http://www.w3.org/2000/svg" width="126.143" height="43.093" viewBox="0 0 126.143 43.093">
    <defs>
        <style>
            .prefix__cls-1{fill:none;stroke:#fff;stroke-linecap:round;stroke-linejoin:round;stroke-width:1.75px}
        </style>
    </defs>
    <g id="prefix__anchoveta" transform="translate(.876 .875)">
        <g id="prefix__그룹_201" data-name="그룹 201" transform="translate(0 9.761)">
            <path id="prefix__패스_189" d="M1966.905 213.37a2.707 2.707 0 01-.264 1c-.235.429-4.394 5.429-6.328 8s-3.224 5.358-.7 4.786 9.083-3.858 12.715-6.143 5.509-2.858 7.5-2.9 6.94.5 14.727 2.087c8.438 1.715 18.271 4.071 32.443 4.809 15.059.786 28.537-.214 40.255-3.214 11.581-2.965 15.352-6.43 15.352-8.43s-1.874-3.925-13.469-6.555c-12.682-2.876-28.721-3.3-42.9-2.876a283.985 283.985 0 00-31.407 2.858c-7.852 1-13.008 1.863-15 1.824s-3.868-.609-7.5-2.9-10.2-5.572-12.715-6.144-1.23 2.214.7 4.786 6.093 7.573 6.328 8a2.707 2.707 0 01.263 1.012z" class="prefix__cls-1" data-name="패스 189" transform="translate(-1958.212 -199.507)"/>
            <path id="prefix__패스_190" d="M1975.42 207.64c-1.2.887-4.72 2.935-4.72 6.555s6.6 5.615 6.6 5.615" class="prefix__cls-1" data-name="패스 190" transform="translate(-1959.478 -200.332)"/>
        </g>
        <path id="prefix__패스_191" d="M2031.365 202.825s-2.069-6.231-9.222-14.18a54.83 54.83 0 01-6.966 9.346c-3.626 3.626-6.355 3.938-6.355 3.938l1.741 2.425" class="prefix__cls-1" data-name="패스 191" transform="translate(-1963.343 -188.645)"/>
        <path id="prefix__패스_192" d="M2066.555 218.9s-.709-.687.57-2.8c0 0-4.347-.029-6.955 1.148a11.156 11.156 0 00-4.473 3.189c-.6.8 1.319 1.232 2.937 1.444s3.109.452 4.179-.31z" class="prefix__cls-1" data-name="패스 192" transform="translate(-1968.083 -191.428)"/>
        <circle id="prefix__타원_68" cx="1.657" cy="1.657" r="1.657" class="prefix__cls-1" data-name="타원 68" transform="translate(111.527 22.437)"/>
        <path id="prefix__패스_193" d="M2014.639 225.629a16.116 16.116 0 01-7.146 7.817s-2.878-7.441-7.763-10.686" class="prefix__cls-1" data-name="패스 193" transform="translate(-1962.421 -192.104)"/>
    </g>
</svg>
