<svg xmlns="http://www.w3.org/2000/svg" viewBox="0 0 180 152"><defs><style>.cls-1,.cls-2{fill:none;}.cls-2{stroke:#fff;stroke-linecap:round;stroke-linejoin:round;stroke-width:1.81px;}</style></defs><title>1</title><g id="Layer_2" data-name="Layer 2"><rect class="cls-1" width="180" height="152"/><path class="cls-2" d="M33.29,79.13A2.82,2.82,0,0,1,33,80.19c-.25.45-4.66,5.75-6.71,8.48s-3.41,5.68-.74,5.07S35.18,89.65,39,87.23s5.84-3,7.95-3.07,7.36.54,15.61,2.21c9,1.82,19.37,4.32,34.39,5.1,16,.84,30.25-.22,42.67-3.41s16.28-6.81,16.28-8.93-2-4.16-14.28-6.95c-13.44-3.05-30.44-3.5-45.47-3.05a302.54,302.54,0,0,0-33.3,3c-8.32,1.06-13.78,2-15.9,1.94S42.89,73.45,39,71s-10.8-5.91-13.47-6.52-1.31,2.35.74,5.08,6.46,8,6.71,8.48A2.82,2.82,0,0,1,33.29,79.13Z"/><path class="cls-2" d="M41,72.18c-1.27.94-5,3.11-5,6.95s7,6,7,6"/><path class="cls-2" d="M96.18,69.12s-2.2-6.6-9.78-15A58.13,58.13,0,0,1,79,64c-3.85,3.85-6.74,4.18-6.74,4.18l1.85,2.57"/><path class="cls-2" d="M128.45,83.21s-.75-.73.6-3c0,0-4.6,0-7.37,1.22a11.78,11.78,0,0,0-4.74,3.38c-.64.85,1.4,1.3,3.11,1.53s3.3.48,4.43-.33Z"/><circle class="cls-2" cx="144.05" cy="79.63" r="1.76"/><path class="cls-2" d="M79.42,89.62a17.06,17.06,0,0,1-7.57,8.29s-3-7.89-8.23-11.33"/></g></svg>