<svg xmlns="http://www.w3.org/2000/svg" width="116.019" height="39.538" viewBox="0 0 116.019 39.538">
    <defs>
        <clipPath id="prefix__clip-path">
            <path id="prefix__패스_148" d="M347.044 207.935c0 .713 3.824 2.085 3.824 2.085 5.668 2.155 37.364 11.208 60.174 11.208s36.663-11.46 36.663-13.293-13.853-13.293-36.663-13.293-54.506 9.053-60.174 11.208c0 0-3.824 1.372-3.824 2.085z" data-name="패스 148" transform="translate(-347.044 -194.642)" style="stroke:#fff;stroke-width:1.75px;fill:none"/>
        </clipPath>
        <style>
            .prefix__cls-2,.prefix__cls-3{fill:none;stroke:#fff;stroke-width:1.75px;stroke-linecap:round;stroke-linejoin:round}.prefix__cls-3{fill:#4528b7}
        </style>
    </defs>
    <g id="prefix__atlantic-mackerel" transform="translate(.92 .76)">
        <circle id="prefix__타원_61" cx="1.677" cy="1.677" r="1.677" class="prefix__cls-2" data-name="타원 61" transform="translate(101.75 17.752)"/>
        <path id="prefix__패스_127" d="M447.706 207.935c0-1.833-13.853-13.293-36.663-13.293s-54.506 9.053-60.174 11.208c0 0-3.824 1.372-3.824 2.085" class="prefix__cls-2" data-name="패스 127" transform="translate(-333.482 -187.49)"/>
        <path id="prefix__패스_128" d="M347.044 207.935c0 .713 3.824 2.085 3.824 2.085 5.668 2.155 37.364 11.208 60.174 11.208s36.663-11.46 36.663-13.293-13.853-13.293-36.663-13.293-54.506 9.053-60.174 11.208c0 0-3.824 1.372-3.824 2.085z" class="prefix__cls-2" data-name="패스 128" transform="translate(-333.482 -187.49)"/>
        <path id="prefix__패스_129" d="M350.191 204.334s-8.682-5.985-13.58-7.742-8.327-.973-9.1-.535c-.562.32-.21 1.375 1.609 2.6s9.592 6.876 9.592 9.549" class="prefix__cls-2" data-name="패스 129" transform="translate(-327.27 -187.759)"/>
        <path id="prefix__패스_130" d="M350.191 217.893s-8.682 5.986-13.58 7.743-8.327.972-9.1.534c-.562-.319-.21-1.375 1.609-2.6s9.592-6.875 9.592-9.549" class="prefix__cls-2" data-name="패스 130" transform="translate(-327.27 -193.578)"/>
        <path id="prefix__패스_131" d="M451.067 192.6s-5.9-6.127-9.571-7.757-3.871.2-4.89 1.936-2.018 4.45-2.648 4.584" class="prefix__cls-2" data-name="패스 131" transform="translate(-360.784 -184.214)"/>
        <path id="prefix__패스_132" d="M386.807 198.009s-5.785-2.641-7.516-3.456-2.038 1.121-3.26 2.241-5.6 3.056-6.927 3.565-3.363 1.523-3.464 2.646" class="prefix__cls-2" data-name="패스 132" transform="translate(-339.323 -187.401)"/>
        <path id="prefix__패스_133" d="M454.939 227.939s-2.5 5.063-6.774 7.589c0 0-1.069.611-2.547-.815a11.107 11.107 0 01-2.75-5.042c-.051-.866 1.884-.357 5.806-1.324s4.635-1.07 6.265-.408z" class="prefix__cls-3" data-name="패스 133" transform="translate(-363.582 -197.817)"/>
        <path id="prefix__패스_134" d="M386.1 224.169a24.88 24.88 0 01-3.667 3.82c-1.375.917-2.6-.535-3.132-1.528a13.456 13.456 0 01-1.146-3.426c0-.394.382-.547 3.514-.547s4.194.23 4.431 1.681z" class="prefix__cls-3" data-name="패스 134" transform="translate(-343.254 -196.237)"/>
        <path id="prefix__패스_135" d="M457.422 211.914s-3.362 3.667-4.38 4.176-6.519 1.63-8.964 1.222-1.019-1.287 1.833-2.655a74.74 74.74 0 017.13-2.743c1.326-.508 4.381 0 4.381 0z" class="prefix__cls-2" data-name="패스 135" transform="translate(-363.57 -192.845)"/>
        <g id="prefix__그룹_191" data-name="그룹 191" transform="translate(13.562 7.152)">
            <g id="prefix__그룹_190" data-name="그룹 190">
                <path id="prefix__패스_136" d="M448.038 195.309a3.023 3.023 0 01.5 2.63 5.448 5.448 0 00-.175 3.324" class="prefix__cls-2" data-name="패스 136" transform="translate(-378.769 -194.852)"/>
                <path id="prefix__패스_137" d="M454.845 195.309a3.024 3.024 0 01.5 2.63 5.447 5.447 0 00-.175 3.324" class="prefix__cls-2" data-name="패스 137" transform="translate(-380.907 -194.852)"/>
                <path id="prefix__패스_138" d="M441.256 195.309a3.025 3.025 0 01.5 2.63 5.448 5.448 0 00-.175 3.324" class="prefix__cls-2" data-name="패스 138" transform="translate(-376.638 -194.852)"/>
                <path id="prefix__패스_139" d="M434.474 195.309a3.026 3.026 0 01.5 2.63 5.442 5.442 0 00-.175 3.324" class="prefix__cls-2" data-name="패스 139" transform="translate(-374.508 -194.852)"/>
                <path id="prefix__패스_140" d="M427.692 195.309a3.026 3.026 0 01.5 2.63 5.45 5.45 0 00-.176 3.324" class="prefix__cls-2" data-name="패스 140" transform="translate(-372.378 -194.852)"/>
                <path id="prefix__패스_141" d="M420.91 196.2a3.024 3.024 0 01.5 2.63 5.453 5.453 0 00-.175 3.324" class="prefix__cls-2" data-name="패스 141" transform="translate(-370.247 -195.131)"/>
                <path id="prefix__패스_142" d="M414.128 197.091a3.025 3.025 0 01.5 2.63 5.453 5.453 0 00-.175 3.324" class="prefix__cls-2" data-name="패스 142" transform="translate(-368.117 -195.411)"/>
                <path id="prefix__패스_143" d="M407.346 197.982a3.025 3.025 0 01.5 2.63 5.448 5.448 0 00-.175 3.324" class="prefix__cls-2" data-name="패스 143" transform="translate(-365.986 -195.691)"/>
                <path id="prefix__패스_144" d="M400.563 198.873a3.024 3.024 0 01.5 2.63 5.448 5.448 0 00-.175 3.324" class="prefix__cls-2" data-name="패스 144" transform="translate(-363.856 -195.971)"/>
                <path id="prefix__패스_145" d="M394.428 199.992a3.026 3.026 0 01.5 2.63 5.442 5.442 0 00-.175 3.324" class="prefix__cls-2" data-name="패스 145" transform="translate(-361.929 -196.323)"/>
                <path id="prefix__패스_146" d="M388.293 201.11a3.026 3.026 0 01.5 2.63 5.449 5.449 0 00-.176 3.324" class="prefix__cls-2" data-name="패스 146" transform="translate(-360.001 -196.674)"/>
                <path id="prefix__패스_147" d="M382.158 202.229a3.026 3.026 0 01.5 2.63 5.45 5.45 0 00-.176 3.324" class="prefix__cls-2" data-name="패스 147" transform="translate(-358.074 -197.025)"/>
            </g>
        </g>
    </g>
</svg>
