<svg xmlns="http://www.w3.org/2000/svg" xmlns:xlink="http://www.w3.org/1999/xlink" viewBox="0 0 180 152"><defs><style>.cls-1,.cls-2,.cls-3,.cls-4,.cls-6{fill:none;}.cls-1,.cls-2,.cls-4,.cls-6{stroke:#fff;}.cls-1,.cls-2{stroke-miterlimit:10;}.cls-2{clip-path:url(#clip-path);}.cls-4,.cls-6{stroke-linecap:round;stroke-linejoin:round;}.cls-4{stroke-width:1.81px;}.cls-5{clip-path:url(#clip-path-2);}.cls-6{stroke-width:2.72px;}</style><clipPath id="clip-path"><path class="cls-1" d="M69.82,89.49c15,3.25,32.5,6.11,47.23,6.11q1.56,0,3.09-.06"/></clipPath><clipPath id="clip-path-2"><path class="cls-2" d="M133.3,94.08C153.66,90.17,165.54,80,165.54,78c0-2.43-18.33-17.58-48.49-17.58S45,72.41,37.46,75.26c0,0-5.06,1.81-5.06,2.76s5.06,2.75,5.06,2.75c3.07,1.17,11.92,3.87,23.37,6.65"/></clipPath></defs><title>1</title><g id="Layer_2" data-name="Layer 2"><rect class="cls-3" width="180" height="152"/><circle class="cls-4" cx="151.26" cy="76.67" r="2.22"/><path class="cls-4" d="M165.54,78c0-2.43-18.33-17.58-48.49-17.58S45,72.41,37.46,75.26c0,0-5.06,1.81-5.06,2.76"/><path class="cls-4" d="M69.82,89.49c15,3.25,32.5,6.11,47.23,6.11q1.56,0,3.09-.06"/><path class="cls-4" d="M133.3,94.08C153.66,90.17,165.54,80,165.54,78c0-2.43-18.33-17.58-48.49-17.58S45,72.41,37.46,75.26c0,0-5.06,1.81-5.06,2.76s5.06,2.75,5.06,2.75c3.07,1.17,11.92,3.87,23.37,6.65"/><path class="cls-4" d="M44.78,72.9S33.3,65,26.82,62.66s-11-1.29-12-.71c-.75.42-.28,1.82,2.13,3.44S29.6,74.48,29.6,78"/><path class="cls-4" d="M44.78,83.13s-11.48,7.92-18,10.24-11,1.29-12,.71c-.75-.42-.28-1.82,2.13-3.43S29.6,81.55,29.6,78"/><path class="cls-4" d="M133.87,62.07s-7.81-8.1-12.66-10.26-5.12.27-6.46,2.56-2.67,5.89-3.51,6.07"/><path class="cls-4" d="M77.27,65s-7.66-3.5-10-4.57-2.69,1.48-4.31,3-7.41,4-9.16,4.71-4.45,2-4.58,3.5"/><path class="cls-4" d="M135.29,90.82s-3.3,6.69-9,10c0,0-1.41.81-3.37-1.08a14.6,14.6,0,0,1-3.63-6.66c-.07-1.15,2.49-.48,7.68-1.76S133.14,89.94,135.29,90.82Z"/><path class="cls-4" d="M71.13,87.92s-3,3.84-4.85,5-3.43-.71-4.14-2a17.7,17.7,0,0,1-1.52-4.53c0-.52.51-.72,4.65-.72S70.82,86,71.13,87.92Z"/><path class="cls-4" d="M138.59,76.2s-4.44,4.85-5.79,5.52-8.62,2.16-11.86,1.62-1.34-1.71,2.43-3.51a97.77,97.77,0,0,1,9.43-3.63C134.55,75.52,138.59,76.2,138.59,76.2Z"/><g class="cls-5"><path class="cls-6" d="M124,61s1.37,1.85.66,3.48a7.28,7.28,0,0,0-.23,4.4"/><path class="cls-6" d="M130.19,61s1.37,1.85.67,3.48a7.12,7.12,0,0,0-.23,4.4"/><path class="cls-6" d="M117.86,61s1.38,1.85.67,3.48a7.2,7.2,0,0,0-.23,4.4"/><path class="cls-6" d="M111.71,61s1.38,1.85.67,3.48a7.12,7.12,0,0,0-.23,4.4"/><path class="cls-6" d="M105.56,61s1.37,1.85.67,3.48a7.23,7.23,0,0,0-.24,4.4"/><path class="cls-6" d="M99.41,61.85s1.37,1.85.66,3.48a7.25,7.25,0,0,0-.23,4.39"/><path class="cls-6" d="M93.26,62.66s1.37,1.85.66,3.48a7.17,7.17,0,0,0-.23,4.39"/><path class="cls-6" d="M87.1,63.46s1.38,1.85.67,3.48a7.2,7.2,0,0,0-.23,4.4"/><path class="cls-6" d="M81,64.27s1.37,1.85.67,3.48a7.23,7.23,0,0,0-.24,4.4"/><path class="cls-6" d="M75.39,65.29s1.37,1.85.66,3.48a7.17,7.17,0,0,0-.23,4.39"/><path class="cls-6" d="M69.82,66.3s1.37,1.85.67,3.48a7.23,7.23,0,0,0-.24,4.4"/><path class="cls-6" d="M64.25,67.32s1.38,1.85.67,3.48a7.17,7.17,0,0,0-.23,4.39"/></g><path class="cls-1" d="M69.82,89.49c15,3.25,32.5,6.11,47.23,6.11q1.56,0,3.09-.06"/><path class="cls-1" d="M133.3,94.08C153.66,90.17,165.54,80,165.54,78c0-2.43-18.33-17.58-48.49-17.58S45,72.41,37.46,75.26c0,0-5.06,1.81-5.06,2.76s5.06,2.75,5.06,2.75c3.07,1.17,11.92,3.87,23.37,6.65"/></g></svg>