<svg xmlns="http://www.w3.org/2000/svg" viewBox="0 0 180 152"><defs><style>.cls-1,.cls-2,.cls-3{fill:none;}.cls-2,.cls-3{stroke:#fff;stroke-linecap:round;stroke-linejoin:round;}.cls-2{stroke-width:2.27px;}.cls-3{stroke-width:1.36px;}</style></defs><title>1</title><g id="Layer_2" data-name="Layer 2"><rect class="cls-1" width="180" height="152"/><path class="cls-2" d="M71.67,32.65c-.13,2.61-1,7.3-2.46,9.48a31.3,31.3,0,0,1-3.63,4c-5.95,6.24-7.3,14.17-7.18,22.79s2.93,17,6.92,24.67A68.43,68.43,0,0,0,86.5,118.34c9,6.25,20,9.88,30.93,9.34a7.82,7.82,0,0,0,1.47-7.06c-.77-2.64-2.88-4.64-4.92-6.5-7.26-6.63-14.7-13.14-21-20.67s-11.58-16.2-13.74-25.8a36.25,36.25,0,0,1-.77-14.88,23.57,23.57,0,0,0,.36-4.27,7.69,7.69,0,0,0-1-2.63c-2-3.36-2.11-8.9-1.48-13.68"/><path class="cls-2" d="M80.18,32.19c-.13,3.66,1.48,9.88,3.51,12.93.81,1.23,1.92,2.23,2.82,3.4,2.19,2.86,3,6.5,4,10a64.78,64.78,0,0,0,6.28,15.23c5.86,10,15,17.79,25.07,23.51a64.9,64.9,0,0,1,11.25,8.29c2.54,2.58,2,4.11.92,7.58-5.62,3.12-13.9,3-20,1"/><path class="cls-2" d="M130.2,103A5.58,5.58,0,0,0,137,96,77,77,0,0,1,94.77,53.61a24.89,24.89,0,0,0-2.5-5.26,26,26,0,0,0-3.13-3.43,17.59,17.59,0,0,1-4.49-6.35c-.87-2.47-.66-5.47,1.12-7.39-1-3.31-1.09-3.7-1.62-5-.72-1.77-2.92-1.66-9.28-1.93S68.52,26,68,27.69s-.42,3.43-2.21,5c-5.41,3.52-7.67,5.27-11.67,8.33a26.24,26.24,0,0,0-6.45,6.68,26.46,26.46,0,0,0-3.09,8.21c-2.52,11.3-2.68,23.34,1.92,34A57.08,57.08,0,0,0,68.92,115.6a36.67,36.67,0,0,0,11.61,4.85,31.12,31.12,0,0,0,9.82.33"/><path class="cls-2" d="M117,127.79a20.1,20.1,0,0,1-1.21-3.36,1.51,1.51,0,0,1,0-1,1.54,1.54,0,0,1,.44-.54,10,10,0,0,1,2.81-1.68"/><path class="cls-2" d="M133.76,113c-.71-.47-1.51-1.1-1.48-2a2.09,2.09,0,0,1,.45-1.11,7.31,7.31,0,0,1,2-1.93l-.2.4"/><path class="cls-2" d="M135.6,101.21a2.27,2.27,0,0,1-1.08-2.46,6.8,6.8,0,0,1,1.28-2.58"/><path class="cls-2" d="M85.77,31.18s-11.15,2.56-18.48-.84"/><path class="cls-3" d="M110.51,121.47C98.92,118.34,89.31,110.18,81.6,101"/><path class="cls-3" d="M73.82,89.79C68.3,80.67,66.46,69.58,67.62,59a19.11,19.11,0,0,1,1.9-7.15"/></g></svg>