<svg xmlns="http://www.w3.org/2000/svg" viewBox="0 0 180 152"><defs><style>.cls-1,.cls-2,.cls-3{fill:none;}.cls-2,.cls-3{stroke:#fff;stroke-linecap:round;stroke-linejoin:round;}.cls-2{stroke-width:2.27px;}.cls-3{stroke-width:1.36px;}</style></defs><title>1</title><g id="Layer_2" data-name="Layer 2"><rect class="cls-1" width="180" height="152"/><path class="cls-2" d="M73.15,96.76a.34.34,0,0,1-.05-.24.29.29,0,0,1,.16-.15,3.77,3.77,0,0,1,1.9-.44A7.16,7.16,0,0,1,80.24,98c1.74,1.75,3.09,6.73-.94,5A13.52,13.52,0,0,1,73.15,96.76Z"/><path class="cls-2" d="M76.78,96.1c-2.63-1.94-4.28-5.21-5.12-8.37a9.34,9.34,0,0,1,6.9,2.56c1.82,1.74,2.31,6,2.28,8.48"/><path class="cls-2" d="M74.56,87.76a13.1,13.1,0,0,1-3.51-7,1.26,1.26,0,0,1,.1-.94c.27-.4.86-.38,1.32-.27a7.91,7.91,0,0,1,4.88,3.9,15.48,15.48,0,0,1,1.7,7.29"/><path class="cls-2" d="M77.44,82.9c1.06-1.38.72-3.37,0-5a13.61,13.61,0,0,0-5.92-6.46,16.62,16.62,0,0,0-.19,4c.15,1.33.55,3.38,1.55,4.26"/><path class="cls-2" d="M77,77a12.85,12.85,0,0,0-1.5-9.84,5.09,5.09,0,0,0-3.07-2.57,12.46,12.46,0,0,0,.74,7.94"/><path class="cls-2" d="M76.43,69a13.54,13.54,0,0,0-2.21-13.08c-.17-.2-.47-.39-.65-.2A21.19,21.19,0,0,0,73,62.89c0,.44.25,2.11.63,2.32"/><path class="cls-2" d="M79.06,52.4c-.13-.4-.36-.88-.78-.9C77,51.46,76,55,75.83,55.94a4.18,4.18,0,0,0,1.25,3.71C80.87,63.78,79.63,54.15,79.06,52.4Z"/><path class="cls-3" d="M78.28,51.5a82,82,0,0,1,2.56-30.18"/><path class="cls-3" d="M72.91,55.64a286.55,286.55,0,0,0-1.77-29"/><path class="cls-3" d="M72,68.64c-.88-9-3.57-19-6.35-27.65"/><path class="cls-3" d="M70.67,74A94.2,94.2,0,0,0,63,51.91"/><path class="cls-2" d="M82.43,100.82a1.11,1.11,0,0,0,.86-.35c2.66-2.25,4.29-5.9,3.49-9.29a.84.84,0,0,0-.18-.38c-.23-.23-.61-.1-.9,0-1.72.84-4.35,2.72-5.11,4.48"/><path class="cls-2" d="M84.83,91.28c.89-2.2,1.74-5.08,1-7.33-.1-.33-.29-.7-.63-.77a1.1,1.1,0,0,0-.56.11A12.2,12.2,0,0,0,81.87,85a5.85,5.85,0,0,0-1.75,2c-.43.88-.49,3.5-.55,4.46"/><path class="cls-2" d="M78.11,80.76c.64-2.86,2.78-4.82,5.36-6.22a.79.79,0,0,1,.8-.1.81.81,0,0,1,.26.49,12.45,12.45,0,0,1-1.66,9.32"/><path class="cls-2" d="M77.11,74.12A8.52,8.52,0,0,1,78.78,70,14.9,14.9,0,0,1,82,66.83a1.33,1.33,0,0,1,1.1-.37,17.54,17.54,0,0,1-.79,8.79"/><path class="cls-2" d="M81,67.69c.9-.86,1.28-3,1.43-4.23a10.9,10.9,0,0,0-.18-5c-2.59.67-4.39,4.68-4.8,7.33"/><path class="cls-3" d="M80.89,58a75.68,75.68,0,0,1,4.47-31.87"/><path class="cls-3" d="M82.58,60.09c-.38-7.58,1.38-15.83,4-22.94"/><path class="cls-3" d="M83.38,69.38C83,61.46,85.09,52.38,88,45"/><path class="cls-3" d="M93.36,148.2c.66-.38,1.13-1.29,1.11-3.85a21.14,21.14,0,0,0-.32-4.67c-.37-1.43-1.21-4-1.72-5.4a131.49,131.49,0,0,1-4.23-15l-1.42-5.92c-.52-2.2-1-4.41-1.44-6.64-.53-3-.74-6.28.89-8.83"/><path class="cls-3" d="M78.85,103.23c1.35.22,2.14,1.63,2.67,2.89,3.53,8.28,4.94,17.27,6.9,26.08"/><path class="cls-2" d="M95.42,71.1a.35.35,0,0,1,0-.25.3.3,0,0,1,.2-.08,3.77,3.77,0,0,1,1.93.29,7.13,7.13,0,0,1,4,3.81c1,2.27.39,7.39-2.7,4.29A13.48,13.48,0,0,1,95.42,71.1Z"/><path class="cls-2" d="M99,71.82c-1.73-2.77-2-6.43-1.66-9.68a9.35,9.35,0,0,1,5.46,4.93c1,2.29,0,6.39-1,8.73"/><path class="cls-2" d="M100.05,63.25a13.13,13.13,0,0,1-.7-7.76,1.26,1.26,0,0,1,.44-.84c.4-.26.93,0,1.33.24a8,8,0,0,1,3.1,5.43,15.57,15.57,0,0,1-1.12,7.4"/><path class="cls-2" d="M104.52,59.79c1.49-.89,1.91-2.86,1.85-4.6A13.6,13.6,0,0,0,103.26,47a15.84,15.84,0,0,0-1.65,3.63c-.35,1.28-.74,3.34-.13,4.53"/><path class="cls-2" d="M106.29,54.1a12.87,12.87,0,0,0,2.24-9.7,5.11,5.11,0,0,0-1.91-3.53,12.53,12.53,0,0,0-2.24,7.66"/><path class="cls-2" d="M108.71,46.49a13.57,13.57,0,0,0,2.77-13c-.09-.24-.3-.53-.53-.41a20.93,20.93,0,0,0-3.18,6.46c-.12.42-.55,2-.28,2.38"/><path class="cls-2" d="M117.27,32c0-.42,0-.94-.39-1.11-1.14-.51-3.44,2.37-3.92,3.21a4.21,4.21,0,0,0-.2,3.92C114.75,43.28,117.15,33.88,117.27,32Z"/><path class="cls-3" d="M116.88,30.92A81.87,81.87,0,0,1,130.39,3.8"/><path class="cls-3" d="M110.36,32.79a285,285,0,0,0,9-27.59"/><path class="cls-3" d="M104.74,44.54c2.51-8.69,3.71-19,4.3-28"/><path class="cls-3" d="M101.51,49a94,94,0,0,0,1-23.33"/><path class="cls-2" d="M102.55,78.29a1.12,1.12,0,0,0,.93,0c3.3-1.11,6.15-3.9,6.66-7.34a.78.78,0,0,0,0-.43c-.14-.29-.54-.32-.86-.29-1.91.14-5,.92-6.39,2.28"/><path class="cls-2" d="M108.3,70.31c1.63-1.72,3.48-4.09,3.64-6.45a1,1,0,0,0-.31-.94,1,1,0,0,0-.56-.1,12.06,12.06,0,0,0-3.21.54,6.1,6.1,0,0,0-2.36,1.21c-.72.66-1.74,3.07-2.15,4"/><path class="cls-2" d="M105.93,58.05c1.65-2.43,4.36-3.46,7.27-3.81.28,0,.62,0,.78.2a.8.8,0,0,1,.07.55,12.48,12.48,0,0,1-5,8.06"/><path class="cls-2" d="M107.45,51.51a8.36,8.36,0,0,1,3.08-3.25,15.15,15.15,0,0,1,4.19-1.71,1.35,1.35,0,0,1,1.15.06,17.35,17.35,0,0,1-4,7.88"/><path class="cls-2" d="M113.39,46.94c1.16-.46,2.29-2.3,2.89-3.4a11,11,0,0,0,1.67-4.7c-2.66-.33-5.81,2.73-7.17,5"/><path class="cls-3" d="M116.91,37.91a75.47,75.47,0,0,1,15.91-28"/><path class="cls-3" d="M117.7,40.48c2.45-7.18,7.13-14.21,12.22-19.82"/><path class="cls-3" d="M115,49.41c2.57-7.49,7.85-15.16,13.31-20.91"/><path class="cls-3" d="M94.46,143.89a20.69,20.69,0,0,0-2.89-6.5q-3.5-5.88-7.22-11.62a107.1,107.1,0,0,0-11.12-14.88c-8.44-9.08-19.32-15.46-30-21.7,18.61,13.68,31.92,33.24,44.34,52.71,1.51,2.37,3.21,4.91,5.86,5.85"/><path class="cls-3" d="M105.94,77.06c-5.63,9.2-8.74,19.78-10.19,30.47s-1.28,21.52-.71,32.29a5.09,5.09,0,0,1-.48,3.1"/><path class="cls-3" d="M97.9,79c1,2.55.3,5.45-.39,8.12a156.78,156.78,0,0,0-4.73,47.6"/><path class="cls-3" d="M94.66,145.82C98.19,129,101.81,112,109,96.33c6-13,14.93-25.43,27.81-31.76a27.55,27.55,0,0,0-13.87,5.69,54.55,54.55,0,0,0-10.48,10.92,96.11,96.11,0,0,0-8.83,13.88,88.72,88.72,0,0,0-9,28.07"/></g></svg>