<svg xmlns="http://www.w3.org/2000/svg" viewBox="0 0 180 152"><defs><style>.cls-1,.cls-2{fill:none;}.cls-2{stroke:#fff;stroke-linecap:round;stroke-linejoin:round;stroke-width:2.27px;}</style></defs><title>1</title><g id="Layer_2" data-name="Layer 2"><rect class="cls-1" width="180" height="152"/><path class="cls-2" d="M100.89,43.67l.24-.44C101.3,42.94,101.2,43.17,100.89,43.67Z"/><path class="cls-2" d="M64.35,74.88s-.19-2.48,1.28-2.48,2.48-3.21,3.39-5.14-2.29-4.58-1.37-4.12a4.8,4.8,0,0,0,4.13-.56c1-.82-.19-4.4.55-4.31s.73,1.2,3.85,1.56,6.33-3.94,7.8-5.59,1.65-8.72,1.65-8.72L88,49.74c.83,1.47,1.93,1.65,6.24.19,3.19-1.09,5.77-4.82,6.64-6.26-.75,1.45-2.07,4.67-.68,6,1.56,1.47,5.51.37,12.21,1.19a13.31,13.31,0,0,1,1.71.35l0,0c1.19.37,2.1-.78,3.38-2a16.55,16.55,0,0,0,2-2.2s-.82,3-.92,3.67c-.17,1.08-.62,2.06.16,2.59a22.36,22.36,0,0,1,4.8,4.18v0c.48.57,2.57.41,3.58-.24s4.64-2.52,4.64-2.52-2.71,3.06-3.12,3.62c-.84,1.14-2.44,2.61-1.84,3.72l-.06-.09a31.58,31.58,0,0,1,2.8,6.47c3.06,10,1.59,13.69,1.59,13.69-3.24,7.1-11.07,9.7-13.82,10.62a122.34,122.34,0,0,1-26.47,4H91c-1.47,0-1.31,1.48-1.83,2.83-.37.93-1.78,5.14-1.78,5.14s.06-2.63,0-3.85-.24-4.21-1.7-4.34h0c-.5-.06-1-.12-1.47-.2a18.9,18.9,0,0,1-2.62-.64l.14.06a3.19,3.19,0,0,0-3.33.67c-.55.58-2.69,3.15-2.69,3.15a21.27,21.27,0,0,0,1.1-2.56,4.09,4.09,0,0,0-.47-3.74l.1,0A34.05,34.05,0,0,1,65.81,82.49c-.55-1.19,1.38-5.23,1.38-5.23C63.43,76.62,64.35,74.88,64.35,74.88Z"/><path class="cls-2" d="M67.74,70.14s-2.06.5-2.92,0-2.52-3.67-2.58-3.85-.14,2.38-.53,2.87-3.19.86-3.19.86-1.79,9.29-1.12,12.17,2.32,5.07,3.05,5.26,3.34-.61,5.36-5"/><path class="cls-2" d="M58.4,70.7a4.22,4.22,0,0,1-1.3,0c-.8-.41-2.46-3.22-2.52-3.38s0,2.16-.35,2.62-2.83.91-2.83.91-1.18,8.48-.44,11,2.34,4.49,3,4.63,2.29.16,3.84-2.91"/><path class="cls-2" d="M51.29,71.65a8.71,8.71,0,0,1-1.82,0c-.78-.4-2.39-3.13-2.45-3.29s0,2.1-.34,2.55-2.76.88-2.76.88a23.78,23.78,0,0,0,.65,10.47A5.29,5.29,0,0,0,47.73,86c.58.12,2.23.15,3.73-2.83"/><path class="cls-2" d="M43.68,73.78s-1.72-.46-2.22-.51-2.62.6-7.34,4-12.66,14.4-13,16-.23,1.93,0,2S23,93.41,24.3,92.4s14.77-6.47,16.52-7.25a22.19,22.19,0,0,0,3.86-2.49"/><path class="cls-2" d="M94.88,96.47s1.73,2.9,3.68,3.82,4.77,1.71,6.06,2.57a36.19,36.19,0,0,1,3.42,2.87s-4.89-1.59-5.81-2-3.79-.42-5.5-1.22S91,96.66,91,96.66"/><path class="cls-2" d="M109.46,94.47a8.06,8.06,0,0,0-.11,3.48,9.83,9.83,0,0,0,1.7,3.19c.36.29-4.47-.94-5.21-3.22a15.76,15.76,0,0,1-.74-2.67"/><path class="cls-2" d="M56.28,85.69s.13,8.18.06,8.61.3,1.46,0,1.71,2.37,8.61,3.76,10.2A14,14,0,0,1,62,108.9s-4.45-2.39-6.36-5.81A21.85,21.85,0,0,1,53.14,96c-.16-.85-.56-10.79-.56-10.79"/><path class="cls-2" d="M47.62,86s-1.49,4.64-1.71,5-.29,1.33-.61,1.43-.67,8-.19,9.79a6.86,6.86,0,0,1-.15,3.59,10.2,10.2,0,0,1-3-6,61.16,61.16,0,0,1,.21-9,17.59,17.59,0,0,1,3-6.44"/><path class="cls-2" d="M139.3,88.61c-.24.39-.77,1.41-1.11,1.51a10.61,10.61,0,0,1-5.82,0,28.67,28.67,0,0,1-5.51-1.92"/><path class="cls-2" d="M135.06,84.57c.11-1.8,2.8-6.58,6.51-10.06s8.1-6.49,9.6-8.84,3.2-5.62,3.2-5.62A46.33,46.33,0,0,1,152,67.72a30.32,30.32,0,0,1-2.62,4.65"/><path class="cls-2" d="M130.6,83.05a37,37,0,0,0,4.46,1.52c2.51.68,3.2.89,3.54.35a38.21,38.21,0,0,1,6.56-9c3.71-3.5,8.44-6.39,10.16-8.57s3.75-5.28,3.75-5.28a24.08,24.08,0,0,1-2.58,6.79,36.18,36.18,0,0,1-6.38,6.86A28.8,28.8,0,0,0,143.84,83c-2,3.55-2.69,5.31-3.78,5.52a15,15,0,0,1-6.47-1,27.85,27.85,0,0,1-4.67-2"/><path class="cls-2" d="M43.74,78.1s-5,4-7.14,5.56-9.18,4.87-10.39,5.63a19.63,19.63,0,0,0-5.07,3.89"/></g></svg>