<svg xmlns="http://www.w3.org/2000/svg" width="133.826" height="64.585" viewBox="0 0 133.826 64.585">
    <defs>
        <style>
            .prefix__cls-1{fill:none;stroke:#fff;stroke-linecap:round;stroke-linejoin:round;stroke-width:1.75px}
        </style>
    </defs>
    <g id="prefix__benthic-crustacea" transform="translate(-1476.371 -813.789)">
        <g id="prefix__그룹_349" data-name="그룹 349" transform="translate(1518.773 814.671)">
            <path id="prefix__패스_886" d="M1565.556 815.214c.083-.16.165-.313.229-.423.159-.273.065-.058-.229.423z" class="prefix__cls-1" data-name="패스 886" transform="translate(-1530.562 -814.671)"/>
            <path id="prefix__패스_887" d="M1525.253 845.1s-.175-2.365 1.227-2.365 2.366-3.067 3.242-4.906-2.19-4.38-1.314-3.941a4.591 4.591 0 003.942-.528c.963-.791-.176-4.2.525-4.115s.7 1.139 3.68 1.489 6.044-3.767 7.446-5.343 1.577-8.322 1.577-8.322 1.489 2.627 2.277 4.029 1.84 1.577 5.956.176c3.045-1.037 5.509-4.6 6.342-5.973-.719 1.384-1.982 4.454-.647 5.71 1.489 1.4 5.256.351 11.651 1.139a12.214 12.214 0 011.636.334l-.048-.023c1.142.353 2-.749 3.23-1.888a16.335 16.335 0 001.928-2.1s-.778 2.9-.876 3.5c-.166 1.029-.6 1.964.151 2.47a21.773 21.773 0 014.584 3.991l-.012-.016c.463.541 2.459.388 3.423-.224s4.423-2.409 4.423-2.409-2.582 2.923-2.978 3.46c-.8 1.085-2.331 2.491-1.758 3.545l-.055-.078a29.62 29.62 0 012.674 6.169c2.921 9.577 1.519 13.081 1.519 13.081-3.1 6.775-10.571 9.257-13.2 10.133a116.967 116.967 0 01-25.279 3.8l.167.007c-1.408.048-1.249 1.418-1.752 2.709-.345.886-1.694 4.906-1.694 4.906s.059-2.511 0-3.679-.23-4.02-1.629-4.141h.052a25.45 25.45 0 01-1.4-.184 18.051 18.051 0 01-2.5-.618l.133.062a3.059 3.059 0 00-3.181.64c-.526.551-2.569 3.011-2.569 3.011a20.084 20.084 0 001.051-2.452 3.931 3.931 0 00-.448-3.571l.093.043a32.428 32.428 0 01-10.186-10.256c-.525-1.138 1.314-4.993 1.314-4.993-3.592-.617-2.717-2.279-2.717-2.279z" class="prefix__cls-1" data-name="패스 887" transform="translate(-1525.159 -814.755)"/>
        </g>
        <path id="prefix__패스_888" d="M1527.465 843.91s-1.965.472-2.788 0-2.406-3.509-2.47-3.684-.126 2.277-.507 2.744-3.039.818-3.039.818-1.71 8.877-1.077 11.622 2.216 4.848 2.912 5.023 3.195-.584 5.126-4.731" class="prefix__cls-1" data-name="패스 888" transform="translate(-5.354 -3.416)"/>
        <path id="prefix__패스_889" d="M1517.579 844.582a4.014 4.014 0 01-1.24-.04c-.767-.393-2.344-3.075-2.41-3.231s-.005 2.065-.326 2.5-2.71.863-2.71.863-1.12 8.1-.416 10.554 2.237 4.293 2.875 4.423c.575.118 2.187.152 3.66-2.779" class="prefix__cls-1" data-name="패스 889" transform="translate(-4.392 -3.562)"/>
        <path id="prefix__패스_890" d="M1509.742 845.66a8.34 8.34 0 01-1.731.051c-.748-.383-2.283-3-2.348-3.147s-.005 2.011-.318 2.438-2.639.841-2.639.841a22.713 22.713 0 00.617 10 5.047 5.047 0 003.02 3.525c.561.114 2.131.147 3.566-2.707" class="prefix__cls-1" data-name="패스 890" transform="translate(-3.344 -3.729)"/>
        <path id="prefix__패스_891" d="M1499.136 848.412s-1.642-.439-2.125-.483-2.5.572-7.008 3.768-12.089 13.752-12.4 15.242-.219 1.839 0 1.883 1.8-1.665 3.022-2.628 14.1-6.176 15.769-6.921a21.182 21.182 0 003.694-2.383" class="prefix__cls-1" data-name="패스 891" transform="translate(0 -4.448)"/>
        <path id="prefix__패스_892" d="M1558.357 873.5s1.645 2.771 3.514 3.647 4.556 1.635 5.782 2.452a35.1 35.1 0 013.27 2.745s-4.672-1.519-5.548-1.927-3.62-.409-5.256-1.168-5.49-5.571-5.49-5.571" class="prefix__cls-1" data-name="패스 892" transform="translate(-10.327 -7.868)"/>
        <path id="prefix__패스_893" d="M1574.357 871.3a7.687 7.687 0 00-.107 3.32 9.8 9.8 0 001.624 3.048c.351.275-4.271-.9-4.972-3.079a14.172 14.172 0 01-.705-2.555" class="prefix__cls-1" data-name="패스 893" transform="translate(-12.409 -7.574)"/>
        <path id="prefix__패스_894" d="M1515.835 861.545s.123 7.809.049 8.218.3 1.4 0 1.635 2.265 8.217 3.594 9.736a13.406 13.406 0 011.847 2.569s-4.249-2.277-6.077-5.547a20.888 20.888 0 01-2.419-6.775c-.148-.818-.533-10.309-.533-10.309" class="prefix__cls-1" data-name="패스 894" transform="translate(-4.666 -6.206)"/>
        <path id="prefix__패스_895" d="M1505.986 861.649s-1.423 4.429-1.626 4.746-.281 1.265-.587 1.363-.639 7.65-.18 9.349a6.546 6.546 0 01-.145 3.429 9.71 9.71 0 01-2.83-5.775 58.7 58.7 0 01.195-8.627 16.836 16.836 0 012.837-6.15" class="prefix__cls-1" data-name="패스 895" transform="translate(-3.094 -6.06)"/>
        <path id="prefix__패스_896" d="M1606.063 864.77c-.233.381-.735 1.349-1.064 1.448a10.179 10.179 0 01-5.559 0 27.681 27.681 0 01-5.254-1.835" class="prefix__cls-1" data-name="패스 896" transform="translate(-15.617 -6.648)"/>
        <path id="prefix__패스_897" d="M1603.217 856.764c.107-1.718 2.682-6.284 6.219-9.6s7.736-6.193 9.164-8.437 3.061-5.372 3.061-5.372a44.212 44.212 0 01-2.254 7.33 29.526 29.526 0 01-2.505 4.44" class="prefix__cls-1" data-name="패스 897" transform="translate(-16.825 -2.498)"/>
        <path id="prefix__패스_898" d="M1598.059 855.618a36.241 36.241 0 004.253 1.444c2.4.65 3.059.853 3.384.339a36.709 36.709 0 016.261-8.6c3.547-3.335 8.06-6.094 9.7-8.185s3.581-5.04 3.581-5.04a23.076 23.076 0 01-2.462 6.485 34.255 34.255 0 01-6.092 6.552 27.478 27.478 0 00-5.989 6.96c-1.929 3.395-2.567 5.074-3.612 5.276a14.287 14.287 0 01-6.172-.938 26.707 26.707 0 01-4.465-1.934" class="prefix__cls-1" data-name="패스 898" transform="translate(-15.92 -2.796)"/>
        <path id="prefix__패스_899" d="M1499.217 853.247s-4.788 3.821-6.809 5.308-8.771 4.656-9.927 5.378a18.96 18.96 0 00-4.843 3.717" class="prefix__cls-1" data-name="패스 899" transform="translate(-.031 -5.159)"/>
    </g>
</svg>
