<svg xmlns="http://www.w3.org/2000/svg" viewBox="0 0 180 152"><defs><style>.cls-1,.cls-2{fill:none;}.cls-2{stroke:#fff;stroke-linecap:round;stroke-linejoin:round;stroke-width:1.81px;}</style></defs><title>1</title><g id="Layer_2" data-name="Layer 2"><rect class="cls-1" width="180" height="152"/><path class="cls-2" d="M14.73,74.15c.21-5.21-1.14-13.67-1.14-13.67,3.09.5,10.62,3.52,15.35,6.43,2.71,1.67,5.52,3.54,8.69,3.37s19.58-6.35,27.28-7.86,31.73-3.3,55.62-1.34,45.78,9.39,46.73,13.63c.5,2.25,0,3.45-2.48,5.32S143.61,90.35,124.2,93.22c-11.93,1.77-39.12.17-54.33-5S38.11,77.18,34.5,77.19s-8.38,4.66-13.08,7a19.8,19.8,0,0,1-8.85,2.23A59.51,59.51,0,0,0,14.73,74.15Z"/><path class="cls-2" d="M115.79,93.87s-7.62,6.1-11.68,8.21-7.74.72-17.06-1.91-20.61-6.76-23-8S61,90,61.41,88.55s.82-2.89.82-2.89"/><path class="cls-2" d="M113.64,60.61S107.92,52.22,103.28,49c0,0-1.34-.74-2.1,1.35a21.41,21.41,0,0,0-.76,9.7"/><path class="cls-2" d="M90.82,60.31S86,52.61,81.32,49.4c0,0-1.19-.67-2.09,1.36S77.4,55.52,76.86,61"/><path class="cls-2" d="M59.88,63.67s-4.84-3.8-7.09-4.34-4.65.05-7.31,1.19a28.86,28.86,0,0,0-11.73,9"/><path class="cls-2" d="M33.44,77.32s5.48,5.87,9.21,9.19S49.44,90,52,88.8s7.68-4,7.68-4"/><circle class="cls-2" cx="150.46" cy="74.58" r="2.49"/><path class="cls-2" d="M137,74.65S134,78.28,133.5,81c0,0-13.34,5-15,5.1S113,82.81,111.7,81s.26-2.34,3.09-3.1S131.46,74.08,137,74.65Z"/></g></svg>