<svg xmlns="http://www.w3.org/2000/svg" viewBox="0 0 180 152"><defs><style>.cls-1,.cls-2,.cls-3{fill:none;}.cls-2,.cls-3{stroke:#fff;stroke-linecap:round;stroke-linejoin:round;}.cls-2{stroke-width:2.27px;}.cls-3{stroke-width:3px;}</style></defs><title>bumblebee</title><g id="Layer_2" data-name="Layer 2"><rect class="cls-1" width="180" height="152"/><path class="cls-2" d="M90,39.76c-1.42,0-3.18.33-3.68.92s-1.39.16-2.56,0-3,.25-3.43.83a2.65,2.65,0,0,0-.54,1.05s-2.56.46-2.1,4.14c0,0-1.71,3.27,1,5.28"/><path class="cls-2" d="M90,50.64a.57.57,0,0,0-.56-.39s.11.28,0,.39a3.6,3.6,0,0,1-1.56-.2,11.1,11.1,0,0,0-3,.45c-.86.28-1-.32-1-.32a6,6,0,0,1-1.09.91c-.28.08-.75-.53-1.28-.39a5.94,5.94,0,0,0-1.26.58c-.08.06-.84-.61-2.26.84a21.38,21.38,0,0,1-3.32,3.07c-.28,0,.39.72.78.84,0,0-1,1.11-.85,1.84s0,2.51.35,3.07.28,2.79,1.67,4,2.35,3.8,3.41,4,2.83,2,3.57,2.9a6.36,6.36,0,0,0,3.35,2c.89,0,1.67.22,3.07.22"/><path class="cls-2" d="M75.2,62.32c-1.53,2.8-16.35,30.52-17.94,33.36s-4.43,10.72-4.52,14.82-.16,7,2.68,6.62S69,109.51,74,98.37"/><path class="cls-2" d="M84.62,73.14a5.36,5.36,0,0,1-3.16,4.46A10.77,10.77,0,0,0,76,82c-1.26,2.34-2.68,4.5-2.85,7.69a20.33,20.33,0,0,0,2.43,12.4,28,28,0,0,0,10.49,10.55c2.18,1.17,3.35,1.73,3.91,1.73"/><path class="cls-2" d="M76.91,53.58A8.1,8.1,0,0,0,73.59,52a3,3,0,0,0-2.3,1.17c-.25.42-.67,1.68,0,2a18.35,18.35,0,0,1,3.55,2.09"/><path class="cls-2" d="M80,42.07s-2.5-2.82-3.38-3.74-4.07-2.64-5.67-3.47"/><path class="cls-2" d="M77.69,46.7a10.51,10.51,0,0,0,3.3.14A6.29,6.29,0,0,0,82.66,45c.11-.31-.56-3-2.33-3.52"/><path class="cls-2" d="M68.52,74.77a39.37,39.37,0,0,0-5.56,1c-.76.16-3.69,2.84-4.11,3.68A28.6,28.6,0,0,0,55,84.13c-.92,1.76-.5,3.35,0,3.6s1.12.11,2.12-1,3.58-4.63,3.63-5.25A23.86,23.86,0,0,0,66,79.44"/><path class="cls-2" d="M55.51,87.84s3.34-.5,4-.67a1.12,1.12,0,0,0,.77-.59"/><path class="cls-2" d="M90,39.76c1.42,0,3.18.33,3.68.92s1.39.16,2.56,0,3,.25,3.43.83a2.65,2.65,0,0,1,.54,1.05s2.56.46,2.1,4.14c0,0,1.71,3.27-1,5.28"/><path class="cls-2" d="M90,50.64a.57.57,0,0,1,.56-.39s-.11.28,0,.39a3.6,3.6,0,0,0,1.56-.2,11.1,11.1,0,0,1,3,.45c.86.28,1-.32,1-.32a6,6,0,0,0,1.09.91c.28.08.75-.53,1.28-.39a5.94,5.94,0,0,1,1.26.58c.08.06.84-.61,2.26.84a21.38,21.38,0,0,0,3.32,3.07c.28,0-.39.72-.78.84,0,0,1,1.11.85,1.84s0,2.51-.35,3.07-.28,2.79-1.67,4-2.35,3.8-3.41,4-2.83,2-3.57,2.9a6.36,6.36,0,0,1-3.35,2c-.89,0-1.67.22-3.07.22"/><path class="cls-2" d="M104.8,62.32c1.53,2.8,16.35,30.52,17.94,33.36s4.43,10.72,4.52,14.82.16,7-2.68,6.62S111,109.51,106,98.37"/><path class="cls-2" d="M95.38,73.14a5.36,5.36,0,0,0,3.16,4.46A10.77,10.77,0,0,1,104,82c1.26,2.34,2.68,4.5,2.85,7.69a20.33,20.33,0,0,1-2.43,12.4,28,28,0,0,1-10.49,10.55c-2.18,1.17-3.35,1.73-3.91,1.73"/><path class="cls-2" d="M103.09,53.58a8.1,8.1,0,0,1,3.32-1.6,3,3,0,0,1,2.3,1.17c.25.42.67,1.68,0,2a18.35,18.35,0,0,0-3.55,2.09"/><path class="cls-2" d="M100,42.07s2.5-2.82,3.38-3.74,4.07-2.64,5.67-3.47"/><path class="cls-2" d="M102.31,46.7a10.51,10.51,0,0,1-3.3.14A6.29,6.29,0,0,1,97.34,45c-.11-.31.56-3,2.33-3.52"/><path class="cls-2" d="M111.48,74.77a39.37,39.37,0,0,1,5.56,1c.76.16,3.69,2.84,4.11,3.68A28.6,28.6,0,0,1,125,84.13c.92,1.76.5,3.35,0,3.6s-1.12.11-2.12-1-3.58-4.63-3.63-5.25A23.86,23.86,0,0,1,114,79.44"/><path class="cls-2" d="M124.49,87.84s-3.34-.5-4-.67a1.12,1.12,0,0,1-.77-.59"/><path class="cls-2" d="M77.41,66.17s-3,10.17-3.32,11.6-.66,10.07-.66,10.07"/><path class="cls-3" d="M90,82.33a24.37,24.37,0,0,0,11.48-2.42"/><path class="cls-3" d="M90,82.33a24.37,24.37,0,0,1-11.48-2.42"/><path class="cls-3" d="M90,93c2.33,0,11-.7,16.08-4.09"/><path class="cls-3" d="M90,93c-2.33,0-11-.7-16.08-4.09"/><path class="cls-3" d="M90,103.72c2.8,0,9.86-.68,15.53-4"/><path class="cls-3" d="M90,103.72c-2.8,0-9.86-.68-15.53-4"/></g></svg>