<svg xmlns="http://www.w3.org/2000/svg" viewBox="0 0 180 120"><defs><style>.cls-1{fill:#fff;}.cls-2{fill:none;}</style></defs><title>impact_chart_icon_0219</title><g id="icon"><path class="cls-1" d="M128.39,94.59v-.11c-.09-4.44-3.11-12.58-4.66-15.35-.44-.77-1.88-3.44-3.76-6.94l.26.08c.65.17,3.53.6,4.1.69h.24a2,2,0,0,0,1.92-1.51A5.16,5.16,0,0,0,126,67.6a28.15,28.15,0,0,0-4-4.86c-.76-1.16-3.64-3.84-4.76-4.09l-.36-.08a41.3,41.3,0,0,0-4.73-.87l-.82-1.52-5.38-10c0-.11,0-.21,0-.23a5.11,5.11,0,0,0,.41-2.34,6.66,6.66,0,0,1,.07-1,2.15,2.15,0,0,0,0-.91c.42-.25,1.17-.68,2.59-1.39l.12-.06a1.75,1.75,0,0,0,.9-1.09,3.47,3.47,0,0,0-.44-2.51,4,4,0,0,0-3.43-1.71,9.76,9.76,0,0,0-3,1.23L103,35.9a5.45,5.45,0,0,0,.45-5.39c.21-2.48-.8-3.87-1.83-4.55.8-.9,2-2.27,2.58-2.85.19-.2,1.17-1.05,5.38-3.25a1.13,1.13,0,1,0-1-2c-3.23,1.69-5.24,2.93-6,3.7-.56.59-1.74,1.89-2.55,2.8a6.52,6.52,0,0,0-4-.8l-.91.17a4.57,4.57,0,0,1-.71.12c-1.17-1.18-4.12-1.22-4.46-1.22s-3.29,0-4.46,1.22a4.57,4.57,0,0,1-.71-.12c-.28-.06-.58-.12-.91-.17a6.59,6.59,0,0,0-4,.8c-.81-.91-2-2.21-2.55-2.8-.73-.77-2.74-2-6-3.7a1.13,1.13,0,0,0-1,2c4.21,2.2,5.19,3.05,5.38,3.25.56.58,1.78,1.95,2.58,2.85-1,.68-2,2.07-1.83,4.55A5.45,5.45,0,0,0,77,35.9l-.18.19a9.76,9.76,0,0,0-3-1.23,4,4,0,0,0-3.44,1.71,3.52,3.52,0,0,0-.43,2.51,1.75,1.75,0,0,0,.9,1.09l.11.06c1.44.72,2.2,1.14,2.6,1.39a2.15,2.15,0,0,0,0,.91,6.66,6.66,0,0,1,.07,1,5.19,5.19,0,0,0,.38,2.29,1.59,1.59,0,0,1,.07.28c-.78,1.45-2.89,5.38-5.4,10.08l-.8,1.48a41.3,41.3,0,0,0-4.73.87l-.36.08c-1.12.25-4,2.93-4.76,4.09a28.15,28.15,0,0,0-4,4.86,5.16,5.16,0,0,0-.49,3.86A2,2,0,0,0,55.43,73h.24c.57-.09,3.45-.52,4.1-.7l.26-.07c-1.88,3.49-3.32,6.17-3.76,6.94C54.72,81.9,51.7,90,51.61,94.48v.11c-.07,3.29-.12,5.67,1.28,6.94a3,3,0,0,0,2.1.75,5.46,5.46,0,0,0,.56,0c3.22-.38,12.89-7.11,18.31-17.1.22.5.46,1,.74,1.52a29.08,29.08,0,0,0,11,11c2.68,1.44,3.68,1.86,4.44,1.86s1.76-.42,4.44-1.86a29.08,29.08,0,0,0,11-11c.28-.52.52-1,.74-1.52,5.42,10,15.09,16.72,18.31,17.1a5.46,5.46,0,0,0,.56,0,3,3,0,0,0,2.1-.75C128.51,100.26,128.46,97.88,128.39,94.59Zm-10-25.31-1.83-3.41c.75.28,1.41.48,1.84.61a26.22,26.22,0,0,0,2.43,3.6h0C120.44,70,119.19,69.55,118.41,69.28Zm-2-8.5.31.06a15.67,15.67,0,0,1,3.4,3.11,1.27,1.27,0,0,0,.21.29A26.52,26.52,0,0,1,124,68.66a3.11,3.11,0,0,1,.39,1.94,3.52,3.52,0,0,1-.68-.6,29.76,29.76,0,0,1-3.34-4.68,1.14,1.14,0,0,0-.83-.89,23,23,0,0,1-4.7-1.82l-1.31-2.44C114.68,60.37,115.77,60.63,116.42,60.78ZM95.55,55.49A5.44,5.44,0,0,1,93,57c-.33,0-.64.06-1,.09a15.91,15.91,0,0,1-4.06,0c-.33,0-.64-.07-1-.09a5.44,5.44,0,0,1-2.55-1.54s-2.4-2.91-4.14-3.27a6.33,6.33,0,0,1-1.08-1.42,10.58,10.58,0,0,0-1.9-2.38,4.31,4.31,0,0,1-1-2.42,3.9,3.9,0,0,0-.36-1.2,7.24,7.24,0,0,1-.11-1.3,8.71,8.71,0,0,0-.12-1.44,3.19,3.19,0,0,1,.57-.88,1.13,1.13,0,0,0,.29-1.06,1,1,0,0,0-.21-.42c.55-.5,1.32-1.26,2.43-2.4l.31-.28a1.19,1.19,0,0,0,.36-.24.39.39,0,0,1,.3-.06,1.19,1.19,0,0,0,1.11-.1,5,5,0,0,1,.78-.39l.1.06a1.65,1.65,0,0,0,1.36.27A2.13,2.13,0,0,0,84,36,2.13,2.13,0,0,0,85.21,36a13.82,13.82,0,0,1,2.38-.41,5.41,5.41,0,0,0,1.35.24,2.31,2.31,0,0,0,.8-.06,1.1,1.1,0,0,0,.51,0,2.4,2.4,0,0,0,.81.07,5.41,5.41,0,0,0,1.35-.24,13.82,13.82,0,0,1,2.38.41,2.13,2.13,0,0,0,1.26.06,2.2,2.2,0,0,0,.85.53,1.64,1.64,0,0,0,1.36-.27l.1-.06a5,5,0,0,1,.78.39,1.19,1.19,0,0,0,1.11.1.39.39,0,0,1,.3.06,1.19,1.19,0,0,0,.36.24l.31.28c1.13,1.16,1.9,1.92,2.45,2.42a1.18,1.18,0,0,0-.19.39,1.13,1.13,0,0,0,.25,1.07,4,4,0,0,1,.39.53,2,2,0,0,0,.13.25l0,.1a8.71,8.71,0,0,0-.12,1.44,8.76,8.76,0,0,1-.08,1.24,4,4,0,0,0-.39,1.26,4.31,4.31,0,0,1-1,2.42,10.58,10.58,0,0,0-1.9,2.38,8.73,8.73,0,0,1-1,1.4C98,52.58,95.57,55.46,95.55,55.49Zm-17.72-2.7a3.42,3.42,0,0,0,1.94,1.63,9.52,9.52,0,0,1,2.93,2.51,5.67,5.67,0,0,0,.74.72A4.5,4.5,0,0,1,81,60.56a11.65,11.65,0,0,0-6,4.94l-.16.29A36.32,36.32,0,0,1,75.2,62C75.42,61.06,76.93,55.87,77.83,52.79ZM88.76,33.73h0l0,0ZM89,35.12h0l0,0h0Zm2.19-1.36,0,0h0Zm15.36,3.34a2.26,2.26,0,0,1,1.17.63,2.35,2.35,0,0,1,.19.55l-1.54.8a1.25,1.25,0,0,0-.64-.56,8.92,8.92,0,0,1-.87-.77A7.12,7.12,0,0,1,106.57,37.1Zm-7.11-7.31a7.14,7.14,0,0,1-1-1.05,4.29,4.29,0,0,1,.76-1.59,1.21,1.21,0,0,0,.73.52c.22,0,1.17.37,1.23,2A11.22,11.22,0,0,1,99.46,29.79Zm-15.86-4,.76.14a2.65,2.65,0,0,0,2.8-.51A6.16,6.16,0,0,1,90,24.89a6.37,6.37,0,0,1,2.82.52,2.66,2.66,0,0,0,2.82.53l.76-.14a4,4,0,0,1,1,0,6.06,6.06,0,0,0-.61,1c0,.07-.87,1.75-.55,2.65a6.84,6.84,0,0,0,2.29,2.46,2.62,2.62,0,0,0,1.21.19,17,17,0,0,0,1.8-.13,2.87,2.87,0,0,1-.42,2.66,2.61,2.61,0,0,0-1.2-.13A5.52,5.52,0,0,0,98.8,34a1.9,1.9,0,0,0-1.42.2L97,33.77a1.18,1.18,0,0,0-1.09-.3,1.13,1.13,0,0,0-.52.3c-.65-.2-2.94-.83-3.89-.22h0a1.28,1.28,0,0,1,.23-.13l-.28.06a1.19,1.19,0,0,0-.83-.36,1.69,1.69,0,0,0-.56.1,1.74,1.74,0,0,0-.56-.1,1.19,1.19,0,0,0-.83.36l-.28-.06a1.28,1.28,0,0,1,.23.13h0c-.92-.6-3.12,0-3.89.21a1.15,1.15,0,0,0-1.61,0l-.43.42A2,2,0,0,0,81.2,34a5.52,5.52,0,0,0-1.15.48,2.41,2.41,0,0,0-1.21.13,2.89,2.89,0,0,1-.41-2.66,17,17,0,0,0,1.8.13,2.62,2.62,0,0,0,1.21-.19,6.84,6.84,0,0,0,2.29-2.46c.31-.88-.46-2.47-.55-2.64a5.63,5.63,0,0,0-.61-1A3.58,3.58,0,0,1,83.6,25.8ZM80,27.68a1.2,1.2,0,0,0,.75-.53,4.29,4.29,0,0,1,.76,1.59,7.14,7.14,0,0,1-1,1.05,11.18,11.18,0,0,1-1.76-.09C78.84,28,79.79,27.72,80,27.68ZM72.24,37.76a2.24,2.24,0,0,1,1.19-.66,7.12,7.12,0,0,1,1.69.65,9.42,9.42,0,0,1-.87.77,1.25,1.25,0,0,0-.64.56l-1.54-.8A1.86,1.86,0,0,1,72.24,37.76ZM56,68.66a26,26,0,0,1,3.65-4.42,2.16,2.16,0,0,0,.21-.29,16.42,16.42,0,0,1,3.33-3.09l.38-.08c.65-.15,1.74-.41,2.9-.61l-1.31,2.44a23,23,0,0,1-4.7,1.82,1.14,1.14,0,0,0-.83.89A29.76,29.76,0,0,1,56.3,70a5.09,5.09,0,0,1-.67.61A3,3,0,0,1,56,68.66Zm3.16,1.42h0a26.22,26.22,0,0,0,2.43-3.6c.43-.13,1.09-.33,1.84-.61l-1.83,3.41C60.81,69.55,59.56,70,59.17,70.08ZM55.29,100a1.16,1.16,0,0,1-.88-.14c-.63-.58-.58-2.94-.54-5.22v-.11c.08-3.93,2.88-11.62,4.37-14.28,1-1.83,7.3-13.54,12.35-22.95L75,49.1a4.18,4.18,0,0,0,.88,1.06,3.57,3.57,0,0,1,.28.27c-.64,2.2-2.87,9.82-3.16,11.08-.34,1.45-.64,9.06-.69,10.21a12.94,12.94,0,0,0-.26,2l0,.46a21.8,21.8,0,0,0,.76,8.14C67.86,92.78,57.68,99.71,55.29,100Zm38.08-4.31A22.49,22.49,0,0,1,90,97.27a21.46,21.46,0,0,1-3.38-1.59,26.58,26.58,0,0,1-10-10.08A23.43,23.43,0,0,1,75,82h0a19.06,19.06,0,0,1-.76-7.71l0-.47a14.18,14.18,0,0,1,2.22-6.31l.5-.91a9.5,9.5,0,0,1,4.89-3.93,6.79,6.79,0,0,0,3.51-3.75,4.66,4.66,0,0,0,1.44.41l.86.08a18.64,18.64,0,0,0,4.56,0l.86-.08a4.66,4.66,0,0,0,1.44-.41,6.79,6.79,0,0,0,3.51,3.75A9.5,9.5,0,0,1,103,66.57c.16.31.33.61.5.91a14.18,14.18,0,0,1,2.22,6.31l0,.47A19.06,19.06,0,0,1,105,82h0a24.44,24.44,0,0,1-1.56,3.63A26.58,26.58,0,0,1,93.37,95.68Zm32.22,4.17a1.16,1.16,0,0,1-.88.14c-2.39-.28-12.57-7.21-17.48-17.72a21.8,21.8,0,0,0,.76-8.14l0-.46a16.09,16.09,0,0,0-2.5-7.29L105,65.5a11.65,11.65,0,0,0-6-4.94,4.5,4.5,0,0,1-2.43-2.91,5.67,5.67,0,0,0,.74-.72,9.63,9.63,0,0,1,2.92-2.51c1-.22,1.7-1.22,2.45-2.38a8.76,8.76,0,0,1,1.46-1.88A4.18,4.18,0,0,0,105,49.1c1,1.94,2.61,4.86,4.38,8.15,5,9.43,11.33,21.16,12.36,23,1.49,2.66,4.29,10.35,4.37,14.28v.11C126.17,96.91,126.22,99.27,125.59,99.85Z"/><rect class="cls-2" width="180" height="120"/></g></svg>