<svg xmlns="http://www.w3.org/2000/svg" viewBox="0 0 180 152"><defs><style>.cls-1,.cls-2,.cls-3,.cls-4{fill:none;}.cls-2,.cls-3,.cls-4{stroke:#fff;stroke-linecap:round;}.cls-2,.cls-3{stroke-linejoin:round;}.cls-2{stroke-width:2.27px;}.cls-3,.cls-4{stroke-width:1.81px;}.cls-4{stroke-miterlimit:10;}</style></defs><title>1</title><g id="Layer_2" data-name="Layer 2"><rect class="cls-1" width="180" height="152"/><path class="cls-2" d="M78,108.78a32.34,32.34,0,0,1,1.47-17.62,59.35,59.35,0,0,1,8.76-15.54C94,68,101,61,109.23,56.16a27.41,27.41,0,0,1,9.18-3.7A13.51,13.51,0,0,1,128,54.11a6,6,0,0,0,1.4.78c1.44.46,2.91-.5,4.39-.77A6.22,6.22,0,0,1,139,55.88a12.67,12.67,0,0,1,3,4.81c2.85,7.28,2.46,15.6-.21,23a50.16,50.16,0,0,1-13.24,19.12,68.52,68.52,0,0,1-10.77,8.18c-7,4.3-14.72,7.36-21.89,11.41C91.5,124.82,84,128.52,81,122.22c-.92-1.93-.89-4.12-1.22-6.18C79.4,113.57,78.55,111.22,78,108.78Z"/><path class="cls-2" d="M84.24,125.34a28.53,28.53,0,0,0,14.9,0c1.52-.39,3-1,4.5-1.34,3.16-.81,6.47-.85,9.68-1.44a34.54,34.54,0,0,0,16.84-8.76,57.25,57.25,0,0,0,11.49-15.33A38.79,38.79,0,0,0,145.46,89a44,44,0,0,0,.93-7.78c.41-8-.32-15.71-6.19-24"/><path class="cls-2" d="M124.73,58c-2.16-.61-5-.12-7.19.39a27.68,27.68,0,0,0-10.56,5,74.77,74.77,0,0,0-8.78,7.9c-1.73,1.83-3.37,3.75-5,5.69-4.1,4.94-8,10.19-10.06,16.29a22.74,22.74,0,0,0-.53,13.12c.54,1.94,1.65,3.59,2.32,5.47s1.08,4.05,1.62,6a2.11,2.11,0,0,0,.45.94c.67.66,1.79.1,2.57-.44a36.43,36.43,0,0,1,8-4.22c3.61-1.36,7.43-2.14,10.93-3.75,3.8-1.74,7.1-4.4,10.35-7A74.13,74.13,0,0,0,129,94.05a39.87,39.87,0,0,0,8.48-16.87c.52-2,1.41-5.27,1.34-7.33-.17-4.91-3-8.77-5.53-9.93C129.38,58.1,127.27,58.68,124.73,58Z"/><path class="cls-3" d="M111.29,108.31a8.9,8.9,0,0,1-5-3.88,15.07,15.07,0,0,1-2.53-9.06,3.65,3.65,0,0,1,1-2.73c1-.83,2.56-.47,3.76.11a13.57,13.57,0,0,1,7.47,12.4"/><path class="cls-3" d="M93,115.59a6.16,6.16,0,0,1-.66-3.87A10.48,10.48,0,0,1,94.87,106a3.72,3.72,0,0,1,1.91-1.29,2.73,2.73,0,0,1,2.17.59,4.72,4.72,0,0,1,1.33,1.87,7.27,7.27,0,0,1-.08,5.75"/><path class="cls-3" d="M99.42,105.68a6.23,6.23,0,0,0,6.87-1.25"/><path class="cls-3" d="M96.07,104.54a7.2,7.2,0,0,1-3.2-5.85,4.36,4.36,0,0,1,1-3.06,4.88,4.88,0,0,1,2.68-1.25,11.3,11.3,0,0,1,7,1l-.34-.24"/><path class="cls-3" d="M113.79,97.14a10.56,10.56,0,0,1,.53-10.29c1-1.46,2.74-2.67,4.45-2.21a5,5,0,0,1,2.51,2,17,17,0,0,1,3.07,11.91"/><path class="cls-3" d="M124,92.55a6.74,6.74,0,0,0,4.68,1.65"/><path class="cls-3" d="M121.28,86.69c-.79-1,0-3,1.1-3.66a4.87,4.87,0,0,1,3.77-.24,10.92,10.92,0,0,1,6.73,5.42"/><path class="cls-3" d="M113.1,89.46a7.77,7.77,0,0,1-6.87.47,12.49,12.49,0,0,1-4.63-4.36,8.9,8.9,0,0,1-1.29-2.46,3.53,3.53,0,0,1,2.75-4.74,8.1,8.1,0,0,1,3.43.06A13.44,13.44,0,0,1,112,80.7a8.67,8.67,0,0,1,3.33,4.84"/><path class="cls-3" d="M134.89,83.7a16,16,0,0,1-5-5.16A10.41,10.41,0,0,1,128.09,74a4.21,4.21,0,0,1,6.74-4.13,10.72,10.72,0,0,1,3.4,3.91"/><path class="cls-3" d="M112.46,78.22a12.3,12.3,0,0,1-6.25-2.85c-1.43-1.3-2.48-3.3-1.88-5.13a4.38,4.38,0,0,1,3.33-2.68,9.08,9.08,0,0,1,4.41.43,15.26,15.26,0,0,1,7.6,5c1.75,2.28,2,5-1.29,5.37A21,21,0,0,1,112.46,78.22Z"/><path class="cls-3" d="M104.56,78a3.08,3.08,0,0,1,.85-3.46"/><path class="cls-3" d="M122,83.33c.19,0,.32-.62.33-.8a4.26,4.26,0,0,0-.82-2.63A6.66,6.66,0,0,0,119.68,78"/><path class="cls-3" d="M97.25,94.06a7.84,7.84,0,0,1-4.18-3.43,6.88,6.88,0,0,1-1.16-3.76,4.26,4.26,0,0,1,1.74-3.44,4.73,4.73,0,0,1,3.67-.51,13.7,13.7,0,0,1,3.5,1.5"/><path class="cls-3" d="M93.63,91.43A3.41,3.41,0,0,0,89.46,91a5.88,5.88,0,0,0-1.95,3.78,11.17,11.17,0,0,0,2.61,9.06,4.12,4.12,0,0,0,3.24,1.69,5.11,5.11,0,0,0,2.38-1.14"/><path class="cls-3" d="M121,76c1,1.35,1.91,2.26,3.56,2.24a3.75,3.75,0,0,0,3.59-3.2"/><path class="cls-3" d="M117.65,70.92a9.74,9.74,0,0,1-2.73-4.72A4.52,4.52,0,0,1,116,61.88a3.12,3.12,0,0,1,1.94-1,3.8,3.8,0,0,1,1.16.13,9.43,9.43,0,0,1,3.93,1.69A17.41,17.41,0,0,1,125.88,66a13.83,13.83,0,0,1,2.5,5.3"/><path class="cls-2" d="M77.79,107.63a95.22,95.22,0,0,1-10.67,12.58c-2.57,2.53-5.69,4.45-9.1,2.23-3.66-2.38-7-7.22-9.88-10.51a58.37,58.37,0,0,1-8.42-64.84,40.39,40.39,0,0,1,7.63-10.84,61,61,0,0,1,6.81-5.49L60,26.52a3.91,3.91,0,0,1,1.38-.76,3.55,3.55,0,0,1,1.62.06c6.84,1.42,12.06,7,15.7,13a57.86,57.86,0,0,1,6.73,16.11,79.73,79.73,0,0,1,1.91,22"/><path class="cls-4" d="M61.58,114.63c-5.06-26.17-5.6-55.7-.38-81.77,0-.23.13-.5.26-.47s0,.53,0,.33"/><path class="cls-4" d="M71.88,106.3C74.09,95,75.92,83.53,76,72s-1.51-23.15-6-33.88"/><path class="cls-4" d="M50.86,104.46a58,58,0,0,1-3-58.85"/></g></svg>