<svg xmlns="http://www.w3.org/2000/svg" viewBox="0 0 180 152"><defs><style>.cls-1,.cls-2{fill:none;}.cls-2{stroke:#fff;stroke-linecap:round;stroke-linejoin:round;stroke-width:2.27px;}</style></defs><title>1</title><g id="Layer_2" data-name="Layer 2"><rect class="cls-1" width="180" height="152"/><path class="cls-2" d="M90,45.94c-.83,0-3.81.74-3.81,2.59"/><path class="cls-2" d="M90,48.78c-1.32,0-4.44-.05-5.71.53a4.29,4.29,0,0,0-1.86,1.76,3.22,3.22,0,0,0-1.66,3.17"/><path class="cls-2" d="M83.86,84.48c1.26.49,3.17,1.46,3.72,1.41.74-.07,1.69,0,2.42,0"/><path class="cls-2" d="M90,52.12c0-.29-.59-.22-1,0s-2,0-2.6.48A16.69,16.69,0,0,1,83,54c-.62.15-3.41.55-4,1.4s-3.08,3.26-3.23,4.39-1.68,3-1.57,4-1.39,4-1.47,4.54a19.58,19.58,0,0,0,0,3.52,14.17,14.17,0,0,0,.89,2.35"/><path class="cls-2" d="M77.11,65.82s-.69,16.23,6.76,18.66c0,0,1.08,12,1.3,13.94s.51,5.27,0,6.52a66.71,66.71,0,0,1-4.91,7.17c-.59.66-4.76,7.26-9.38,4.25s-3.7-11.65-3.37-14.87C68.24,94.39,73.37,70.87,77.11,65.82Z"/><path class="cls-2" d="M80.26,112.11c2.27,1.91,3.73,4,9.74,4"/><path class="cls-2" d="M85.42,103.51A9.88,9.88,0,0,0,90,104.57"/><path class="cls-2" d="M85,96.59a9.88,9.88,0,0,0,5,1.06"/><path class="cls-2" d="M74.65,62.29S79.16,59,90,59"/><path class="cls-2" d="M88.1,46.4A12.76,12.76,0,0,0,86.19,43c-1.07-1.17-6.15-6.25-7.32-8.1"/><path class="cls-2" d="M74.86,61.89S73.74,59.91,73,59s-1.61-1-2.09-.71a6.11,6.11,0,0,0-1.9,4.47c0,2.42.83,7.36,2.9,7.62"/><path class="cls-2" d="M72,58.17a7.15,7.15,0,0,0-1-3.19C70,53.7,69,53.59,68.61,53.77s-1.37,1.06-1.4,1.43.45,4.17,1.84,5.89"/><path class="cls-2" d="M67.71,54.48s-3.28.06-4.56,0-3.81-.24-3.81-.24"/><path class="cls-2" d="M73.18,75.53s-4.77,4.55-5.5,4.94-2.29-.39-3.51-.44l-3.47-.15"/><path class="cls-2" d="M71.35,82.24s-4.74,8.34-5.08,9-1.32.15-1.76.22-.78,8.13-1.42,9"/><path class="cls-2" d="M90,45.94c.83,0,3.81.74,3.81,2.59"/><path class="cls-2" d="M90,48.78c1.32,0,4.44-.05,5.71.53a4.29,4.29,0,0,1,1.86,1.76,3.22,3.22,0,0,1,1.66,3.17"/><path class="cls-2" d="M96.14,84.48c-1.26.49-3.17,1.46-3.72,1.41-.74-.07-1.69,0-2.42,0"/><path class="cls-2" d="M90,52.12c0-.29.59-.22,1,0s2,0,2.6.48A16.69,16.69,0,0,0,97,54c.62.15,3.41.55,4,1.4s3.08,3.26,3.23,4.39,1.68,3,1.57,4,1.39,4,1.47,4.54a19.58,19.58,0,0,1,0,3.52,14.17,14.17,0,0,1-.89,2.35"/><path class="cls-2" d="M102.89,65.82s.69,16.23-6.76,18.66c0,0-1.08,12-1.3,13.94s-.51,5.27,0,6.52a66.71,66.71,0,0,0,4.91,7.17c.59.66,4.76,7.26,9.38,4.25s3.7-11.65,3.37-14.87C111.76,94.39,106.63,70.87,102.89,65.82Z"/><path class="cls-2" d="M99.74,112.11c-2.27,1.91-3.73,4-9.74,4"/><path class="cls-2" d="M94.58,103.51A9.88,9.88,0,0,1,90,104.57"/><path class="cls-2" d="M95,96.59a9.88,9.88,0,0,1-5,1.06"/><path class="cls-2" d="M105.35,62.29S100.84,59,90,59"/><path class="cls-2" d="M91.9,46.4A12.76,12.76,0,0,1,93.81,43c1.07-1.17,6.15-6.25,7.32-8.1"/><path class="cls-2" d="M105.14,61.89s1.12-2,1.82-2.91,1.61-1,2.09-.71a6.11,6.11,0,0,1,1.9,4.47c0,2.42-.83,7.36-2.9,7.62"/><path class="cls-2" d="M108.05,58.17a7.15,7.15,0,0,1,1-3.19c.92-1.28,1.94-1.39,2.31-1.21s1.37,1.06,1.4,1.43-.45,4.17-1.84,5.89"/><path class="cls-2" d="M112.29,54.48s3.28.06,4.56,0,3.81-.24,3.81-.24"/><path class="cls-2" d="M106.82,75.53s4.77,4.55,5.5,4.94,2.29-.39,3.51-.44l3.47-.15"/><path class="cls-2" d="M108.65,82.24s4.74,8.34,5.08,9,1.32.15,1.76.22.78,8.13,1.42,9"/></g></svg>