<svg xmlns="http://www.w3.org/2000/svg" viewBox="0 0 180 152"><defs><style>.cls-1,.cls-2{fill:none;}.cls-2{stroke:#fff;stroke-linecap:round;stroke-linejoin:round;stroke-width:2.27px;}</style></defs><title>1</title><g id="Layer_2" data-name="Layer 2"><rect class="cls-1" width="180" height="152"/><polygon class="cls-2" points="64.5 76.11 64.5 126.92 126.22 114.62 128.67 66.28 64.5 76.11"/><polyline class="cls-2" points="128.67 66.28 146.09 53.98 73.62 64.23 64.5 76.11"/><polygon class="cls-2" points="64.5 76.11 46.11 51.73 19.48 38.82 39.4 66.81 64.5 76.11"/><polyline class="cls-2" points="64.5 126.92 49.19 102.88 47.05 69.64"/><polygon class="cls-2" points="46.11 51.73 101.91 44.15 97.84 25.09 42.63 30.22 46.11 51.73"/><polyline class="cls-2" points="101.91 44.15 124.44 28.58 152.52 45.3 139.5 54.92"/><line class="cls-2" x1="101.91" y1="44.15" x2="120.74" y2="57.57"/><line class="cls-2" x1="101.91" y1="44.15" x2="101.91" y2="60.23"/></g></svg>