<svg xmlns="http://www.w3.org/2000/svg" viewBox="0 0 180 152"><defs><style>.cls-1,.cls-2,.cls-3{fill:none;}.cls-2,.cls-3{stroke:#fff;stroke-linecap:round;stroke-linejoin:round;}.cls-2{stroke-width:1.36px;}.cls-3{stroke-width:2.27px;}</style></defs><title>1</title><g id="Layer_2" data-name="Layer 2"><rect class="cls-1" width="180" height="152"/><path class="cls-2" d="M102.36,31.81c0-1.06-1.21-3.56-5.6-3.56s-5.59,4.46-5,7.94a15,15,0,0,0,3.41,6.5"/><path class="cls-2" d="M102.36,39.29a8.39,8.39,0,0,0-7.49,5.59c-1.89,4.62.38,11.87,7.49,11.87"/><path class="cls-2" d="M102.36,52.9a9,9,0,0,1-4.06-.69"/><circle class="cls-2" cx="97.75" cy="34.98" r="1.36"/><path class="cls-2" d="M102.36,31.81c0-1.06,1.21-3.56,5.59-3.56s5.6,4.46,5,7.94a14.88,14.88,0,0,1-3.4,6.5"/><path class="cls-2" d="M102.36,39.29a8.38,8.38,0,0,1,7.48,5.59c1.89,4.62-.38,11.87-7.48,11.87"/><path class="cls-2" d="M102.36,52.9a9,9,0,0,0,4.06-.69"/><circle class="cls-2" cx="106.97" cy="34.98" r="1.36"/><path class="cls-2" d="M99.85,43.8s.68.39.74.54"/><path class="cls-2" d="M104.86,43.8s-.68.39-.74.54"/><path class="cls-3" d="M90,24.38s-1.87-3.46-4.48-2.5-4.31,4-2.61,8.51,4.65,5.5,4.65,5.5"/><path class="cls-3" d="M69.61,113.11c0,.51-1.42,13.38-1.48,14.12s3,3.06,3.57,3.46-.11,3.45-.62,3.57-3.8-1-6.46-1-4.09,1.53-5.05,1.92-7.6,1.08-8.79-.68.74-4.65,2.16-5.44,1.87-3.34,1.87-3.34c.45-9.19-.12-29.83-.12-29.83s-2.83-12-2.15-22.61A59.07,59.07,0,0,1,60.36,48c3.52-6.35,7.53-14.63,8.81-16.52s4.61-7.33,16.1-13.3S99,13.51,103,13.51s13.8,3.22,16.27,8.37"/><path class="cls-3" d="M85.19,34.2a81.35,81.35,0,0,0-.9,10.65C84.4,48.7,87.65,64,102.36,64"/><path class="cls-3" d="M114.76,24.38s1.87-3.46,4.47-2.5,4.31,4,2.61,8.51-4.65,5.5-4.65,5.5"/><path class="cls-3" d="M119.53,34.2a80.16,80.16,0,0,1,.89,10.65C120.31,48.7,117.06,64,102.36,64"/><path class="cls-3" d="M122.49,26.37s6.7,12.81,7,21.65-1,26.49-1,26.49,1,18.42,0,24.31-5,17.46-4.87,19.39.68,4.76.45,6.81-.37,10.65-1.6,11.11a16.68,16.68,0,0,1-6.68,0c-1.47-.46-2.72-2.61-1.7-3.52s4.08,0,4.08,0"/><path class="cls-3" d="M117.07,132.36s2.64-3.15,2.16-3.83-1-5.1-1-5.1-2.71,2.83-3.84,3.17-4-.9-2.38-3.17,3.23-4.65,3.43-5.78.76-9.19.76-9.19S113.09,91.9,113,84.76s0-9.64,0-9.64l-2.5-13"/><path class="cls-3" d="M83.84,56.75S82,72.32,82.19,74.51s-.74,30.44,0,33.5,1.58,8.16,2.63,9.64,6.05,7.14,5.93,8.95-1,2.84-1.81,2.27-4.12-3.17-4.12-3.17-3,8.16-2.92,9.18,1.64,1.25,2.92,1.59,1.44,2.95,0,3.4-7.79,1-9.26.57-5.57,0-3.81-7.66,2.34-13.77,2.11-15.25S68.53,111,65.92,101,64,75.12,64.22,71.72s.23-5.67.23-5.67"/><path class="cls-3" d="M59.8,71.38a17.24,17.24,0,0,0,4.17,5"/><path class="cls-3" d="M111.24,66.06s-14.14,13-29,12.16"/><path class="cls-3" d="M99.11,74.17s2.76,11.73,2.76,14.22-.46,8.16,0,9.64,2.49,17.23,0,22.45l9.37,4.65"/><path class="cls-3" d="M113.09,126.51c.68,1.45,0,4.06-.68,4.52s-4.31,1.13-4.08.45-5.22-2.34-5.22-2.34"/><path class="cls-3" d="M101.3,127.17s3.21,4,3.19,4.6-2.28,2.43-3.19,1.3-3.65-3.15-5.68-2.77S90.47,128,90.47,128"/><path class="cls-3" d="M84.28,116.55s2.51-14.44,4.32-17.39c0,0-5.28-5.66-6.61-9.29"/></g></svg>