<svg xmlns="http://www.w3.org/2000/svg" viewBox="0 0 180 152"><defs><style>.cls-1,.cls-2{fill:none;}.cls-2{stroke:#fff;stroke-linecap:round;stroke-linejoin:round;stroke-width:2.27px;}</style></defs><title>1</title><g id="Layer_2" data-name="Layer 2"><rect class="cls-1" width="180" height="152"/><path class="cls-2" d="M90,44.2a4.15,4.15,0,0,0-2.76.93s-1.84,0-2.3.51a7.51,7.51,0,0,0-.87,1.25,3.47,3.47,0,0,0-2.47.46,4,4,0,0,0-1,4.6s-2.18,1.46-2.51,3.21-.17,2.89-.54,3.26a13.14,13.14,0,0,0-1,1.38A4.18,4.18,0,0,1,79,62a15.21,15.21,0,0,1,3.72-.92C84.27,61,88.33,61,90,61"/><path class="cls-2" d="M79,62s.62,6.81,1,8.27,1.42,3.93,3.22,4.89A16.72,16.72,0,0,0,90,77"/><path class="cls-2" d="M80.87,72.37A25.25,25.25,0,0,0,79,77c-.75,2.59-.46,8.28.42,10.91s4.72,10.87,4.83,12.26,1.45,4.18,2,6.24a30.28,30.28,0,0,1,1.11,4.4c0,.51.78.67.78.67a20.47,20.47,0,0,0,.63,2.6,1.59,1.59,0,0,0,1.21,1"/><path class="cls-2" d="M84.07,46.89a2,2,0,0,1,.6,1.4,3.79,3.79,0,0,1-1.11,2.93,3.45,3.45,0,0,1-2.92.73"/><path class="cls-2" d="M84.94,45.64a10.75,10.75,0,0,0-3-3.85,17,17,0,0,0-3.63-1.92"/><path class="cls-2" d="M80.38,49.45S78.21,48,77.75,47.64a19.47,19.47,0,0,1-3.26-4,2.27,2.27,0,0,0-1.25-1.3l-.54.84s.54,1.21.71,1.63a32.28,32.28,0,0,0,2.71,3.3c.34.33.42,2.21.42,2.21l2.66,3"/><path class="cls-2" d="M72.94,42.75s-5.13-3.8-6.68-5.81"/><path class="cls-2" d="M76.54,59.8s-4.87-3-9-5.18a146.63,146.63,0,0,0-21.12-9,33,33,0,0,0-11.28-1.8,118.17,118.17,0,0,0-12.25.36c-2.94.33-7.32,1.59-8.11,5.18s1.15,7.28,2.94,9.37S28.06,69.67,35.89,71.51s22.7-.34,25.94-.67,17.8-3.15,17.8-3.15"/><path class="cls-2" d="M71.93,69.14S54.5,75.05,49.71,77s-9.64,6-10.2,9-.39,6.8,7,9.36A37.24,37.24,0,0,0,62.8,97a16.23,16.23,0,0,0,6.92-3,7.76,7.76,0,0,0,6,.5c3.12-1.11,4.52-4.6,4.52-4.6"/><path class="cls-2" d="M90,44.2a4.15,4.15,0,0,1,2.76.93s1.84,0,2.3.51a7.51,7.51,0,0,1,.87,1.25,3.47,3.47,0,0,1,2.47.46,4,4,0,0,1,1,4.6s2.18,1.46,2.51,3.21.17,2.89.54,3.26a13.14,13.14,0,0,1,1,1.38A4.18,4.18,0,0,0,101,62a15.21,15.21,0,0,0-3.72-.92C95.73,61,91.67,61,90,61"/><path class="cls-2" d="M101,62s-.62,6.81-1,8.27-1.42,3.93-3.22,4.89A16.72,16.72,0,0,1,90,77"/><path class="cls-2" d="M99.13,72.37A25.25,25.25,0,0,1,101,77c.75,2.59.46,8.28-.42,10.91s-4.72,10.87-4.83,12.26-1.45,4.18-2,6.24a30.28,30.28,0,0,0-1.11,4.4c0,.51-.78.67-.78.67a20.47,20.47,0,0,1-.63,2.6,1.59,1.59,0,0,1-1.21,1"/><path class="cls-2" d="M95.93,46.89a2,2,0,0,0-.6,1.4,3.79,3.79,0,0,0,1.11,2.93,3.45,3.45,0,0,0,2.92.73"/><path class="cls-2" d="M95.06,45.64a10.75,10.75,0,0,1,3-3.85,17,17,0,0,1,3.63-1.92"/><path class="cls-2" d="M99.62,49.45s2.17-1.43,2.63-1.81a19.47,19.47,0,0,0,3.26-4,2.27,2.27,0,0,1,1.25-1.3l.54.84s-.54,1.21-.71,1.63a32.28,32.28,0,0,1-2.71,3.3c-.34.33-.42,2.21-.42,2.21l-2.66,3"/><path class="cls-2" d="M107.06,42.75s5.13-3.8,6.68-5.81"/><path class="cls-2" d="M103.46,59.8s4.87-3,9-5.18a146.63,146.63,0,0,1,21.12-9,33,33,0,0,1,11.28-1.8,118.17,118.17,0,0,1,12.25.36c2.94.33,7.32,1.59,8.11,5.18s-1.15,7.28-2.94,9.37-10.31,10.92-18.14,12.76-22.7-.34-25.94-.67-17.8-3.15-17.8-3.15"/><path class="cls-2" d="M108.07,69.14S125.5,75.05,130.29,77s9.64,6,10.2,9,.39,6.8-7,9.36A37.24,37.24,0,0,1,117.2,97a16.23,16.23,0,0,1-6.92-3,7.76,7.76,0,0,1-6,.5c-3.12-1.11-4.52-4.6-4.52-4.6"/></g></svg>