<svg xmlns="http://www.w3.org/2000/svg" viewBox="0 0 180 152"><defs><style>.cls-1,.cls-2,.cls-3{fill:none;}.cls-2,.cls-3{stroke:#fff;stroke-linecap:round;stroke-linejoin:round;}.cls-2{stroke-width:2.27px;}.cls-3{stroke-width:1.36px;}</style></defs><title>1</title><g id="Layer_2" data-name="Layer 2"><rect class="cls-1" width="180" height="152"/><path class="cls-2" d="M29.89,103.48S42.1,93.72,44.73,92s19.9-4.93,21.49-7.78"/><path class="cls-2" d="M54.42,122.28s4.66-4.12,8.71-7.6,10.09-6.68,12.67-9,4.63-7.08,9.51-13.91,11.08-16.5,15.64-21,5-7.53,2.17-11.87A25.9,25.9,0,0,0,88.27,48.05c-6.91-1.77-9.49,1.07-9.49,1.07S70,70.8,69.34,71.75,49,90.29,49,90.29"/><path class="cls-3" d="M69.81,109.11a16.2,16.2,0,0,0-1.27-12.53,19.67,19.67,0,0,0-11.07-8.46"/><path class="cls-3" d="M75.83,105.33a8.45,8.45,0,0,0,1.83-7.41,14.69,14.69,0,0,0-3.78-6.86,21.28,21.28,0,0,0-8.25-5.67"/><path class="cls-3" d="M63.68,86a7,7,0,0,1-5.11-2A2.48,2.48,0,0,1,58,83c-.1-.38.6-1.14.82-1.46"/><path class="cls-3" d="M82.8,95.44c1-2.07-.17-5.33-1.48-7.21a16.52,16.52,0,0,0-5.9-5.18,56,56,0,0,0-6.2-2.41,15,15,0,0,1-5.69-3.34"/><path class="cls-2" d="M34.43,103.7a1.34,1.34,0,0,1,.92.32c.37.41.13,1,.14,1.6a2.27,2.27,0,0,0,1.36,1.86,6.78,6.78,0,0,0,2.36.5l4.78.42a11.49,11.49,0,0,1,1.65,4,6.58,6.58,0,0,0,.39,1.51,4.58,4.58,0,0,0,1,1.33,19.44,19.44,0,0,0,4.9,3.49,2.9,2.9,0,0,1,.92.61,3,3,0,0,1,.4.75l.73,1.81a1.43,1.43,0,0,1,.15.88c-.12.47-.66.68-1.12.81q-3.67,1.09-7.38,2a2.8,2.8,0,0,1-1,.12,2.47,2.47,0,0,1-1.11-.6,15.25,15.25,0,0,1-3.06-3.4l-9.85-.39S29.06,111,29,110c-.13-1.46-.46-4.24.37-5.54S32.87,103.57,34.43,103.7Z"/><path class="cls-3" d="M30.15,110.85l2.73-.16a1.11,1.11,0,0,1,.93.23c.23.26.19.7.44.93a1,1,0,0,0,.67.18l4.53.12A4.92,4.92,0,0,0,42,118.66c.5.19,1.09.34,1.33.82a1.74,1.74,0,0,1,.11.82l-.07,4.33"/><path class="cls-2" d="M115,120.58c-.77-1.13-5.77-.88-7.36-2.36s-5.36-1.1-5.36-1.1a4,4,0,0,1-1.15-2.32c-.17-1.42-1.81-2.46-2.56-2.15s-3.87-4.88-3.87-4.88,4.3-7.42,5.92-13,4-7,6.49-10.19S113.52,72,113.52,72l6-41.74s5.14-9.06,17.48-5c11.08,3.64,10.17,13.42,10.17,13.42l-6.92,40.18s-4.94,9.35-6.77,13.75-4.16,7.87-3.86,9.77-2.63,6.09-5.19,8.38-4.54,10.84-4.54,10.84S117.5,124.26,115,120.58Z"/><path class="cls-2" d="M139.47,79.35a11.91,11.91,0,0,0-5-9.23,19.89,19.89,0,0,0-10.17-3.49,14.59,14.59,0,0,0-6.27.61,7.32,7.32,0,0,0-4.47,4.2"/><path class="cls-2" d="M118.75,122.35c-2,2.2-3.55-.48-5.59,1.73a6.22,6.22,0,0,1-1.33,1.18c-2.15,1.26-3.92-1.12-6.18-.07-1.44.67-3.82-1.2-5.41-1.19s-2.49-1.48-2.7-2.91-1.23-.69-1.24-2.13c0-2.42-2,2.21-2.43-.18-.64-3.59.14-7.27.91-10.83"/><path class="cls-3" d="M126.62,98.21a33.76,33.76,0,0,0-5.55-6.66,13.13,13.13,0,0,1-3-3.4,11.22,11.22,0,0,1-.91-3.72l-.44-3.62a1.31,1.31,0,0,1,0-.71,1.24,1.24,0,0,1,.61-.54l1.22-.68a1.36,1.36,0,0,1,.66-.24,1.43,1.43,0,0,1,.76.29,29.11,29.11,0,0,0,8,3.41"/><path class="cls-3" d="M118.21,109.76a27.6,27.6,0,0,1-3.87-6.29,27.56,27.56,0,0,1-1.14-4.09L111,89.32"/><path class="cls-2" d="M140.87,75.32s1.28-7.65-8.46-11.44-18,1.93-18,1.93"/><path class="cls-3" d="M140.28,37.45a2.65,2.65,0,0,1-.82,1.21"/><path class="cls-3" d="M133.11,30.91a8.84,8.84,0,0,0,.76,1.79"/><path class="cls-3" d="M126.6,32.07l-.5,1.38"/><path class="cls-3" d="M128,39.48a10.39,10.39,0,0,1,.35,2.14"/><path class="cls-3" d="M122.9,43.73a6.92,6.92,0,0,0-.47,1.84"/><path class="cls-3" d="M133.5,44.29,132.91,46"/><path class="cls-3" d="M140,45.87l.46,2.25"/><path class="cls-3" d="M138.17,58.92a10.67,10.67,0,0,0,.18,2.26"/><path class="cls-3" d="M126,51.29l.44,1.68"/><path class="cls-3" d="M136.94,52.43a11.49,11.49,0,0,0-1,1.83"/><path class="cls-3" d="M121.09,57.82l-.55.8"/><path class="cls-3" d="M130.6,57.52a4,4,0,0,0,.24-1.61"/><path class="cls-2" d="M108.22,124.92a2.41,2.41,0,0,0,.17-1.74,2,2,0,0,0-.38-.53,5.59,5.59,0,0,0-1.46-1.14c-.31-.17-.67-.34-.8-.67a1.5,1.5,0,0,1-.09-.56,3.46,3.46,0,0,0-2.56-3"/></g></svg>