<svg xmlns="http://www.w3.org/2000/svg" width="121.942" height="51.298" viewBox="0 0 121.942 51.298">
    <defs>
        <style>
            .prefix__cls-1{fill:none;stroke:#fff;stroke-linecap:round;stroke-linejoin:round;stroke-width:1.75px}
        </style>
    </defs>
    <g id="prefix__cod" transform="translate(.875 .862)">
        <path id="prefix__패스_160" d="M1223.739 224.41a95.176 95.176 0 0018.536-4.97c13.45-5.495 14.6-6.594 14.6-8.53 0-2.3-2.512-3.349-5.233-4.5s-13.4-8.373-24.282-9.839-26.585 1.465-32.238 2.512-28.923 4.4-32.063 4.884a29.821 29.821 0 01-5.791.419c-1.326 0-19.049-8.217-19.049-8.217s-1.535 2.144-1.535 11.39 3.07 13.783 3.07 13.783 8.164-3.279 11.164-5.861 5.652-5.164 9.071-5.3 8.722 2.582 11.583 3.7 20.724 8.094 22.4 9.351 2.721 3.384 7.955 3.488a126.322 126.322 0 0016.832-1.5" class="prefix__cls-1" data-name="패스 160" transform="translate(-1136.684 -182.212)"/>
        <path id="prefix__패스_161" d="M1244.033 190.73s-2.457-3.661-3.922-6.382-4.814-7.17-5.652-7.536-2.146.733-3.14 1.674a14.483 14.483 0 00-3.611 8.112 32.1 32.1 0 00.2 5.769" class="prefix__cls-1" data-name="패스 161" transform="translate(-1162.31 -176.739)"/>
        <path id="prefix__패스_162" d="M1217.36 195.263c-1.137.188-2.941-.43-4.25-2.47s-4.4-5.757-5.233-6.123a6.573 6.573 0 00-4.658.625c-1.78.893-7.693 5.289-9 7.278s.054 2.835.89 4.3" class="prefix__cls-1" data-name="패스 162" transform="translate(-1152.736 -179.48)"/>
        <path id="prefix__패스_163" d="M1187 201.215c-2.453.3-4.128-.8-5.75-2.47s-3.873-3.873-4.919-4.239-2.617.4-3.716 1.168a24.617 24.617 0 00-4.658 5.008c-.733 1.308-.611 2.347.95 3.136" class="prefix__cls-1" data-name="패스 163" transform="translate(-1145.371 -181.717)"/>
        <path id="prefix__패스_164" d="M1170.532 215.8s-.97.93-1.388 1.4-.6 1.7.863 3.218a10.44 10.44 0 004.84 2.931 6.187 6.187 0 004.37-.916c.837-.5 3.74-2.117 4.694-1.741" class="prefix__cls-1" data-name="패스 164" transform="translate(-1145.742 -187.74)"/>
        <path id="prefix__패스_165" d="M1191.7 223.764a4.935 4.935 0 00-2.661 2.925c-.1.864 1.02 2.905 2.329 4.266a85.81 85.81 0 006.516 5.6c.863.6 2.276-.078 4.029-.838s7.654-3.991 7.654-3.991" class="prefix__cls-1" data-name="패스 165" transform="translate(-1151.427 -189.984)"/>
        <path id="prefix__패스_166" d="M1245.094 214.639a53.109 53.109 0 00-10.781-.733c-5.617.244-5.791 1.011-6.14 1.744s-.244 1.674 1.6 3.908 4.327 3.733 6.385 3.733 8.234-2.966 8.234-2.966-1.674-1.465-1.57-2.826a3.776 3.776 0 012.272-2.86z" class="prefix__cls-1" data-name="패스 166" transform="translate(-1162.407 -187.196)"/>
        <path id="prefix__패스_167" d="M1254.388 232.613a14.731 14.731 0 00-3.1 1.384 9.356 9.356 0 00-3.14 4.082c-.575 1.465-1.256 3.036-1.57 3.664s1.151.209 2.407-.785a71.558 71.558 0 006.332-7.117c.365-.63-.144-1.071-.929-1.228z" class="prefix__cls-1" data-name="패스 167" transform="translate(-1167.623 -192.476)"/>
        <circle id="prefix__타원_64" cx="2.353" cy="2.353" r="2.353" class="prefix__cls-1" data-name="타원 64" transform="translate(106.246 25.213)"/>
    </g>
</svg>
