<svg xmlns="http://www.w3.org/2000/svg" viewBox="0 0 180 152"><defs><style>.cls-1,.cls-2{fill:none;}.cls-2{stroke:#fff;stroke-linecap:round;stroke-linejoin:round;stroke-width:1.81px;}</style></defs><title>1</title><g id="Layer_2" data-name="Layer 2"><rect class="cls-1" width="180" height="152"/><path class="cls-2" d="M125.75,99.09c8.54-1.52,17.43-3.67,24.57-6.58,17.84-7.29,19.36-8.75,19.36-11.32,0-3-3.33-4.44-6.93-6S145,64.12,130.55,62.18,95.3,64.12,87.8,65.51,49.45,71.34,45.29,72a39.2,39.2,0,0,1-7.68.55c-1.76,0-25.26-10.89-25.26-10.89s-2,2.84-2,15.1S14.39,95,14.39,95s10.82-4.35,14.8-7.78,7.49-6.84,12-7,11.56,3.43,15.36,4.91,27.48,10.73,29.7,12.39,3.6,4.49,10.54,4.63a167.43,167.43,0,0,0,22.32-2"/><path class="cls-2" d="M118.68,61.69s-3.26-4.85-5.2-8.46-6.39-9.51-7.5-10-2.84,1-4.16,2.22S97.24,51.56,97,56.21a42.22,42.22,0,0,0,.26,7.65"/><path class="cls-2" d="M96,64.07c-1.5.25-3.9-.57-5.63-3.28s-5.83-7.63-6.94-8.12-3.82-.35-6.17.83-10.21,7-11.94,9.65.07,3.76,1.18,5.7"/><path class="cls-2" d="M65.52,69c-3.25.41-5.47-1-7.63-3.27s-5.13-5.13-6.52-5.62-3.47.53-4.92,1.55a32.45,32.45,0,0,0-6.18,6.64c-1,1.73-.81,3.11,1.26,4.16"/><path class="cls-2" d="M43.19,80.34s-1.29,1.24-1.84,1.86-.8,2.26,1.14,4.27a13.82,13.82,0,0,0,6.42,3.88c2.25.59,4.68-.55,5.79-1.21s5-2.81,6.23-2.31"/><path class="cls-2" d="M63.71,87.93c-1.62.62-3.39,2.74-3.53,3.88s1.36,3.85,3.09,5.66,7.5,6.62,8.64,7.42,3-.1,5.35-1.11S87.4,98.49,87.4,98.49"/><path class="cls-2" d="M120,79.53a69.88,69.88,0,0,0-14.29-1c-7.45.32-7.68,1.34-8.14,2.31s-.33,2.22,2.13,5.18,5.73,5,8.46,5S119,87.07,119,87.07s-2.22-1.94-2.08-3.75S118.43,80.41,120,79.53Z"/><path class="cls-2" d="M125.36,96.36a19,19,0,0,0-4.11,1.84,12.29,12.29,0,0,0-4.16,5.41c-.77,1.94-1.67,4-2.09,4.86s1.53.27,3.2-1A94.08,94.08,0,0,0,126.59,98C127.08,97.15,126.4,96.57,125.36,96.36Z"/><circle class="cls-2" cx="154.31" cy="79.69" r="3.12"/></g></svg>