<svg xmlns="http://www.w3.org/2000/svg" viewBox="0 0 180 152"><defs><style>.cls-1,.cls-2{fill:none;}.cls-2{stroke:#fff;stroke-linecap:round;stroke-linejoin:round;stroke-width:2.27px;}</style></defs><title>1</title><g id="Layer_2" data-name="Layer 2"><rect class="cls-1" width="180" height="152"/><path class="cls-2" d="M40.93,111.51c-7.45-5.59-12.06-14.42-13.69-23.59-.87-4.93-.88-10.28,1.56-14.66s7.9-7.35,12.62-5.66c.92-5.32,6.55-8.89,11.95-8.88S63.78,61.55,67.91,65c7,5.9,12.32,14.21,13.24,23.33.9,8.83-3.66,21.73-11.55,26.78C61.42,120.38,48.05,116.86,40.93,111.51Z"/><path class="cls-2" d="M63.12,103.58a6.83,6.83,0,0,1-1.48-1,4.33,4.33,0,0,1-.86-1.68l-2.63-7.56c-1.29-3.74-2.65-7.58-5.26-10.55-1.51-1.72-3.4-3.1-4.79-4.92-2-2.67-3.29-6.5-6.55-7.28,2.89-1.06,6.21-.1,8.7,1.7a28.29,28.29,0,0,1,6.12,6.86C58.58,82.25,60.81,85.4,62,89a17.41,17.41,0,0,0,1.45,3.82,3.72,3.72,0,0,0,3.35,2,26.11,26.11,0,0,0-.19,4.92c.06,2.59.44,5.46,0,8C65.64,107,64.65,103.58,63.12,103.58Z"/><path class="cls-2" d="M89.39,91.44c1.7,3.61,5.09,6.1,8.48,8.21a89.67,89.67,0,0,0,31.53,12c5.34,1,11,1.38,16-.59a7,7,0,0,0,3.1-2.06,13.44,13.44,0,0,0,1.38-2.76c1.16-2.56,3.23-4.83,3.37-7.64.15-3.14-2.18-5.81-4.52-7.92a62.26,62.26,0,0,0-28.22-14.38c-8.14-1.79-22-3.91-28.84,2.28C88.53,81.52,87.63,87.67,89.39,91.44Z"/><path class="cls-2" d="M89.89,81.07c-2.81,5.23-3.37,9.77-2.68,13.53a18.39,18.39,0,0,0,5,9c7.21,7.74,17.62,11.72,28,13.84,5.1,1,10.38,1.7,15.49.7s10.41-4.47,12.85-9.06"/><path class="cls-2" d="M93.47,80.81c2.06.4,3.69,1.91,5.21,3.35l2.08,2a7.46,7.46,0,0,0,2.5,1.8,9.58,9.58,0,0,0,3.34.25,17.41,17.41,0,0,1,7.79,1.76c2.51,1.22,4.72,3.06,7.34,4a41.85,41.85,0,0,0,6.72,1.46,32.07,32.07,0,0,1,10.17,3.88c2.59,1.53,5.29,3.52,8.27,3.12a97.4,97.4,0,0,0-12-6.24,83.79,83.79,0,0,1-8.26-3.4,46.33,46.33,0,0,1-4.91-3.19l-4.49-3.21A9.85,9.85,0,0,0,114.75,85a11.73,11.73,0,0,0-2.43-.47,25.63,25.63,0,0,1-8.18-2.64,21.25,21.25,0,0,0-2.71-1.33c-2-.74-5.81.15-8,.28"/><path class="cls-2" d="M116.81,75.6a40.2,40.2,0,0,0,3.23-8c1-3.1,1.09-5.13-.3-8.08-.92-1.95-1.87-4.75-3.61-6l-8.72-6.37c-7.45-5.44-15.18-11-24.18-13-8.15-1.84-17.11,0-23,6.1-5.09,5.32-4.89,12.92-2,19.3"/><path class="cls-2" d="M77.42,76.56c1.15.58,2.3,1.15,3.46,1.7a85.67,85.67,0,0,0,8.54,3.66"/><path class="cls-2" d="M67.66,53.94a32.45,32.45,0,0,1,3.28.73,1.67,1.67,0,0,1-.74,1.23l3.16.7a.44.44,0,0,1,0,.59"/></g></svg>