<svg xmlns="http://www.w3.org/2000/svg" viewBox="0 0 180 152"><defs><style>.cls-1,.cls-2{fill:none;}.cls-2{stroke:#fff;stroke-linecap:round;stroke-linejoin:round;stroke-width:2.27px;}</style></defs><title>1</title><g id="Layer_2" data-name="Layer 2"><rect class="cls-1" width="180" height="152"/><path class="cls-2" d="M100.84,127c.88-2.4,2.24-5.52,3.33-8,1.19-2.73,2.32-5.32,3-7.25a47,47,0,0,0,1.76-9,154.08,154.08,0,0,0,20.72-5.45A29.14,29.14,0,0,0,142,102.61l1,.13a3.94,3.94,0,1,0,.88-7.83,18.28,18.28,0,0,1-5.15-1.41,30.48,30.48,0,0,0,5.23-3.4,3.94,3.94,0,1,0-5-6c-5.88,4.89-20.09,8.66-29,10.52.13-1,.26-1.9.38-2.41.19-.67,2.05-3.48,8.42-8.38a43.68,43.68,0,0,1,11.53-6.68c2.18-.77,14.78-2.92,18.72-12.3a3.94,3.94,0,1,0-7.26-3c-1.34,3.18-5.57,4.43-8.83,5.38,1.83-5,2.83-7.76,3.38-9.38,3.12-1.37,9-4.28,11.22-7.85a3.94,3.94,0,1,0-6.64-4.24c-.56.89-2.38,2.13-4.53,3.3-.18-1.08-.41-2.33-.69-3.83a3.94,3.94,0,0,0-7.74,1.47c.54,2.88,1.13,6.42,1.24,7.68-.68,2.13-3.9,10.87-6.39,17.54-1.31.68-2.64,1.46-4,2.32a50.92,50.92,0,0,1,1.4-10c1.28-3.76,1.83-9.31,2.35-14.68.26-2.67.51-5.19.82-7.1.38-2.4,1.39-3.77,6.56-7.18a3.94,3.94,0,1,0-4.32-6.58,48.52,48.52,0,0,0-4.52,3.3,45,45,0,0,1-1.81-4.22,3.94,3.94,0,0,0-7.51,2.41,89.46,89.46,0,0,0,4.21,9.28,12.88,12.88,0,0,0-.39,1.73c-.35,2.16-.61,4.8-.88,7.59-.46,4.7-1,10-2,12.91-1.55,4.58-2,14.46-2.14,18.66-6.86,5.87-7.61,8.9-7.88,10a62.24,62.24,0,0,0-1,7.12c-.09.88-.19,1.81-.3,2.75-1.88-5.69-3.93-12-5.16-15.92C94.7,79.58,93.64,77,96,73.6A28.46,28.46,0,0,0,98.73,69c1.73-3.88,2-8.48,1.94-13.38,1.79-2.29,5.2-6.31,7.77-8a3.94,3.94,0,0,0-4.26-6.63,26.13,26.13,0,0,0-3.8,3.1,25,25,0,0,0-.74-3.85l5-8.46a3.94,3.94,0,1,0-6.79-4l-2.59,4.39a36.92,36.92,0,0,0-4.07-4,3.94,3.94,0,0,0-5.1,6c5.1,4.33,6.65,7.59,6.63,14,0,1.47,0,2.93.05,4.36A68.7,68.7,0,0,1,92.5,62c-1.92-3.28-4.07-6.92-5.43-9.11A24.14,24.14,0,0,0,85.88,41.7a3.94,3.94,0,0,0-7.35,2.85,12.48,12.48,0,0,1,.69,2.82,29.34,29.34,0,0,1-3.6-2.29,3.94,3.94,0,0,0-4.91,6.17,61.2,61.2,0,0,0,9.53,5.54c1.77,2.84,5.58,9.33,8.21,13.87-2.47,3.74-2.09,8.65.18,15.9,2.31,7.42,7.45,22.88,9,27.64l-.73,1.67A93.74,93.74,0,0,0,92.56,127Z"/><path class="cls-2" d="M77.48,127l8.17-.08c-1.15-1.89-3.25-5.22-4.31-6.83-3.52-5.39-6.31-9.65-8.8-18.16-.26-.86-.5-1.83-.73-2.87v0c-.82-3.63-1.55-8.26-2.18-13C72,83.18,77.48,76.24,79.32,72a3.5,3.5,0,0,0-6.44-2.76,42.88,42.88,0,0,1-4.41,6.93c-.84-8.08-1.31-14.65-1.32-14.79a3.5,3.5,0,1,0-7,.49c.06.92,1.23,17.22,3.26,30.41a11.86,11.86,0,0,1-1.24-1.65A43,43,0,0,1,59.58,85c-1.9-4.52-4.26-10.15-9.29-15.8a3.5,3.5,0,1,0-5.23,4.65,37.4,37.4,0,0,1,3.65,4.9,18.4,18.4,0,0,1-5.18-2.74,3.5,3.5,0,1,0-4.34,5.5c4.47,3.53,10.51,5,13.66,5.56l.27.64a48.68,48.68,0,0,0,3.09,6.48,23.45,23.45,0,0,0,9.16,8.08c.15.57.29,1.12.44,1.63.46,1.55.93,3,1.41,4.32a30.24,30.24,0,0,1-11.21-5c-6.74-5.2-9.25-8.31-9.26-8.33a3.5,3.5,0,0,0-3-1.33c-1.33.1-5.36.11-8-1.09a3.5,3.5,0,1,0-2.93,6.36,25,25,0,0,0,9.64,1.78,81.81,81.81,0,0,0,9.28,8.16h0a6.14,6.14,0,0,1-2.1-.3,44.63,44.63,0,0,1-9-5.26,3.51,3.51,0,0,0-4.25,5.58A51.7,51.7,0,0,0,47.16,115a13.25,13.25,0,0,0,4.7.77A32.54,32.54,0,0,0,61.69,114a47.84,47.84,0,0,0,9,2c1.54,2.91,3.17,5.41,4.84,8C76.13,125,76.8,126,77.48,127Z"/></g></svg>