<svg xmlns="http://www.w3.org/2000/svg" width="96.047" height="82.901" viewBox="0 0 96.047 82.901">
    <defs>
        <style>
            .prefix__cls-1{fill:none;stroke:#fff;stroke-linecap:round;stroke-linejoin:round;stroke-width:1.75px}
        </style>
    </defs>
    <g id="prefix__coral" transform="translate(-427.889 -805.518)">
        <path id="prefix__패스_830" d="M486.97 887.543c.7-1.909 1.778-4.391 2.645-6.382.948-2.175 1.843-4.23 2.385-5.767a37.155 37.155 0 001.4-7.13 121.637 121.637 0 0016.469-4.329 23.2 23.2 0 009.8 4.188c.25.038.5.072.759.1a3.132 3.132 0 10.7-6.224 14.152 14.152 0 01-4.09-1.121 24.237 24.237 0 004.156-2.7 3.133 3.133 0 00-4.007-4.816c-4.673 3.89-15.969 6.885-23.042 8.364.1-.822.206-1.509.305-1.912.145-.534 1.629-2.77 6.691-6.662a34.427 34.427 0 019.16-5.306c1.739-.617 11.749-2.327 14.883-9.779a3.133 3.133 0 00-5.775-2.429c-1.064 2.531-4.426 3.526-7.014 4.277 1.453-3.941 2.247-6.168 2.685-7.454 2.481-1.087 7.113-3.4 8.921-6.235a3.132 3.132 0 10-5.281-3.37 11.475 11.475 0 01-3.6 2.617c-.146-.856-.324-1.853-.549-3.039a3.132 3.132 0 10-6.154 1.167c.433 2.289.9 5.1.99 6.1-.546 1.693-3.1 8.635-5.084 13.942a40.302 40.302 0 00-3.168 1.843 40.113 40.113 0 011.115-7.943c1.016-2.986 1.447-7.4 1.864-11.669.208-2.12.4-4.123.649-5.645.307-1.9 1.105-3 5.22-5.7a3.132 3.132 0 00-3.44-5.235 37.335 37.335 0 00-3.587 2.627 35.079 35.079 0 01-1.443-3.351 3.132 3.132 0 10-5.964 1.913 71.216 71.216 0 003.339 7.374 12.413 12.413 0 00-.31 1.376c-.277 1.716-.482 3.813-.7 6.034-.365 3.731-.778 7.96-1.561 10.26-1.236 3.635-1.6 11.489-1.7 14.826-5.451 4.673-6.052 7.08-6.267 7.943a50.143 50.143 0 00-.783 5.66c-.075.7-.156 1.441-.24 2.188-1.492-4.527-3.12-9.513-4.1-12.652-1.151-3.682-1.991-5.744-.132-8.436a22.846 22.846 0 002.18-3.621c1.378-3.089 1.569-6.74 1.55-10.636 1.422-1.82 4.132-5.015 6.174-6.328a3.133 3.133 0 10-3.389-5.269 20.939 20.939 0 00-3.02 2.462 19.336 19.336 0 00-.587-3.061l3.966-6.721a3.132 3.132 0 10-5.395-3.183l-2.061 3.492a28.263 28.263 0 00-3.234-3.183 3.132 3.132 0 10-4.054 4.776c4.051 3.44 5.283 6.03 5.272 11.088 0 1.167.017 2.326.035 3.464a54.155 54.155 0 01-.2 7.472c-1.526-2.606-3.24-5.5-4.322-7.241a19.086 19.086 0 00-.946-8.864 3.132 3.132 0 00-5.842 2.263 9.758 9.758 0 01.555 2.246 23.37 23.37 0 01-2.866-1.823 3.132 3.132 0 00-3.9 4.9 48.773 48.773 0 007.573 4.408c1.412 2.253 4.434 7.412 6.529 11.022-1.961 2.974-1.665 6.873.138 12.642 1.841 5.892 5.926 18.182 7.186 21.964q-.281.65-.576 1.325a74.131 74.131 0 00-3.483 8.883z" class="prefix__cls-1" data-name="패스 830" transform="translate(-2.375)"/>
        <path id="prefix__패스_831" d="M466.025 889.589l6.5-.068c-.914-1.5-2.583-4.144-3.426-5.43-2.8-4.282-5.015-7.665-7-14.431-.2-.681-.392-1.453-.581-2.284l-.007-.028c-.65-2.885-1.231-6.563-1.728-10.357 1.858-2.262 6.246-7.784 7.706-11.195a2.784 2.784 0 10-5.118-2.191 33.613 33.613 0 01-3.5 5.505c-.665-6.418-1.039-11.641-1.047-11.751a2.784 2.784 0 00-5.554.392c.051.727.978 13.686 2.593 24.164a9.027 9.027 0 01-.985-1.307 34.336 34.336 0 01-2.074-4.4 41.831 41.831 0 00-7.38-12.561 2.784 2.784 0 10-4.161 3.7 28.732 28.732 0 012.9 3.894 14.835 14.835 0 01-4.115-2.18 2.784 2.784 0 00-3.451 4.37c3.556 2.808 8.353 3.976 10.859 4.42.071.171.146.344.216.513a38.742 38.742 0 002.453 5.144 18.609 18.609 0 007.285 6.422c.115.453.231.892.35 1.3a59.663 59.663 0 001.12 3.431 23.941 23.941 0 01-8.909-3.988 47.588 47.588 0 01-7.366-6.616 2.77 2.77 0 00-2.413-1.061 15.272 15.272 0 01-6.326-.869 2.784 2.784 0 10-2.33 5.057 19.732 19.732 0 007.664 1.416 63.452 63.452 0 007.37 6.483l.019.014a4.835 4.835 0 01-1.669-.241 35.862 35.862 0 01-7.157-4.179 2.784 2.784 0 00-3.372 4.431 41.056 41.056 0 008.537 4.948 10.5 10.5 0 003.738.607 25.707 25.707 0 007.815-1.478 37.14 37.14 0 007.109 1.631c1.229 2.319 2.522 4.3 3.851 6.33a188.64 188.64 0 011.584 2.443z" class="prefix__cls-1" data-name="패스 831" transform="translate(0 -2.046)"/>
    </g>
</svg>
