<svg xmlns="http://www.w3.org/2000/svg" viewBox="0 0 180 152"><defs><style>.cls-1,.cls-2,.cls-3{fill:none;}.cls-2,.cls-3{stroke:#fff;stroke-linecap:round;stroke-linejoin:round;}.cls-2{stroke-width:2.27px;}.cls-3{stroke-width:1.36px;}</style></defs><title>1</title><g id="Layer_2" data-name="Layer 2"><rect class="cls-1" width="180" height="152"/><path class="cls-2" d="M38.21,71.12c7.86-7.83,17.74-13.35,28-17.56C87.26,44.91,110,41.49,132.54,38.14L70,64.65C61,68.44,52,72.25,43.92,77.58A59.21,59.21,0,0,0,24.05,99.1C23.71,89.05,31.39,77.92,38.21,71.12Z"/><path class="cls-2" d="M23.32,99A19.39,19.39,0,0,0,21,93.85c-.88-1.68-1.58-3.62-1.06-5.44a8,8,0,0,1,1.13-2.2A42.4,42.4,0,0,1,38.49,71.28l-.71.48"/><path class="cls-2" d="M45.53,89.85c7.44-.61,14.91.34,22.38.35A177.5,177.5,0,0,0,85.75,89a153,153,0,0,0,16.94-2.34,76.25,76.25,0,0,0,26.94-11.62,262.14,262.14,0,0,1-81,37.32c-3.4.91-6.89,1.75-10.39,1.4-5.8-.58-15.15-7.38-13.89-14.29.47-2.61,5.35-4.91,8-6.22A36.11,36.11,0,0,1,45.53,89.85Z"/><path class="cls-2" d="M101.42,51.32c8.82-3.61,23-6.53,32.49-6.59,2.9,0,6.25.39,7.81,2.82,1.19,1.87-.26,6.33-1.37,8.25s-5.63,5.74-7.37,7.12C118.3,74.59,102.65,81.33,85.75,89"/><path class="cls-2" d="M20.62,94.2q-3.12,2.33-6.06,4.88a5.86,5.86,0,0,0-1.7,2,5.26,5.26,0,0,0-.15,2.92,10.18,10.18,0,0,0,1.89,4.73,2.81,2.81,0,0,0,1.31,1,3.48,3.48,0,0,0,1.54,0,45.49,45.49,0,0,0,9.37-2.57"/><path class="cls-2" d="M79,102.25c14.47-2.63,45.74-18.56,53.07-24.82,3-2.58,7.6-7.55,10.28-10.48,7.23-7.89,16.26-13.85,25.06-19.93C159,48.85,150,48.27,142,51.47"/><path class="cls-3" d="M69.86,90.35a477.71,477.71,0,0,0,72.31-38.18"/><path class="cls-3" d="M59.36,89.42a41.28,41.28,0,0,0,7.63-3c25.21-11.93,50.68-24.57,75.18-37.9"/><path class="cls-3" d="M47.07,89.38c30.12-16.69,60.54-33.5,93.55-43.26"/><path class="cls-3" d="M28.26,94.78c5.09-5,11.28-8.73,17.48-12.25a451.46,451.46,0,0,1,85-37.8"/><path class="cls-3" d="M131.54,44.83a8.17,8.17,0,0,1,3.84,4.49,18,18,0,0,1,1.19,9.91"/><path class="cls-3" d="M124.92,45.78c1.16-.05,2,1,2.65,2a23.52,23.52,0,0,1,3.5,8.19,13.28,13.28,0,0,1-1.13,8.71"/><path class="cls-3" d="M117.22,46.92c1.69-.08,3,1.41,3.92,2.85a24.24,24.24,0,0,1,2.29,20.43l-.54-.56"/><path class="cls-3" d="M110,48.36A4.64,4.64,0,0,1,113.36,50a10.55,10.55,0,0,1,1.87,3.36,30,30,0,0,1,.07,20.92c-.06.16-.17.34-.33.32s0-.36.06-.22"/><path class="cls-3" d="M108.44,56.22a27.53,27.53,0,0,1,1.77,20.91"/><path class="cls-3" d="M102.73,63.51a36.75,36.75,0,0,1,.77,17"/><path class="cls-3" d="M91.38,56a15.93,15.93,0,0,1,3.52,5.39,32.62,32.62,0,0,1,2.51,16.15"/><path class="cls-3" d="M86,58.47a35.81,35.81,0,0,1,5.19,19.1"/><path class="cls-3" d="M82.13,69.14c1.63,2.35,2.16,5.28,2.53,8.11a99.51,99.51,0,0,1,.82,11.44"/><path class="cls-3" d="M74,73a27.91,27.91,0,0,1,3.9,16.86"/><path class="cls-3" d="M60.32,68.88A13.05,13.05,0,0,1,66,74.28a31.28,31.28,0,0,1,2.89,7.38q.84,2.94,1.51,5.93a3.71,3.71,0,0,1-.08,2.67"/><path class="cls-3" d="M54.47,71.83c5.17,4.17,7.41,11,8.62,17.51,0,.22.17.48.39.44s-.08-.44-.11-.22"/></g></svg>