<svg xmlns="http://www.w3.org/2000/svg" viewBox="0 0 180 152"><defs><style>.cls-1,.cls-2,.cls-3{fill:none;}.cls-2,.cls-3{stroke:#fff;stroke-linecap:round;stroke-linejoin:round;}.cls-2{stroke-width:2.27px;}.cls-3{stroke-width:1.36px;}</style></defs><title>1</title><g id="Layer_2" data-name="Layer 2"><rect class="cls-1" width="180" height="152"/><path class="cls-2" d="M25.55,63.25c.39-.77,1.53-.57,2.37-.33s2.06.2,2.2-.66l1,.79a1.8,1.8,0,0,1,2.35-.41,4.21,4.21,0,0,0,.94.66,2,2,0,0,0,1.14-.09c3.71-.93,7.65.19,11.45-.26,2.68-.31,5.23-1.38,7.91-1.66,4.65-.49,9.16,1.43,13.77,2.2,1.71.28,3.43.4,5.15.52l7.13.51,2.89.21,7.08.51a10.16,10.16,0,0,0,1.91,0c1-.12,2-.52,2.88-.17.68.27,1.17.91,1.87,1.11,1.17.33,2.24-.68,3.39-1.07,2.5-.83,4.87,1.33,7.2,2.56s6.75,1,9.4.19c1.07-.34,2.22-1.1,3.38-1.4a22.75,22.75,0,0,1,3.51-.25c3.82-.36,7.63-.93,11.44-1.39a17.46,17.46,0,0,1,5.1-.11c1.44.26,2.79.88,4.2,1.28a27.07,27.07,0,0,0,7.36.64,38.26,38.26,0,0,0,8-.59c3.36-.73,7.2-2.28,9.94-.21a2.72,2.72,0,0,1,1,1.19c.51,1.4-.74,2.83-2.05,3.54-3,1.62-6.62,1.43-9.82,2.57A35,35,0,0,1,154.72,75c-2.71.53-5.49-.53-8.25-.34-4.65.33-8.91,4.14-13.46,3.14"/><path class="cls-2" d="M134.2,78.45a3.82,3.82,0,0,0,.56,2.89,6.49,6.49,0,0,0,3.41,2.26,22.34,22.34,0,0,0,9.28,1.2c1.48-.12,2.3,1.63,3.42,2.6a7.67,7.67,0,0,0,3.93,1.39l12,1.87c.74.11,1.76,0,1.88-.7.08-.51-.36-.93-.78-1.21-3-2-6.86-2.25-10.15-3.76a14,14,0,0,1-4.57-3.35,5.64,5.64,0,0,0-1.42-1.3,6,6,0,0,0-2.34-.4,10.47,10.47,0,0,1-7.26-3.82c-.1-.11-.11-.33,0-.38s.22.25.07.22"/><path class="cls-2" d="M168.36,90.06c-.69,1.88-3,2.68-5,2.64s-4-.63-6-.49a36.33,36.33,0,0,0-4,.78c-5.27,1-10.6-1.13-15.36-3.6a9.74,9.74,0,0,0-3.6-1.32c-1.94-.14-3.73,1-5.45,1.85a33.53,33.53,0,0,1-14.06,3.81c-2.16.1-4.42,0-6.34,1"/><path class="cls-2" d="M103.63,94.24a10,10,0,0,1,10.14,4.88c1.59-.52,3.28.2,4.78.9a6.67,6.67,0,0,1,2.06,1.3c.56.6,1.56,2.64.93,3.51-1.19-.48-3.06-2.12-4.22-2.68a6.27,6.27,0,0,1,2.54,2.11,3.25,3.25,0,0,1,.37,1.29c0,.34-1,.8-1.32.74a4.28,4.28,0,0,1-.94-.51,44,44,0,0,0-4.52-3.11c2.74,2,2.69,5.31.85,4.66-1.81-1.4-2.63-3.5-3.61-4.45"/><path class="cls-2" d="M112,105.4c0,.78-1.11,1.11-1.79.73a4.09,4.09,0,0,1-1.39-1.82,2.63,2.63,0,0,0-1.63-1.55,2.76,2.76,0,0,0-.86,0l-5.08.61a25.67,25.67,0,0,1-5.87.24,8.51,8.51,0,0,1-5.25-2.38,5.17,5.17,0,0,1-1.18-5.43c.52-1.21,1.61-2.19,1.76-3.5,0-.51,0-1,0-1.52A3.57,3.57,0,0,1,92,89a12.65,12.65,0,0,1,4.61-2.74"/><path class="cls-2" d="M32.93,62.32c1.7-2.65,4.71-4.15,7.67-5.24C49.25,53.92,58.71,53.15,67,49.2c.45-.21,1-.7.67-1.1l-5.78-.62a15.36,15.36,0,0,0-2.87-.12,1.52,1.52,0,0,0-2.34-.12,1.94,1.94,0,0,0-3.62-.58,2.35,2.35,0,0,0-3.88-.47,2.26,2.26,0,0,0-4.13,0,1.9,1.9,0,0,0-3.76,0,1.56,1.56,0,0,0-2.27-.65,3.39,3.39,0,0,0-1.3,2.32,2,2,0,0,0-2.11-1.41,2,2,0,0,0-1.74,1.85c-.37-.89-.87-1.9-1.81-2.1a2.05,2.05,0,0,0-2,1,5.9,5.9,0,0,0-.71,2.23c-.23-1-.86-2.21-1.83-1.95a1.74,1.74,0,0,0-.78.57,10.43,10.43,0,0,0-1.63,2.41,3.47,3.47,0,0,0-4.69,1.6,1.62,1.62,0,0,0-2.39-.18,4.73,4.73,0,0,0-1.23,2.39,3.88,3.88,0,0,0-3.47,1.48,11.37,11.37,0,0,0-1.79,3.5c-.33-.61-1.22.07-1.49.71-2.57,6.1-2.25,13.55,1.55,19s11.24,8.29,17.47,6"/><path class="cls-2" d="M34.59,73.48l-.92.67a10.87,10.87,0,0,1,8.83,1.09,7.93,7.93,0,0,1,3.57,7.88,11.37,11.37,0,0,1-2.4,4.6,68.21,68.21,0,0,1-7.41,7.7"/><path class="cls-2" d="M29.61,80.79a2.59,2.59,0,0,1,.51,2.69c-1,3.17-5.12,4.23-6.8,7.09a7.29,7.29,0,0,0,0,6.53,21.61,21.61,0,0,0,4,5.44,9.07,9.07,0,0,0,3.36,2.68A3.49,3.49,0,0,0,31,102a11.65,11.65,0,0,1-.83-3.23"/><path class="cls-2" d="M36.44,95.15a18,18,0,0,1,3.75,4.59,3.17,3.17,0,0,1,.56,1.81,1.23,1.23,0,0,1-1.26,1.17,2.82,2.82,0,0,1,.3,1.47.94.94,0,0,1-1.08.81,1.49,1.49,0,0,1-.48-.32l-1.65-1.46a3.7,3.7,0,0,1-.16,2.14,1.29,1.29,0,0,1-1.8.62,2.1,2.1,0,0,1-.49-.65,8.37,8.37,0,0,0-2.71-2.81"/><path class="cls-2" d="M42.23,90.57c1.45,2.22,4.19,3.17,6.76,3.8A122.24,122.24,0,0,0,67.57,97c7.11.64,14.26,1.28,21.36.59"/><path class="cls-3" d="M142.12,71c.17-1.08-3.14-1.79-4-1.17s-1.28,1.69.09,2.17S141.93,72.19,142.12,71Z"/><path class="cls-3" d="M165.4,67.74a.56.56,0,0,1,.6.43.58.58,0,0,1-.38.64"/></g></svg>