<svg xmlns="http://www.w3.org/2000/svg" viewBox="0 0 180 152"><defs><style>.cls-1,.cls-2,.cls-3{fill:none;}.cls-2,.cls-3{stroke:#fff;stroke-linecap:round;stroke-linejoin:round;}.cls-2{stroke-width:2.27px;}.cls-3{stroke-width:1.36px;}</style></defs><title>1</title><g id="Layer_2" data-name="Layer 2"><rect class="cls-1" width="180" height="152"/><path class="cls-2" d="M106.2,79.84c5.64-6.49,15.11-11.7,21.25-17.71.15-.15.32-.33.3-.54a.72.72,0,0,0-.34-.48c-2-1.51-4.54-2-7-2.25a55.73,55.73,0,0,0-12.45.07,6.58,6.58,0,0,0-3,.88,4.74,4.74,0,0,0-1.8,3.94,14.77,14.77,0,0,0,.92,4.38c.85,2.68,1.65,5.38,2.38,8.09.34,1.22.6,2.69-.26,3.62a3.75,3.75,0,0,1-1.75.89c-4,1.22-8.14,2.51-11.33,5.23a19.12,19.12,0,0,0-5.43,8.39,21.62,21.62,0,0,0-.14,14.16,18.55,18.55,0,0,0,9.61,10.15c1.85.9,6,.44,10.81-1.37s11.56-1.7,18.7-3.52,10.78-7.82,13.5-8.5,10.77-2.45,10.77-2.45"/><path class="cls-2" d="M47.4,87.54a45.46,45.46,0,0,0,9,4.57,16.28,16.28,0,0,1,1.81.66,11.22,11.22,0,0,1,1.94,1.28c5.08,3.86,10.25,7.62,15.41,11.37l2.71,2c1.44,1,2.87,2.1,4.36,3.07,1.77,1.15,3.6,2.2,5.43,3.25,1.43.82,6.59,3.66,8,4.48"/><path class="cls-3" d="M74.23,104.6a21.33,21.33,0,0,1,3.3-27.87"/><path class="cls-3" d="M73.56,93.48A20.54,20.54,0,0,1,77.13,81.6"/><path class="cls-2" d="M84.52,111.65a21,21,0,0,1-4.3-10.78,38.36,38.36,0,0,1,6.17-22.65,52.88,52.88,0,0,1,17.3-16.89"/><path class="cls-2" d="M46.3,88.09c1.83-.88,3.77-1.85,4.83-3.58a9.77,9.77,0,0,0,1-2.44A155.31,155.31,0,0,0,57.17,60c.07-.47.1-1-.28-1.32a1.27,1.27,0,0,0-.64-.2,26.65,26.65,0,0,0-8.12.28,35,35,0,0,1-5.89,1c-3.11,0-6.06-1.28-8.89-2.58a18.19,18.19,0,0,1-5.92-3.69c1.14,6.91-1.8,14.28.61,20.86a16.89,16.89,0,0,0,6.72,8.06c3,2,8.1,4.84,11.54,5.74"/><path class="cls-2" d="M53.67,76.65c4.45-7,12.66-13.28,19.88-17.45,9.9-5.72,21.12-10.08,32.51-9.09a16,16,0,0,1,2.92.49,20.19,20.19,0,0,1,2.78,1.12c3.82,1.8,7.78,3.84,10.13,7.35"/><path class="cls-2" d="M110.65,75.51a32.67,32.67,0,0,1,8.55.63,10.17,10.17,0,0,0,3.85.77,17.45,17.45,0,0,0,3.24-1c3.63-1.12,7.48.78,10.58,3a33.44,33.44,0,0,1,8.23,8,20.14,20.14,0,0,1,3.81,10.68,8.57,8.57,0,0,0,.19,1.9c.36,1.26,1.45,2.2,1.84,3.45l-1-24.45a13.73,13.73,0,0,0-.48-3.62,10.76,10.76,0,0,0-3.72-4.81c-5.92-4.77-13.08-7.56-20.47-5.82"/><path class="cls-2" d="M44.28,59.5s14.09-4.78,28.38-4"/><path class="cls-2" d="M70.23,61.21s1.84-8,6.84-9.46c0,0-2.13-3.44,4.85-9.07,5.42-4.38,8.92-3.48,8.92-3.48"/><path class="cls-2" d="M106.06,50.11s-1.61-6.07-2.37-8-9.92-7.41-11.76-8.62-6.23-.3-10.31,1.21-18.19,10.86-22.85,21"/><path class="cls-3" d="M115.82,83.46a32.07,32.07,0,0,1,10,23.1c0,2.77-.48,5.79-2.49,7.7"/><path class="cls-3" d="M131.1,111.38a7.27,7.27,0,0,0,1.77-4.23c.8-5.11.11-10.65-3-14.81"/><path class="cls-3" d="M115.84,96.13c1.31.73,1.93,2.26,2.35,3.71a33.25,33.25,0,0,1,1.24,6.8,7.35,7.35,0,0,1-.34,3.43"/></g></svg>