<svg xmlns="http://www.w3.org/2000/svg" viewBox="0 0 180 152"><defs><style>.cls-1,.cls-2,.cls-3{fill:none;}.cls-2,.cls-3{stroke:#fff;stroke-linecap:round;stroke-linejoin:round;}.cls-2{stroke-width:2.27px;}.cls-3{stroke-width:1.36px;}</style></defs><title>1</title><g id="Layer_2" data-name="Layer 2"><rect class="cls-1" width="180" height="152"/><path class="cls-2" d="M24.13,104.21,15.19,71,20,69.69s0-4.45,3.85-5.47L37.4,60.57,31.26,37.75,57.88,30.6c6.62-1.78,8.08-1.29,10.73,8.55l19.76,73.5-35.56,9.56-5.64-21L35.68,104.3s-2-2.67-3.45-2.27l-8.1,2.18"/><line class="cls-2" x1="28.43" y1="103.06" x2="19.49" y2="69.82"/><path class="cls-3" d="M27.74,74.78l3.63,13.5A3,3,0,0,0,35,90.38l6.06-1.63,2.18,8.1,13.8-3.71a3.68,3.68,0,0,0,2.6-4.52L53.19,64.57"/><path class="cls-3" d="M36.44,80h4.79a0,0,0,0,1,0,0v2.81a2,2,0,0,1-2,2h-.82a2,2,0,0,1-2-2V80a0,0,0,0,1,0,0Z" transform="translate(-30.68 141.35) rotate(-105.05)"/><line class="cls-3" x1="36.42" y1="69.97" x2="43.86" y2="67.97"/><line class="cls-3" x1="27.09" y1="68.89" x2="47.55" y2="63.38"/><path class="cls-3" d="M40.24,44.6,43.57,57l12.55-3.38A4.48,4.48,0,0,1,61.6,56.8l3.77,14"/><path class="cls-3" d="M53.18,100.17l14.64-3.94,1.3,4.83a3.73,3.73,0,0,0,4.57,2.64l5.57-1.5"/><rect class="cls-3" x="55.19" y="111.81" width="4.88" height="3.04" transform="translate(-36.85 198.41) rotate(-105.05)"/><rect class="cls-3" x="54.66" y="105.3" width="2.44" height="3.04" transform="translate(-32.77 188.52) rotate(-105.05)"/><rect class="cls-3" x="51.42" y="37.12" width="4.88" height="3.04" transform="translate(-8.18 15.31) rotate(-15.05)"/><rect class="cls-3" x="59.15" y="35.37" width="2.44" height="3.04" transform="translate(-7.51 16.94) rotate(-15.05)"/><path class="cls-3" d="M91.65,63.76c2.34-6,8-18.92,12.55-19.26S117.48,46,130.61,51s20.84,9.62,23.94,12.91-1.31,16.64-3.65,22.69-8,18.92-12.54,19.26-13.29-1.46-26.41-6.52S91.11,89.74,88,86.45,89.32,69.81,91.65,63.76Z"/><path class="cls-3" d="M113.13,96.31C97,90.08,91.31,85.66,89.63,84c-.39-2,.77-9.16,4.67-19.26s7.83-16.16,9.48-17.4c2.33-.06,9.51.47,25.65,6.7s21.81,10.66,23.5,12.27c.38,2-.78,9.16-4.68,19.26s-7.83,16.16-9.48,17.4C136.44,103.07,129.27,102.54,113.13,96.31Z"/><path class="cls-2" d="M78.89,77.42A131.14,131.14,0,0,1,84.1,60.85c3.08-8,10.54-24.93,16.24-25.47s16.76,1.64,33.22,8,26.12,12.17,30,16.4-2,21.81-5.09,29.78S147.91,114.47,142.21,115s-16.75-1.64-33.22-8c-12-4.63-20.38-9-25.53-12.63"/><circle class="cls-3" cx="135.38" cy="110.24" r="1.74"/><line class="cls-3" x1="129.89" y1="109.44" x2="128.5" y2="109.06"/><line class="cls-3" x1="125.82" y1="108.34" x2="123.87" y2="107.81"/><line class="cls-3" x1="121.49" y1="107.17" x2="120.41" y2="106.88"/></g></svg>