<svg xmlns="http://www.w3.org/2000/svg" viewBox="0 0 180 152"><defs><style>.cls-1,.cls-2,.cls-3{fill:none;}.cls-2,.cls-3{stroke:#fff;stroke-linecap:round;stroke-linejoin:round;}.cls-2{stroke-width:2.27px;}.cls-3{stroke-width:1.36px;}</style></defs><title>1</title><g id="Layer_2" data-name="Layer 2"><rect class="cls-1" width="180" height="152"/><path class="cls-2" d="M26.69,30.86s7.47-1.44,21.84-1.08S93.2,31.86,104,31.86s46.48-3.59,46.48-3.59a4,4,0,0,1,2.78,2.36c.72,1.95-.7,4.68-.7,4.68a286.22,286.22,0,0,1-46.21,3.82c-26,0-52.2-3.49-78-.39,1.3-2,.87-6.73-1.58-7.88S24.47,33.18,24.83,35c.5,2.55,1.51,4.77,3.44,3.75"/><path class="cls-2" d="M32.07,38.33c4.41,2.9,7.22,8.71,8.39,13.86C43.55,65.85,44,80.31,50,93a50.93,50.93,0,0,0,17.12,20.09c11.6,8,26.1,10.74,40.18,10.66a7.84,7.84,0,0,0,3.2-.47,7,7,0,0,0,2.39-2c2.17-2.52,3.77-5.5,5.86-8.1s7.9-6.35,11.21-6.72"/><path class="cls-2" d="M145.47,36.38c-1.41,2.9-2.91,5.76-3.49,8.93C140.41,54,140.6,63.37,145.05,71c2.79,4.76,7.13,8.61,9.14,13.75a18.26,18.26,0,0,1,.94,9.6,8.7,8.7,0,0,1-2.46,5.18c-3.29,2.92-8.51,1.11-12.78,2.2-3.26.83-5.85,3.34-9,4.48-5.64,2-11.82-.61-17.81-.6a20,20,0,0,0-10.25,2.85,5.47,5.47,0,0,0-2.43,2.42,5,5,0,0,0-.19,2.44,10.5,10.5,0,0,0,4.94,7.85c2.78,1.59,6.64.46,9.11-1.58"/><path class="cls-2" d="M43.36,68.67c6.88,17.13,23.33,28.81,41.7,30.67,4.13.42,8.3.33,12.44.64a58.53,58.53,0,0,1,23.44,6.4"/><path class="cls-3" d="M46.62,73.91c3-5.24,7.67-9.38,12.73-12.68s10.58-5.85,16-8.55q12.47-6.19,24.29-13.55"/><path class="cls-3" d="M43.36,65.71c5.94-9.63,16.64-15.07,26.81-20l14.18-6.93"/><path class="cls-3" d="M50.07,78.69c8.11-8.51,18.55-14.4,29.13-19.51,7.94-3.84,16.1-7.33,23.42-12.25a121.57,121.57,0,0,0,9.83-7.56"/><path class="cls-3" d="M56.05,84.82C64.25,74.76,77.65,71,89.17,65,101.9,58.4,112.76,48.73,123,38.72"/><path class="cls-3" d="M60.78,89.18c9.85-7.59,21.83-11.81,32.57-18.07a141.58,141.58,0,0,0,13.23-8.9,256.84,256.84,0,0,0,28.09-24.32"/><path class="cls-3" d="M68.94,94.36c9.06-7.21,20.81-10,31-15.48a127,127,0,0,0,10.77-6.83c6.35-4.34,12.73-8.69,18.32-14,2.82-2.67,5.43-5.55,8-8.43l5.17-5.73c.14-.16.29-.38.19-.56s-.47.06-.28.16"/><path class="cls-3" d="M81.89,98.43c8.46-6.22,19.19-9.52,28.54-14.2a102.35,102.35,0,0,0,20.09-13.55c3.86-3.27,9.24-7.92,10.9-13,.06.3-.14.5-.29.86"/><path class="cls-3" d="M98,99.82A127.09,127.09,0,0,0,133.71,79c3.83-3.17,7.53-6.64,10-11"/><path class="cls-3" d="M117,103.66a97.09,97.09,0,0,0,24.71-19.4c2.49-2.71,4.87-5.66,6-9.15"/><path class="cls-3" d="M150.44,79.69c.14,4.28-2,8.3-4.4,11.86-3.49,5.2-7.73,10.07-13.22,13.09"/><path class="cls-3" d="M40.92,51c2.47-2.37,5.65-3.83,8.77-5.24,5.93-2.67,11.89-5.28,17.85-7.89"/><path class="cls-3" d="M106.32,39.13c12.13,6.7,25.35,17,36.12,25.74"/><path class="cls-3" d="M90.94,38.69A164.51,164.51,0,0,1,114.4,53.36C126,62.08,136.05,73.7,149.8,78.42"/><path class="cls-3" d="M77.08,38.21c15,6.16,28.78,18.71,41.69,28.54,11.09,8.44,23,16,36,21"/><path class="cls-3" d="M58.7,37.53c5.57,2.21,12.07,6.89,17,10.31,18,12.5,34.92,26.42,53.49,38,7.42,4.61,15.37,8.93,24.07,9.71.35,0,.75-.19,1,0s-.45.5-.23.22"/><path class="cls-3" d="M46.32,38.26c17,9.55,32.15,21.87,47.73,33.52s31.85,22.8,50.1,29.54"/><path class="cls-3" d="M34.3,38.69c31.18,16.06,54,45.35,85.35,61.15a79.68,79.68,0,0,0,13.13,5.36c.28.09.65.14.8-.11s-.43-.47-.37-.19"/><path class="cls-3" d="M41.22,53.15c20.85,16.07,40.11,34.43,62.86,47.66.25.15.6.29.81.09s-.26-.6-.31-.31"/><path class="cls-3" d="M42.81,63.23c10.44,7.1,18.6,17,28.13,25.3A111.15,111.15,0,0,0,85.88,99.47"/><path class="cls-3" d="M124,39.18a65,65,0,0,1,17.2,14.39"/><path class="cls-3" d="M100.84,100.36a22.66,22.66,0,0,0,2.12,6.81"/><path class="cls-3" d="M101.5,117.59a48.61,48.61,0,0,1-9.2-17.76"/><path class="cls-3" d="M99.71,123.48C91.17,118,83.1,108.65,80.87,98.74"/><path class="cls-3" d="M84.76,121.28A44.09,44.09,0,0,1,68.36,95"/><path class="cls-3" d="M71.65,116A40.92,40.92,0,0,1,60.39,89.59"/><path class="cls-3" d="M58.9,105.92a37,37,0,0,1-6.7-23.53"/><path class="cls-3" d="M47.34,86.36a57.69,57.69,0,0,0,8.62.07"/><path class="cls-3" d="M50.07,92.78c3.12-.27,6.22-.62,9.32-1a6,6,0,0,0,2.74-.85"/><path class="cls-3" d="M54.24,99.94a36.22,36.22,0,0,0,16.15-4.8l-.35.23"/><path class="cls-3" d="M59.85,106.71A31.32,31.32,0,0,0,79,98.33"/><path class="cls-3" d="M67.59,113.22a26,26,0,0,0,12.22-4.89,77,77,0,0,0,10-8.8"/><path class="cls-3" d="M75.5,117.78A68.41,68.41,0,0,0,99.18,100.5"/><path class="cls-3" d="M83.54,120.79c9.78-4.61,16.84-11.16,23.7-19.5"/><path class="cls-3" d="M89.72,122.51c4.37-1.09,8.42-1.92,11.78-4.92"/><path class="cls-3" d="M104.06,120.4a8.44,8.44,0,0,1,1.48-3.91c2.62-4.23,6.22-7.76,9.78-11.24"/><path class="cls-3" d="M101.52,109.7a35,35,0,0,0,15.6,5.71"/></g></svg>