<svg xmlns="http://www.w3.org/2000/svg" viewBox="0 0 180 152"><defs><style>.cls-1,.cls-2{fill:none;}.cls-2{stroke:#fff;stroke-linecap:round;stroke-linejoin:round;stroke-width:1.81px;}</style></defs><title>1</title><g id="Layer_2" data-name="Layer 2"><rect class="cls-1" width="180" height="152"/><circle class="cls-2" cx="119.39" cy="90.49" r="3.86"/><path class="cls-2" d="M121.12,94.08l11.75,11.75c2.16,2.15,5.08,4.57,6,7.17s3.68,9.9-1.84,15.42-10,1.52-12.38-.83l-8.75-8.75,9.39,4.44-4.07.88"/><path class="cls-2" d="M123,92.16l11.75,11.75a32.12,32.12,0,0,0,5.63,4.88c5.09,3.26,10.85,5.43,14.88,1.4s-.6-7.91-2.95-10.25l-8.76-8.76,4.45,9.39.87-4.07"/><path class="cls-2" d="M137.32,106.45l-1.87,1.88s5.7,7.49,6.73,10.4-1.26,8.24-7.61,1.9l-10.41-10.41,8.32,4.5-2.83,1"/><path class="cls-2" d="M111.56,83.83a5.82,5.82,0,0,0-.71,3.56,15.48,15.48,0,0,0,3.52-4.78,1.49,1.49,0,0,0-1.61.25c-1.33,1-1.63,2.84-1.8,4.49a1,1,0,0,0,.07.6.66.66,0,0,0,.7.26,1.72,1.72,0,0,0,.71-.39,10.93,10.93,0,0,0,3.13-4c-.62-.22-1.25.28-1.67.79A8.88,8.88,0,0,0,112.15,88a.83.83,0,0,0-.05.44.63.63,0,0,0,.75.39,1.75,1.75,0,0,0,.78-.49,13.61,13.61,0,0,0,2.33-2.9c.15-.24.27-.59.05-.76s-.57,0-.76.27a9.71,9.71,0,0,0-1.41,2.22,3.33,3.33,0,0,0-.37,2,.4.4,0,0,0,.67.27A4.53,4.53,0,0,0,115.63,88a18.82,18.82,0,0,0,1.4-2.11.78.78,0,0,0,.15-.53c0-.18-.27-.32-.42-.2"/><path class="cls-2" d="M112.43,83.58a47.45,47.45,0,0,1-1.15-5.67l.13.57"/><path class="cls-2" d="M113.1,83.7a19.44,19.44,0,0,1,.92-6.56,1.26,1.26,0,0,1-.12.66"/><path class="cls-2" d="M112.51,84.79a10.69,10.69,0,0,0,6,5.26,4.91,4.91,0,0,0-1.8-3.4,11.87,11.87,0,0,0-3.44-1.92,6.15,6.15,0,0,1-1.1-.52c-.45-.28-.77-.73-1.19-1a41.89,41.89,0,0,1-9.38-8.9"/><path class="cls-2" d="M101.59,74.26A172.86,172.86,0,0,0,75.47,49c-7.18-5.61-15.09-10.78-24.06-12.36S32.2,37.82,27.1,45.36c-3.87,5.72-4.23,13.07-3.83,20,.34,5.87,1.17,11.84,3.75,17.13,6.54,13.4,24.17,19.43,38.21,14.43S88.87,77.47,90,62.61c.83-11.34-3.1-23.29-11.67-30.76s-21.94-9.56-31.7-3.73C35.48,34.75,31.51,49.37,33,62.22c1,8.73,4.46,17.66,11.49,22.94,7.49,5.64,18,6.13,26.82,2.94A37.08,37.08,0,0,0,90.55,34.19C87.25,28.68,82.33,24,76.24,21.9c-7.37-2.47-15.85-.65-22,4.05A31.28,31.28,0,0,0,42.79,45.66c-2.19,13.12,3.76,27.48,15.1,34.43s27.46,5.4,36.67-4.2a39.57,39.57,0,0,0,8.19-14.11A68.78,68.78,0,0,0,105,22.83"/></g></svg>