<svg xmlns="http://www.w3.org/2000/svg" viewBox="0 0 180 152"><defs><style>.cls-1,.cls-2{fill:none;}.cls-2{stroke:#fff;stroke-linecap:round;stroke-linejoin:round;stroke-width:2.27px;}</style></defs><title>1</title><g id="Layer_2" data-name="Layer 2"><rect class="cls-1" width="180" height="152"/><path class="cls-2" d="M121.19,107.16c.18-.46,1.25-1,1.64-1.35.54-.44.26-1.4-.34-1.75a4.23,4.23,0,0,0-2.32-.14,13,13,0,0,0-3.68-7.16,9.66,9.66,0,0,1-2.08-2.35,4.87,4.87,0,0,1-.36-3.57,34.55,34.55,0,0,1,4.58-9.51c2.73-4.32,5.74-7.72,6.67-12.74,2.1.46,4.24-.43,6.21-1.3q12.26-5.48,24.31-11.39c2.73-1.34,5.91-3.57,5.34-6.55-.41-2.12-2.57-3.37-4.56-4.22a57,57,0,0,0-9.95-3.23c.68-1.94-.73-4.15-2.63-4.93a8.37,8.37,0,0,0-6,.32c-1.93.72-3.71,1.79-5.66,2.46-3.39,1.18-7.18,1.11-10.38,2.73-4.85,2.43-7.15,8-10.76,12-2.89,3.23-6.66,3-10.37,5.22l-9.46,5.71a98.52,98.52,0,0,1-13.31,7.15C67.39,77,54.81,77.65,43.27,76.87c-3.21-.21-8.72-.1-9.34-3.25-.65-3.31,5.25-5.25,8.38-6.5a50.64,50.64,0,0,1,15-3.43c4.51-.32,9.28-.1,13.25-2.25,2.09-1.14,4-3.37,3.43-5.68A6.21,6.21,0,0,0,72.19,53a22.42,22.42,0,0,0-5-3.77,1.25,1.25,0,0,0-1-.22c-.34.13-.28.52-.08.82,1.29,1.88,2.9,3.92,3.44,6s-2.25,2.79-6,2.47S24.11,53.6,19.71,68.42s7.94,20.93,11.8,22.43c0,0,3.55,7.51,8.59,8.26,0,0-1.29,5.15.43,6.87,0,0,1.07,2.26-.86,2a25,25,0,0,0-5.9-.32c-2.58.21-4.51.75-4.3,2.9s2.26,2,3.22,1.18,3.12-1.18,5.16-1.18a13.1,13.1,0,0,1,3.86.64s-1.93,2.58-4,2.9-3.22,3.06-3.22,3.06a2.29,2.29,0,0,0,3.86.48c2.36-2.25,3.55-3.33,5.48-4.08a7.18,7.18,0,0,1,4-.21,2.21,2.21,0,0,1,.54,2.14c-.43,1.19-1.4,3.55.1,3.87s2.9-.65,2.79-1.93A30.57,30.57,0,0,0,50.19,112c-.32-.64,1.5-.43,4.4-1.07s4.83-1.72,3.76-2.58a3.38,3.38,0,0,0-3.76-.32c-1.5.65-4.61,1.72-5.69.43s-1.39-.32-.86-3.86,2.69-6.34,1.4-9.23a11,11,0,0,0-5.69-6.23,35.65,35.65,0,0,0-6.23-2.68"/><path class="cls-2" d="M112.51,77.6l-4.1,11.56c-.75,2.12-1.51,4.36-1.11,6.57a13,13,0,0,0,2.43,4.85c1.4,2,2.86,4.11,5,5.41.31.19.66.4.75.76a1,1,0,0,1-.14.67c-.37.71-1.09.66-1.88.74a8.83,8.83,0,0,1-2.18,0c-.75-.08-1.57-.4-2-.39-1.1,0-1.2,1.77-.38,2.52a2.78,2.78,0,0,0,2,.46l5.23-.16a8.84,8.84,0,0,1-2.29,3,6.1,6.1,0,0,0-1.37,1.31,1.44,1.44,0,0,0,.06,1.76,1.88,1.88,0,0,0,1,.4,1.45,1.45,0,0,0,1.26-.18c.21-.19.24-.49.38-.73a21.94,21.94,0,0,1,4.3-5.11,7.91,7.91,0,0,1,1.38,3.23,4.5,4.5,0,0,0,.56,2.18c.49.78,1.74,1.16,2.32.44s.2-1.44-.09-2.13c-.71-1.68-1-3.13-1.73-4.82,2.48.08,4.55-.08,7,0,1.06-.26,1.06-2.69-.84-2.8a64.63,64.63,0,0,0-6.82.1"/><path class="cls-2" d="M49.44,95.36s3.43,2.89,12.13,3.32,13-.75,20.28-4.08S103.91,83.73,110,84.73"/><path class="cls-2" d="M45.05,77c3.39-2.15,6.78-4,10.25-6a11.79,11.79,0,0,1,4.05-1.69,4.25,4.25,0,0,1,4,1.34,6.36,6.36,0,0,1,.82,1.65l1.32,3.52"/><path class="cls-2" d="M122.87,87.74c1.19.4,2.1.78,3.19,1.05a11.33,11.33,0,0,1,2.3.7,2.51,2.51,0,0,1,1.45,1.8,1.46,1.46,0,0,1-1.3,1.67,2.77,2.77,0,0,1-1.52-.81,15.17,15.17,0,0,0-6.11-2.36l2.28,3.35c.45.68.92,1.53.55,2.25a1.58,1.58,0,0,1-2.27.31,4.39,4.39,0,0,1-1.33-2.18,5.92,5.92,0,0,0-1.66-2.87c-.18,1.23-.51,2.66-1.65,3.15a1.9,1.9,0,0,1-2.38-.94"/><path class="cls-2" d="M118.32,81.83l.68,2a3.3,3.3,0,0,0,.79,1.46,2.31,2.31,0,0,0,1.86.49,8.74,8.74,0,0,0,1.9-.55,19.12,19.12,0,0,1,3.19-.81,3.71,3.71,0,0,1,1.59,0,1.47,1.47,0,0,1,1.09,1,1.56,1.56,0,0,1-1.26,1.63c-.73.19-3.22.83-3.94,1"/><path class="cls-2" d="M136,54.47a3.06,3.06,0,0,1,1.68-3.15,8.47,8.47,0,0,1,3.71-.79,3.32,3.32,0,0,1,2.58.6,2.65,2.65,0,0,1,.58,1,4.42,4.42,0,0,1-2.85,5.62C139.7,58.34,136.42,56.45,136,54.47Z"/></g></svg>