<svg xmlns="http://www.w3.org/2000/svg" viewBox="0 0 180 152"><defs><style>.cls-1,.cls-2{fill:none;}.cls-2{stroke:#fff;stroke-linecap:round;stroke-linejoin:round;stroke-width:2.27px;}</style></defs><title>1</title><g id="Layer_2" data-name="Layer 2"><rect class="cls-1" width="180" height="152"/><path class="cls-2" d="M96.86,16A2.25,2.25,0,0,1,97,18.65a2.78,2.78,0,0,0-1,2.49c.13,1.21,2.53,14.2,3.18,17.31a43.64,43.64,0,0,1,.56,11.95,4.66,4.66,0,0,0,1.66,4.87c.93.83,4.8,2.28,6.65,6.61s1.46,10.5,1.46,15.67V130c0,4.26-2.88,5.62-6.29,6.54s-6.56,1.06-13.22,1.06-9.81-.15-13.22-1.06-6.29-2.28-6.29-6.54V77.55c0-5.17-.39-11.33,1.46-15.67s5.72-5.78,6.65-6.61a4.66,4.66,0,0,0,1.66-4.87,43.64,43.64,0,0,1,.56-11.95c.65-3.11,3.05-16.1,3.18-17.31a2.78,2.78,0,0,0-1-2.49A2.25,2.25,0,0,1,83.14,16"/><ellipse class="cls-2" cx="90" cy="16.43" rx="6.99" ry="2"/></g></svg>