<svg xmlns="http://www.w3.org/2000/svg" viewBox="0 0 180 152"><defs><style>.cls-1,.cls-2,.cls-3{fill:none;}.cls-2,.cls-3{stroke:#fff;stroke-linecap:round;stroke-linejoin:round;}.cls-2{stroke-width:2.27px;}.cls-3{stroke-width:1.36px;}</style></defs><title>1</title><g id="Layer_2" data-name="Layer 2"><rect class="cls-1" width="180" height="152"/><path class="cls-2" d="M42.61,56.56s-3.48,1.32-8.31-.83a7.2,7.2,0,0,1-4.22-7.24C27.27,46,31.18,42,31.18,42c-.06-1,1.33-1.84,1.33-1.84l.16-3.51c-2.94-10.09,8.16-13.2,8.16-13.2,1.67-9.07,7.9-8.51,13.32-8.79S65.54,19.48,66.05,22l.51,2.51s11.58,6.09,15,15.15"/><path class="cls-2" d="M30.08,48.49a13.45,13.45,0,0,0,6.73-.35"/><path class="cls-3" d="M31.18,42a1.82,1.82,0,0,0,2.67.41c1.62-1.16-1.34-2.25-1.34-2.25"/><circle class="cls-3" cx="37.8" cy="37.04" r="1.2"/><path class="cls-2" d="M43.21,56.27S27,74.44,48.09,87c0,0-10,17.7-8,32.38s5.12,17.47,13.08,17.94,14.79-3.73,15.93-7S64,125.22,64,122s0-14.44,3.13-19.8S74,88.88,72,82.13,68,74,68,74"/><path class="cls-2" d="M121.6,84.24s-11.34,2.56-13.37,9.57c-2.1,7.27-4,17.8,7.27,28.28"/><path class="cls-2" d="M79.31,35.48c6,2.8,19.14,5.32,29.93,8.58S136.05,52.7,146,59.23s9.67,16.54,6.82,27-24.21,17-24.21,17,7.77,17.68,7.77,21.7-1.07,11.25-4.55,11.83-20.1,1-22.78,0-3.21-4.6,0-10.76,10.72-3.21,10.72-3.21"/><path class="cls-2" d="M33.81,28.23s7.33-1.74,10.74,1.23,1.2,5.68-.12,9.09S42,48.75,41.27,50.93s-2.26,4-9.56,2.89"/><path class="cls-2" d="M72.19,89.87s11.19,16.72,35.26,6.95"/><line class="cls-2" x1="48.09" y1="87.02" x2="51.82" y2="89.21"/><path class="cls-2" d="M42.62,82.7C36.9,88.29,25.45,102,25.45,122.55c-.25,12.88,9.69,13.14,15.42,13.14a8,8,0,0,0,3.67-1.4"/><path class="cls-2" d="M137.17,99.88s12.8,17,15.07,24-1.52,9.29-4,10.56-13.69,0-13.69,0"/></g></svg>