<svg xmlns="http://www.w3.org/2000/svg" viewBox="0 0 180 152"><defs><style>.cls-1,.cls-2,.cls-3{fill:none;}.cls-2,.cls-3{stroke:#fff;stroke-linecap:round;stroke-linejoin:round;}.cls-2{stroke-width:1.81px;}.cls-3{stroke-width:2.27px;}</style></defs><title>1</title><g id="Layer_2" data-name="Layer 2"><rect class="cls-1" width="180" height="152"/><polygon class="cls-2" points="70.89 125.26 49.73 123.1 49.73 118.77 70.89 120.93 70.89 125.26"/><polyline class="cls-2" points="70.89 120.93 73.14 119.19 52.65 117.06 49.73 118.77"/><polyline class="cls-2" points="73.14 119.19 73.14 123.74 70.89 125.26"/><polygon class="cls-2" points="105.19 128.48 84.04 126.31 84.04 121.99 105.19 124.15 105.19 128.48"/><polyline class="cls-2" points="105.19 124.15 107.44 122.41 86.95 120.28 84.04 121.99"/><polyline class="cls-2" points="107.44 122.41 107.44 126.96 105.19 128.48"/><path class="cls-3" d="M99.12,111.87l-35.56-3.26a2.34,2.34,0,0,1-2.13-2.33V58.22A2.35,2.35,0,0,1,64,55.89l35.56,3.26a2.36,2.36,0,0,1,2.13,2.34v48.05A2.35,2.35,0,0,1,99.12,111.87Z"/><path class="cls-3" d="M51.3,118.17V38.24A2.2,2.2,0,0,1,53.71,36l56.09,5.15a2.2,2.2,0,0,1,2,2.2v87.16a2.21,2.21,0,0,1-2.41,2.2L53.3,127.6a2.21,2.21,0,0,1-2-2.2v-1.55"/><path class="cls-3" d="M111,132.29l4.29-4.53V42.11a3.63,3.63,0,0,0-3.3-3.62l-53.31-5-6.52,3.06"/><path class="cls-3" d="M61.7,33.77s19.19-10,19.85-11,2-2.5,2.92-3.58a24,24,0,0,1,3.12.39l-1.16,2,39.85,2.39,1.47-1.11,2.52.25v3.42l-1.48,2v74.4l-13.55,17.88"/><line class="cls-2" x1="113.99" y1="39.36" x2="130.27" y2="23.19"/><polygon class="cls-2" points="100.96 53.61 60.68 49.71 60.68 44.42 100.96 48.32 100.96 53.61"/><path class="cls-2" d="M60.68,44.42,64,42.78a.74.74,0,0,1,.39-.07L101.55,46a1.74,1.74,0,0,1,1.59,1.73v4.09a.75.75,0,0,1-.33.61L101,53.61"/><polyline class="cls-3" points="95.99 22.23 81.55 31.28 103.97 32.86 116.56 23.46"/></g></svg>