<svg xmlns="http://www.w3.org/2000/svg" viewBox="0 0 180 152"><defs><style>.cls-1,.cls-2,.cls-3,.cls-4{fill:none;}.cls-2,.cls-3,.cls-4{stroke:#fff;stroke-linecap:round;stroke-linejoin:round;}.cls-2{stroke-width:2.27px;}.cls-3{stroke-width:1.36px;}.cls-4{stroke-width:1.81px;}</style></defs><title>1</title><g id="Layer_2" data-name="Layer 2"><rect class="cls-1" width="180" height="152"/><path class="cls-2" d="M131.14,75.93s6.89,1.76,9.77,2.53,17.16,3.37,18.78,3.69.44,2.16-.52,2.64-9.19,2.29-16.1,2.59-28.41,2.88-31.29,3.84-20.24,7-28.08,7.87-23.06.9-33.6-5.77A32.6,32.6,0,0,1,35.23,67.47c-.45-8.29.86-12.48.63-14.24a7.68,7.68,0,0,0-2.16-4.37c-1-.85-2.21-2.48-3.33-2.48a47.58,47.58,0,0,0-6.17,1,14,14,0,0,1-4.69-.59,15,15,0,0,1,4-4.23c1.81-1.17,4.42-2.43,6.54-2.34.72-.45,1.17-6.22,6.93-7.84s13.7-.72,17.12,4.77,4,12.44,4.33,13.34,1.26,1.53,3.06,2,13.42,3.15,18.47,4.23,20.55,7.65,20.9,7.75c1.05.3,6.64.6,11.26,1.74s9.91,2.7,10.45,3,.9.84.72,1.08c0,0,4,1,4.78,1.26,1.05.42.81.91.61,1,0,0,2.69.81,2.72,1.47a1.52,1.52,0,0,1-1.14,1.32s2.1.78.6,1.68S121,77,121,77s-5.89,3.55-8.47,3.91a30.51,30.51,0,0,1-3.6.36A19.35,19.35,0,0,1,105,84.13c-2.16,1.14-8.68,3.7-15.25,2a25.63,25.63,0,0,1-9.06.58"/><path class="cls-3" d="M30,40.26s-1.38,1.33,0,1.89,6.58,1.08,6.58,1.08-5.5,1.43-5.5,3.35"/><path class="cls-3" d="M123.25,70.32s-5.15.88-18.15-2.07"/><path class="cls-3" d="M105,84.13s3.59,1.9,13.34,0c0,0,20.56.23,25.17,0s11.12-.83,14.67-2.27"/><circle class="cls-3" cx="42.93" cy="38.59" r="1.66"/><path class="cls-3" d="M100.82,64.49c1.37.57,4.57,2.69,4.28,3.76s-4,.78-10.11-.81a75.8,75.8,0,0,1-8.79-2.72"/><path class="cls-3" d="M115.23,80.05s14,1.39,19.22,1.45,17.93-.72,17.93-.72"/><path class="cls-3" d="M125.2,77.38s10.43,2.25,19.35,1.88"/><path class="cls-3" d="M128.64,72.57a41.68,41.68,0,0,1-16.06.59"/><path class="cls-3" d="M130.22,75.36a24.27,24.27,0,0,1-8.69-1.78"/><path class="cls-3" d="M109.05,69.08c1.31.25,4.2,2.21,3.8,3.49s-1.59,2.18-5.5,2.41S93.8,73.63,93.8,73.63"/><path class="cls-4" d="M81.84,99.27s.4,3,.36,3.3.15,2.83-.18,3.39a64.91,64.91,0,0,0-2.34,8.51,4.19,4.19,0,0,0,.52,3.14,29.62,29.62,0,0,0,4.15,1.55c1.4.52,1.24,1,.86,1.13s-5.75-.36-7.6-.47a47,47,0,0,0-5.91.45c-1.21.08-5-.1-5.38-.45s.61-1.11,1.48-1.41,4.84-.8,5.74-1.18a5.88,5.88,0,0,0,2.61-2c.57-.9,2.57-8.69,2.72-9.33a27.37,27.37,0,0,0,0-3.37,23.17,23.17,0,0,0-.23-3"/><path class="cls-4" d="M67.43,118.56c-1.26.11-2.47.26-3.13.3-1.21.08-5.06.24-5.4-.11s.61-1.11,1.48-1.41,4-1.1,4.86-1.47,3.48-.8,4.05-1.7,2.42-8.81,2.57-9.45a24.2,24.2,0,0,0,.45-5.31"/><path class="cls-4" d="M75.17,99.5a11.91,11.91,0,0,1,.57,2,12.66,12.66,0,0,1-.43,3.06,65.72,65.72,0,0,0-2.48,8.66c-.22,1.74-.36,3-.06,3.33a4.1,4.1,0,0,0,1.09.54"/></g></svg>