<svg xmlns="http://www.w3.org/2000/svg" viewBox="0 0 180 152"><defs><style>.cls-1,.cls-2{fill:none;}.cls-2{stroke:#fff;stroke-linecap:round;stroke-linejoin:round;stroke-width:1.81px;}</style></defs><title>1</title><g id="Layer_2" data-name="Layer 2"><rect class="cls-1" width="180" height="152"/><path class="cls-2" d="M44.79,77.94a1.87,1.87,0,0,1-.23.75c-.19.32-3.71,4.06-5.34,6s-2.73,4-.6,3.58,7.68-2.89,10.75-4.6,4.65-2.14,6.34-2.17a82.21,82.21,0,0,1,12.44,1.56c7.13,1.29,15.44,3,27.42,3.6,12.72.59,24.11-.16,34-2.4s13-4.81,13-6.31-3.37-3.1-13.27-4.59a201.47,201.47,0,0,0-34.37-2.46c-12,.32-19.9,1.39-26.54,2.13s-11,1.4-12.67,1.37-3.27-.46-6.34-2.17-8.62-4.17-10.75-4.59-1,1.65.6,3.58,5.15,5.66,5.34,6A1.87,1.87,0,0,1,44.79,77.94Z"/><path class="cls-2" d="M50.91,73c-1,.66-4,2.19-4,4.9s5.58,4.2,5.58,4.2"/><path class="cls-2" d="M97.42,70.84s-1.71-9.5-2.93-12.92a38.56,38.56,0,0,1-5.63,8,17.46,17.46,0,0,1-5,3.85l1.29,1.6"/><path class="cls-2" d="M78.91,85s-1.8,5.61-4.3,8.38c0,0-3.35-5.7-4.91-6.84S67.06,85.41,65.14,85a6.31,6.31,0,0,1,2-2.07"/><path class="cls-2" d="M99.7,86.8A20.17,20.17,0,0,1,97,94.08S94,92,93.34,89.22c0,0-.06-.62,1-1.11s3.42-1.37,3.42-1.37"/><path class="cls-2" d="M119.36,83.63s-.16-1,1.88-2.06c0,0-3.16-2.69-5.67-3.28a8.5,8.5,0,0,0-4.92,0c-.85.32.32,1.87,1.39,3s2,2.29,3.21,2.29Z"/><circle class="cls-2" cx="133.09" cy="78.34" r="1.4"/></g></svg>