<svg xmlns="http://www.w3.org/2000/svg" width="169.621" height="59.503" viewBox="0 0 169.621 59.503">
    <defs>
        <style>
            .prefix__cls-1{fill:none;stroke:#fff;stroke-linecap:round;stroke-linejoin:round;stroke-width:1.75px}
        </style>
    </defs>
    <g id="prefix__japanese-anchovy" transform="translate(-2241.261 -191.593)">
        <g id="prefix__그룹_204" data-name="그룹 204" transform="translate(2242.139 192.468)">
            <g id="prefix__그룹_203" data-name="그룹 203" transform="translate(0 15.416)">
                <path id="prefix__패스_194" d="M2253.87 219.672a2.924 2.924 0 01-.356 1.194c-.316.513-5.931 6.487-8.54 9.56s-4.349 6.4-.949 5.718 12.257-4.608 17.159-7.339 7.433-3.414 10.122-3.461 9.367.6 19.875 2.493c11.388 2.048 24.657 4.863 43.782 5.747 20.323.939 38.51-.256 54.325-3.84 15.629-3.543 20.719-7.682 20.719-10.071s-5.378-4.951-21.192-7.34-35.743-4.439-54.88-3.926-31.789 2.218-42.384 3.413-17.556 2.225-20.245 2.18-5.218-.729-10.122-3.461-13.759-6.656-17.159-7.339-1.66 2.645.949 5.718 8.224 9.047 8.54 9.56a2.928 2.928 0 01.356 1.194z" class="prefix__cls-1" data-name="패스 194" transform="translate(-2242.139 -203.11)"/>
                <path id="prefix__패스_195" d="M2258.962 209.137c-1.624 1.059-6.37 3.506-6.37 7.831s8.911 6.709 8.911 6.709" class="prefix__cls-1" data-name="패스 195" transform="translate(-2237.448 -200.406)"/>
            </g>
            <path id="prefix__패스_196" d="M2314.984 213.11s-2.729-15.179-4.665-20.642c0 0-4.1 7.853-8.989 12.747s-8.08 6.145-8.08 6.145l2.062 2.566" class="prefix__cls-1" data-name="패스 196" transform="translate(-2219.209 -192.468)"/>
            <path id="prefix__패스_197" d="M2294.661 223.3s-2.874 8.945-6.856 13.384c0 0-5.35-9.1-7.853-10.926s-4.21-1.731-7.283-2.458a10.123 10.123 0 013.239-3.312" class="prefix__cls-1" data-name="패스 197" transform="translate(-2228.442 -180.122)"/>
            <path id="prefix__패스_198" d="M2313.914 224.332a32.194 32.194 0 01-4.267 11.633s-4.773-3.409-5.889-7.766c0 0-.085-.991 1.621-1.776s5.461-2.179 5.461-2.179" class="prefix__cls-1" data-name="패스 198" transform="translate(-2214.495 -178.212)"/>
            <path id="prefix__패스_199" d="M2336.9 223.633s-.255-1.64 2.987-3.3c0 0-5.036-4.3-9.047-5.24s-6.485-.513-7.852 0 .511 2.987 2.219 4.865 3.243 3.671 5.121 3.671z" class="prefix__cls-1" data-name="패스 199" transform="translate(-2206.076 -182.565)"/>
        </g>
        <circle id="prefix__타원_69" cx="2.237" cy="2.237" r="2.237" class="prefix__cls-1" data-name="타원 69" transform="translate(2392.646 222.845)"/>
    </g>
</svg>
