<svg xmlns="http://www.w3.org/2000/svg" viewBox="0 0 180 152"><defs><style>.cls-1,.cls-2,.cls-3{fill:none;}.cls-2,.cls-3{stroke:#fff;stroke-linecap:round;stroke-linejoin:round;}.cls-2{stroke-width:1.81px;}.cls-3{stroke-width:1.09px;}</style></defs><title>1</title><g id="Layer_2" data-name="Layer 2"><rect class="cls-1" width="180" height="152"/><path class="cls-2" d="M167.22,76c0-2.83-7.08-13.34-9.92-17.59S145.18,45,143,43.18s-2.84-.79-4.41.55-12.12,11.07-15,15.37-3.23,6.59-3.23,6.59-13.93-1.89-22-1.73a140.94,140.94,0,0,0-15,1.1A93.7,93.7,0,0,0,82.6,76"/><path class="cls-2" d="M83,68.91S79.22,68.76,78,68s-1.89-2-6.3-2-6.22,2.44-6.22,2.44H62A26.06,26.06,0,0,0,61,76"/><path class="cls-2" d="M62,68.44s-5.51-7.16-9-10.94S43.72,51.2,42,49s-3.07-4.8-6.84-6.38-13.21,1-16.69,4.89c-1.42,1.57.08,1.25,2,.55A28.1,28.1,0,0,1,28.68,46c3.54-.24,6.38.16,7.64,1.73s4.25,5.12,6.77,6.38,8.5,5.27,9.52,7,7.19,7.72,9.07,8.43"/><path class="cls-3" d="M55.08,64S48,62.85,44,61.83,26.4,55.46,22.62,54a9,9,0,0,0-6.69,0,22.52,22.52,0,0,1,6.61,1.81,142.57,142.57,0,0,0,15.27,7.24c4.65,1.65,14.72,4.57,14.72,4.57"/><path class="cls-3" d="M60.31,68.72a123.88,123.88,0,0,0-17.15-1.46,30.78,30.78,0,0,1-16-3.7,25.63,25.63,0,0,0-12.52-3s8.89,2.8,12.12,4.84a30,30,0,0,0,7.32,3.69"/><path class="cls-3" d="M61.2,72.22s-4.65-.08-9.77,0-8.9.79-14.64,0S21.67,71,16.72,75.53a31.21,31.21,0,0,1,12.35-1.9c6.07.56,13.07,2.06,20.55,2.37a72.09,72.09,0,0,0,9.92,0"/><path class="cls-3" d="M52.69,72.21s-10.86-2.35-16.69-3S24.43,69,20.42,68.29s-7.64-1.58-7.64-1.58,5.35,3.73,14.88,5.09"/><path class="cls-2" d="M167.22,76c0,2.83-7.08,13.34-9.92,17.59S145.18,107,143,108.82s-2.84.79-4.41-.55-12.12-11.07-15-15.37-3.23-6.59-3.23-6.59-13.93,1.89-22,1.73a140.94,140.94,0,0,1-15-1.1A93.7,93.7,0,0,1,82.6,76"/><path class="cls-2" d="M83,83.09s-3.74.15-4.92.94-1.89,2-6.3,2-6.22-2.44-6.22-2.44H62A26.06,26.06,0,0,1,61,76"/><path class="cls-2" d="M62,83.56s-5.51,7.16-9,10.94-9.21,6.3-11,8.5-3.07,4.8-6.84,6.38-13.21-1-16.69-4.89c-1.42-1.57.08-1.25,2-.55a28.1,28.1,0,0,0,8.19,2c3.54.24,6.38-.16,7.64-1.73s4.25-5.12,6.77-6.38,8.5-5.27,9.52-7,7.19-7.72,9.07-8.43"/><path class="cls-3" d="M55.08,88S48,89.15,44,90.17,26.4,96.54,22.62,98a9,9,0,0,1-6.69,0,22.52,22.52,0,0,0,6.61-1.81,142.57,142.57,0,0,1,15.27-7.24c4.65-1.65,14.72-4.57,14.72-4.57"/><path class="cls-3" d="M60.31,83.28a123.88,123.88,0,0,1-17.15,1.46,30.78,30.78,0,0,0-16,3.7,25.63,25.63,0,0,1-12.52,3s8.89-2.8,12.12-4.84a30,30,0,0,1,7.32-3.69"/><path class="cls-3" d="M61.2,79.78s-4.65.08-9.77,0-8.9-.79-14.64,0S21.67,81,16.72,76.47a31.21,31.21,0,0,0,12.35,1.9c6.07-.56,13.07-2.06,20.55-2.37a72.09,72.09,0,0,1,9.92,0"/><path class="cls-3" d="M52.69,79.79s-10.86,2.35-16.69,3-11.57.24-15.58.94-7.64,1.58-7.64,1.58,5.35-3.73,14.88-5.09"/><circle class="cls-2" cx="71.96" cy="67.87" r="1.87"/><circle class="cls-2" cx="71.96" cy="84.13" r="1.87"/></g></svg>