<svg xmlns="http://www.w3.org/2000/svg" width="122.916" height="54.918" viewBox="0 0 122.916 54.918">
    <defs>
        <style>
            .prefix__cls-1{fill:none;stroke:#fff;stroke-linecap:round;stroke-linejoin:round;stroke-width:1.75px}
        </style>
    </defs>
    <g id="prefix__jimbo-flying-squid" transform="translate(.875 .907)">
        <g id="prefix__그룹_199" data-name="그룹 199">
            <path id="prefix__패스_175" d="M1818.44 204.942c0-2.223-5.558-10.468-7.781-13.8s-9.51-10.529-11.24-11.95-2.224-.618-3.458.432-9.51 8.684-11.734 12.062a15.878 15.878 0 00-2.532 5.168s-10.93-1.482-17.291-1.359a111.986 111.986 0 00-11.734.865 73.842 73.842 0 00-.618 8.584" class="prefix__cls-1" data-name="패스 175" transform="translate(-1697.274 -178.389)"/>
            <path id="prefix__패스_176" d="M1745.459 206.94s-2.941-.116-3.867-.734-1.483-1.544-4.941-1.544-4.879 1.914-4.879 1.914h-2.779a20.556 20.556 0 00-.8 5.928" class="prefix__cls-1" data-name="패스 176" transform="translate(-1690.395 -185.954)"/>
            <path id="prefix__패스_177" d="M1715.307 199s-4.323-5.62-7.1-8.585-7.225-4.94-8.584-6.669-2.408-3.767-5.373-5-10.362.8-13.092 3.829c-1.112 1.236.061.989 1.606.433a21.931 21.931 0 016.422-1.606c2.779-.186 5 .123 5.99 1.359s3.335 4.014 5.312 5 6.669 4.138 7.472 5.5 5.644 6.058 7.114 6.611" class="prefix__cls-1" data-name="패스 177" transform="translate(-1676.709 -178.375)"/>
            <path id="prefix__패스_178" d="M1709.275 199.094s-5.585-.9-8.672-1.707-13.833-5-16.8-6.114a7.081 7.081 0 00-5.25 0 17.618 17.618 0 015.188 1.424 113 113 0 0011.981 5.678c3.643 1.3 11.548 3.582 11.548 3.582" class="prefix__cls-1" data-name="패스 178" transform="translate(-1676.086 -181.951)"/>
            <path id="prefix__패스_179" d="M1712.977 205.046a97.67 97.67 0 00-13.454-1.141 24.218 24.218 0 01-12.537-2.9 19.982 19.982 0 00-9.819-2.378s6.978 2.193 9.51 3.8a23.31 23.31 0 005.739 2.891" class="prefix__cls-1" data-name="패스 179" transform="translate(-1675.686 -184.208)"/>
            <path id="prefix__패스_180" d="M1714.321 211.363s-3.648-.061-7.663 0-6.978.618-11.486 0-11.858-.927-15.748 2.593a24.543 24.543 0 019.7-1.489c4.755.439 10.251 1.613 16.119 1.86a55.676 55.676 0 007.781 0" class="prefix__cls-1" data-name="패스 180" transform="translate(-1676.336 -187.774)"/>
            <path id="prefix__패스_181" d="M1706.4 209.755s-8.523-1.84-13.093-2.334-9.078-.186-12.228-.742-5.99-1.235-5.99-1.235a29.1 29.1 0 0011.671 3.994" class="prefix__cls-1" data-name="패스 181" transform="translate(-1675.085 -186.179)"/>
            <path id="prefix__패스_182" d="M1818.44 215.683c0 2.223-5.558 10.468-7.781 13.8s-9.51 10.53-11.24 11.95-2.224.618-3.458-.432-9.51-8.684-11.734-12.062a15.878 15.878 0 01-2.532-5.168s-10.93 1.482-17.291 1.359a111.986 111.986 0 01-11.734-.865 73.842 73.842 0 01-.618-8.584" class="prefix__cls-1" data-name="패스 182" transform="translate(-1697.274 -189.131)"/>
            <path id="prefix__패스_183" d="M1745.459 221.249s-2.941.115-3.867.733-1.483 1.544-4.941 1.544-4.879-1.914-4.879-1.914h-2.779a20.556 20.556 0 01-.8-5.929" class="prefix__cls-1" data-name="패스 183" transform="translate(-1690.395 -189.131)"/>
            <path id="prefix__패스_184" d="M1715.307 223.662s-4.323 5.62-7.1 8.585-7.225 4.941-8.584 6.669-2.408 3.767-5.373 5-10.362-.8-13.092-3.829c-1.112-1.236.061-.989 1.606-.433a21.951 21.951 0 006.422 1.606c2.779.185 5-.124 5.99-1.359s3.335-4.015 5.312-5 6.669-4.138 7.472-5.5 5.644-6.058 7.114-6.611" class="prefix__cls-1" data-name="패스 184" transform="translate(-1676.709 -191.181)"/>
            <path id="prefix__패스_185" d="M1709.275 227.744s-5.585.9-8.672 1.707-13.833 5-16.8 6.114a7.077 7.077 0 01-5.25 0 17.631 17.631 0 005.188-1.423 112.848 112.848 0 0111.981-5.679c3.643-1.3 11.548-3.582 11.548-3.582" class="prefix__cls-1" data-name="패스 185" transform="translate(-1676.086 -191.783)"/>
            <path id="prefix__패스_186" d="M1712.977 223.6a97.671 97.671 0 01-13.454 1.141 24.218 24.218 0 00-12.537 2.9 19.982 19.982 0 01-9.819 2.378s6.978-2.193 9.51-3.8a23.31 23.31 0 015.739-2.891" class="prefix__cls-1" data-name="패스 186" transform="translate(-1675.686 -191.337)"/>
            <path id="prefix__패스_187" d="M1714.321 218.6s-3.648.061-7.663 0-6.978-.618-11.486 0-11.858.927-15.748-2.593a24.543 24.543 0 009.7 1.489c4.755-.439 10.251-1.613 16.119-1.86a55.683 55.683 0 017.781 0" class="prefix__cls-1" data-name="패스 187" transform="translate(-1676.336 -189.086)"/>
            <path id="prefix__패스_188" d="M1706.4 219.865s-8.523 1.84-13.093 2.335-9.078.185-12.228.741-5.99 1.235-5.99 1.235a29.1 29.1 0 0111.671-3.994" class="prefix__cls-1" data-name="패스 188" transform="translate(-1675.085 -190.336)"/>
        </g>
        <circle id="prefix__타원_66" cx="1.467" cy="1.467" r="1.467" class="prefix__cls-1" data-name="타원 66" transform="translate(44.963 18.709)"/>
        <circle id="prefix__타원_67" cx="1.467" cy="1.467" r="1.467" class="prefix__cls-1" data-name="타원 67" transform="translate(44.963 31.462)"/>
    </g>
</svg>
