<svg xmlns="http://www.w3.org/2000/svg" viewBox="0 0 180 152"><defs><style>.cls-1,.cls-2,.cls-3{fill:none;}.cls-2,.cls-3{stroke:#fff;stroke-linecap:round;stroke-linejoin:round;}.cls-2{stroke-width:2.27px;}.cls-3{stroke-width:1.81px;}</style></defs><title>1</title><g id="Layer_2" data-name="Layer 2"><rect class="cls-1" width="180" height="152"/><path class="cls-2" d="M99.21,103.5a6.44,6.44,0,0,1-.86-2.89,13.68,13.68,0,0,1,.06-3.26.68.68,0,0,1,.3-.57.65.65,0,0,1,.59.12,6.74,6.74,0,0,1,3.2,5.49C102.56,104.87,100.67,105.72,99.21,103.5Z"/><path class="cls-2" d="M98.42,98.68c.11.17-.21.26-.4.19a4.66,4.66,0,0,1-2.52-3.33,13.9,13.9,0,0,1,0-4.32.58.58,0,0,1,.16-.41.57.57,0,0,1,.51,0,6.43,6.43,0,0,1,4.27,6.65"/><path class="cls-2" d="M92.94,96.51a2.69,2.69,0,0,0-.26-2.32c-1.13-2-3.57-2.9-5.83-3.49a10.38,10.38,0,0,0,.23,2.71,6.27,6.27,0,0,0,1.46,2.44C89.52,96.87,92,98.64,92.94,96.51Z"/><path class="cls-2" d="M92.46,97.51a4.8,4.8,0,0,1,2.11,1.41q2,1.9,3.76,4"/><path class="cls-3" d="M115.05,125.08c-2.1-5.7-5.86-12.89-12.55-21.3"/><path class="cls-3" d="M100.81,105.12c8.43,10.83,12,20.41,13.21,28"/><path class="cls-2" d="M85.61,92.55a5.59,5.59,0,0,1-6.23-2.07.78.78,0,0,1-.15-.38.71.71,0,0,1,.3-.52,4.44,4.44,0,0,1,3.85-.82,7.82,7.82,0,0,1,3.48,2"/><path class="cls-2" d="M88.63,90.55a.84.84,0,0,0,.78-.6,1.94,1.94,0,0,0,0-1A8.72,8.72,0,0,0,84,83.14a.54.54,0,0,0-.48,0,.53.53,0,0,0-.16.28,6.11,6.11,0,0,0,.87,5.18c.05.06.11.13.18.13s.12-.14,0-.16"/><path class="cls-2" d="M82.39,85.75a6.67,6.67,0,0,1-5.62-5,.64.64,0,0,1,0-.41.54.54,0,0,1,.26-.21,3.18,3.18,0,0,1,2.88.6A22.42,22.42,0,0,1,83,83c.07.06.15.15.1.23s-.18-.08-.09-.07"/><path class="cls-2" d="M71,86.8A7.66,7.66,0,0,1,67.31,84a.53.53,0,0,1-.11-.24.43.43,0,0,1,.13-.27c1-1.29,3-1.43,4.54-1C73,82.88,76,84.37,76,85.87,75.89,87.6,72.06,87.17,71,86.8Z"/><path class="cls-2" d="M78.87,89.41C78,90.92,76.22,91.5,74.57,92a4.5,4.5,0,0,1-1.4.22,1.47,1.47,0,0,1-1.2-.66,1.55,1.55,0,0,1-.14-1c.22-1.56,1.61-2.66,2.89-3.58"/><path class="cls-2" d="M75.9,86.2a6.29,6.29,0,0,1,2.16.78,2.21,2.21,0,0,1,1.07,1.92"/><path class="cls-2" d="M63.21,77.47a5.87,5.87,0,0,1,4-.21c2.08.71,4,4,1.19,5.21C65.37,83.69,63.77,79.61,63.21,77.47Z"/><path class="cls-2" d="M64.31,81.79a8.51,8.51,0,0,0-8.48.67,7.36,7.36,0,0,0,6.39,2.79c1.51-.07,3.21-.68,3.71-2.1"/><path class="cls-2" d="M69.3,86.09a3.17,3.17,0,0,1-1.49,2.52A5.73,5.73,0,0,1,63.22,90a1,1,0,0,1-.52-.24,1,1,0,0,1-.19-.74A6.31,6.31,0,0,1,65,84.18"/><path class="cls-2" d="M61.66,87.61c.06.47-.41.81-.82,1a9.43,9.43,0,0,1-4.07,1.25A4.66,4.66,0,0,1,53,88.28,13.46,13.46,0,0,1,55.45,86a5.57,5.57,0,0,1,3.22-1c.26,0,.6.15.54.41"/><path class="cls-2" d="M53,89.55a9.36,9.36,0,0,1-8.1-1.22c-.13-.1-.28-.22-.29-.38a.64.64,0,0,1,.14-.34,6.81,6.81,0,0,1,9.76-1.25"/><path class="cls-2" d="M44.85,86.75a8.14,8.14,0,0,0-2.63,1.09c-1.69,1.24-2.14,3.54-2.36,5.62a6.7,6.7,0,0,0,6.56-4.35"/><line class="cls-2" x1="89.41" y1="89.95" x2="95.5" y2="95.54"/><path class="cls-3" d="M120.81,137.2c2.3-7.77,3.32-15.85,4.78-23.82a219,219,0,0,1,19.09-57.55C138.82,64.38,133,73,128.3,82.21c-6.5,12.94-10.5,27-13,41.28-.9,5.12-1.61,10.36-1.09,15.55.17,1.63.54,4.3,2.79,3.73S120.24,139.1,120.81,137.2Z"/><path class="cls-3" d="M116.37,117.93c0-10.91-2.22-21-4.67-31.63-4.1-17.82-9.55-35.58-19.14-51.16-5.8-9.43-13-17.91-20.61-26a197.13,197.13,0,0,1,32.22,78.73c1.48,8.59,2.66,18.7,5.88,26.81"/><path class="cls-2" d="M94.22,76.46a2.39,2.39,0,0,0-.77-.81,2.82,2.82,0,0,0-.91-.32.27.27,0,0,0-.18,0c-.1,0-.14.16-.17.27a8,8,0,0,0-.26,3.59c.19.92,1.69,3.65,2.8,2.27S95,77.62,94.22,76.46Z"/><path class="cls-2" d="M91.7,79.4c0,.52-.5.94-1,.95a2.32,2.32,0,0,1-1.41-.64,5.67,5.67,0,0,1-2.21-4.3.36.36,0,0,1,0-.18.34.34,0,0,1,.21-.14,3.55,3.55,0,0,1,2.56.22,4.42,4.42,0,0,1,1.86,1.8"/><path class="cls-2" d="M93.43,74.85a10.26,10.26,0,0,0-3.09-6.76.29.29,0,0,0-.2-.11.28.28,0,0,0-.18.12,4.88,4.88,0,0,0,1.45,7.62"/><path class="cls-2" d="M88.29,75a9.5,9.5,0,0,1-4.64-2.18,10,10,0,0,1-2.28-3.64.78.78,0,0,1-.07-.54.72.72,0,0,1,.49-.35,4.2,4.2,0,0,1,3,.31,11.18,11.18,0,0,1,2.51,1.77,5.1,5.1,0,0,1,1.51,2"/><path class="cls-2" d="M89.29,69.06a8.16,8.16,0,0,0-4.44-5.93,5.88,5.88,0,0,0,.49,5,8.22,8.22,0,0,0,1,1.45"/><path class="cls-2" d="M82,68.33a5.48,5.48,0,0,1-3.52-1.74,9.78,9.78,0,0,1-2-3.43,3.56,3.56,0,0,1,2.66-.5c2.1.27,3.91.69,5.44,2.17"/><path class="cls-2" d="M81.2,62.48A6,6,0,0,0,78.77,59a14.6,14.6,0,0,0-5-2.59.84.84,0,0,0-.76,0,.8.8,0,0,0-.19.62,6.79,6.79,0,0,0,3.95,6"/><path class="cls-2" d="M76.16,64.16a2.15,2.15,0,0,1-2.19.39,12.3,12.3,0,0,1-7.41-5.16.52.52,0,0,1-.12-.33.54.54,0,0,1,.19-.31c1.69-1.55,4.07-1.33,6.16-.4"/><path class="cls-2" d="M67.35,57.75a7.06,7.06,0,0,1-4.52-5.23.55.55,0,0,1,0-.44.56.56,0,0,1,.39-.17,10.13,10.13,0,0,1,10.18,5"/><path class="cls-2" d="M65.69,58.63c-.2.27-.6.26-.93.22a13.46,13.46,0,0,1-8.12-4.2c-.29-.31-.57-.77-.34-1.13a.93.93,0,0,1,.37-.31A7.83,7.83,0,0,1,63.56,53"/><path class="cls-2" d="M56.2,53A10.43,10.43,0,0,1,49.73,48a.84.84,0,0,1-.14-.61A.78.78,0,0,1,50,47a5.28,5.28,0,0,1,1.22-.46,8.74,8.74,0,0,1,10.45,5.63"/><path class="cls-2" d="M52.53,51.71a10.73,10.73,0,0,1-10.8-2.06.69.69,0,0,1-.27-.4.71.71,0,0,1,.22-.46,6.63,6.63,0,0,1,8.64-1.18"/><path class="cls-2" d="M42.05,50.21a7.15,7.15,0,0,0-6.67,4.24.49.49,0,0,0-.05.29.53.53,0,0,0,.2.22,6,6,0,0,0,2.93.86,8.65,8.65,0,0,0,4.21-.68,5.27,5.27,0,0,0,2.84-3.07c0-.13,0-.33-.11-.3"/><path class="cls-3" d="M93.43,81.6c2.44,4.19,4.88,7.89,6.37,12.51"/><path class="cls-3" d="M95.49,80.78a71.43,71.43,0,0,1,11.28,23.4"/><path class="cls-3" d="M114,135.09a16.51,16.51,0,0,0-2.27-6.51,51,51,0,0,0-42.85-26.64c-3.83-.14-7.9.22-11,2.43,8.37-.1,16.6,2.31,24.34,5.51a53.23,53.23,0,0,1,7.16,3.49,57.2,57.2,0,0,1,10.08,8.23,109.09,109.09,0,0,1,9.82,10.8,47.41,47.41,0,0,1,4.41,6.57q.67,1.26,1.26,2.58"/></g></svg>