<svg xmlns="http://www.w3.org/2000/svg" viewBox="0 0 180 152"><defs><style>.cls-1,.cls-2{fill:none;}.cls-2{stroke:#fff;stroke-linecap:round;stroke-linejoin:round;stroke-width:1.81px;}</style></defs><title>1</title><g id="Layer_2" data-name="Layer 2"><rect class="cls-1" width="180" height="152"/><path class="cls-2" d="M21.85,69.62C20.71,72.6,19.05,83,34.31,90"/><path class="cls-2" d="M23.48,92.85c.21,1.89,3.24,6.6,4.25,7.68s2.83,5.28,13,5.28,22.09-2.81,27.54-4.36,30.17-7.5,35.12-8.69c5.11-1.23,7.07-2.41,6.92-2.71s-5.09-.54-10.2-.54c-3,0-6.1,0-13.89.23-6.25.18-17.72.51-23.45.29s-16.08-1.32-22.59-3.44c-5.86-1.9-11.77-4.57-13.7-6.1s-4.56-3.87-5.32-7.27"/><path class="cls-2" d="M29.35,82.21A10.09,10.09,0,0,1,31,77.35c4.32-7,25.22-7,32.14-7s49.07,2,60.08,1.93,30.55-1.14,33.39-1.93,4.22-3.14,3.41-4.7a7.13,7.13,0,0,0-4-3.33c-1.52-.68-6.67-2.57-8-3.1a14.63,14.63,0,0,0-5.87-1.4,25.9,25.9,0,0,0-8.29-2.73c-4.24-.49-11-1.85-32.18-1.85s-46-.38-56.26,2S25.56,61.74,21.85,69.62a23.78,23.78,0,0,0-.49,18.48c2.5,6.92,5.11,10.1,14.08,12.37s27.07-.1,33.66-1.92,13-3.54,19.32-4.82c-3.08.19-13.24,1-26.52.61-10.46-.27-25.09-3-27.59-4.31"/><path class="cls-2" d="M132.63,55a14.64,14.64,0,0,0-4.34-4.8A136.16,136.16,0,0,0,111.53,47c-6.24-.68-40.88-1.31-51.1-.4s-23.69,5-29.3,8.75c-5.8,3.86-11.09,9.54-10,15.9"/><circle class="cls-2" cx="146.91" cy="64.85" r="1.61"/><path class="cls-2" d="M136.78,60s-2.57,1.23-3.15,2.35-.7,3.15,1.28,5"/><path class="cls-2" d="M135,61.05s-4.92-.26-9,0-6.19.69-6.73,1-.8.69-.26,1.44a15.35,15.35,0,0,0,3.9,3.15,8.38,8.38,0,0,0,4.48.75,59.86,59.86,0,0,0,6.76-.8"/></g></svg>