<svg xmlns="http://www.w3.org/2000/svg" width="108.485" height="47.02" viewBox="0 0 108.485 47.02">
    <defs>
        <style>
            .prefix__cls-1{fill:none;stroke:#fff;stroke-linecap:round;stroke-linejoin:round;stroke-width:1.75px}
        </style>
    </defs>
    <g id="prefix__largehead-hairtail" transform="translate(.91 .881)">
        <path id="prefix__패스_154" d="M876.519 207.747c-.868 2.258-2.127 10.174 9.455 15.491" class="prefix__cls-1" data-name="패스 154" transform="translate(-874.916 -189.958)"/>
        <g id="prefix__그룹_195" data-name="그룹 195">
            <path id="prefix__패스_155" d="M877.756 226.618c.157 1.432 2.457 5.01 3.225 5.829s2.148 4.009 9.865 4.009 16.769-2.137 20.907-3.31 22.9-5.7 26.656-6.6c3.881-.933 5.371-1.827 5.256-2.057s-3.867-.406-7.741-.406c-2.311 0-4.635 0-10.549.173-4.741.138-13.45.388-17.8.216s-12.2-1-17.144-2.607c-4.454-1.446-8.937-3.472-10.4-4.636s-3.461-2.931-4.037-5.518" class="prefix__cls-1" data-name="패스 155" transform="translate(-874.916 -191.192)"/>
            <g id="prefix__그룹_194" data-name="그룹 194">
                <path id="prefix__패스_156" d="M881.725 211.686a7.684 7.684 0 011.264-3.692c3.276-5.292 19.14-5.292 24.4-5.292s37.246 1.552 45.609 1.465 23.193-.862 25.349-1.465 3.2-2.381 2.586-3.564a5.394 5.394 0 00-3.046-2.529c-1.149-.517-5.058-1.954-6.036-2.357a11.111 11.111 0 00-4.454-1.063 19.755 19.755 0 00-6.294-2.069c-3.219-.373-8.334-1.408-24.428-1.408s-34.889-.287-42.706 1.552-15.122 4.879-17.933 10.863a18.048 18.048 0 00-.374 14.025c1.9 5.259 3.88 7.674 10.691 9.4s20.55-.081 25.55-1.461 9.884-2.688 14.671-3.658c-2.34.141-10.057.726-20.133.463-7.946-.207-19.054-2.242-20.951-3.276" class="prefix__cls-1" data-name="패스 156" transform="translate(-874.431 -184.338)"/>
                <path id="prefix__패스_157" d="M960.564 188.576a11.007 11.007 0 00-3.3-3.643 102.709 102.709 0 00-12.718-2.371c-4.741-.517-31.038-.991-38.8-.3s-17.987 3.8-22.244 6.639c-4.4 2.932-8.419 7.242-7.572 12.07" class="prefix__cls-1" data-name="패스 157" transform="translate(-874.864 -181.916)"/>
                <circle id="prefix__타원_63" cx="1.224" cy="1.224" r="1.224" class="prefix__cls-1" data-name="타원 63" transform="translate(95.322 12.943)"/>
                <path id="prefix__패스_158" d="M1002.238 197.174s-1.946.932-2.392 1.784a3.192 3.192 0 00.973 3.811" class="prefix__cls-1" data-name="패스 158" transform="translate(-913.388 -186.666)"/>
                <path id="prefix__패스_159" d="M995.925 198.261s-3.73-.2-6.811 0-4.7.521-5.109.764-.608.528-.2 1.1a11.926 11.926 0 002.96 2.392 6.4 6.4 0 003.405.568 46.362 46.362 0 005.133-.606" class="prefix__cls-1" data-name="패스 159" transform="translate(-908.413 -186.977)"/>
            </g>
        </g>
    </g>
</svg>
