<svg xmlns="http://www.w3.org/2000/svg" viewBox="0 0 180 152"><defs><style>.cls-1,.cls-2,.cls-3{fill:none;}.cls-2,.cls-3{stroke:#fff;stroke-linecap:round;stroke-linejoin:round;}.cls-2{stroke-width:2.27px;}.cls-3{stroke-width:1.36px;}</style></defs><title>1</title><g id="Layer_2" data-name="Layer 2"><rect class="cls-1" width="180" height="152"/><path class="cls-2" d="M95.39,63.48a28.11,28.11,0,0,0-3-7.89c2.42-1.17,5.33-.46,7.76.69s4.7,2.72,7.32,3.33A10.55,10.55,0,0,0,114,59c2-.88,3.9-2.66,4-4.87.07-1.69-.88-3.26-1.06-4.94-.28-2.75,1.54-5.49.83-8.16-.8-3-4.35-4.33-7.4-5.12-4-1.05-8.35-2.08-12.32-.77a21.68,21.68,0,0,0-4.74,2.49L81.39,45.22A6,6,0,0,0,85,49.33c.45.19,1,.35,1.2.79a2.11,2.11,0,0,1,0,1.38c-.59,3,1.44,5.73,2.64,8.51a16.53,16.53,0,0,1,.47,11.79c-.25.74,4.28-.46,4.88-1.15C95.63,68.94,95.72,65.56,95.39,63.48Z"/><path class="cls-2" d="M88.22,72c1.35-4.31-.6-8.95-3-12.77s-5.39-7.45-6.41-11.84a4.29,4.29,0,0,1,0-2.38,5,5,0,0,1,1.78-2.12q4.89-4,10.12-7.46a20.87,20.87,0,0,1,6.24-3.16c2.94-.75,6-.27,9.06.21,4.24.69,8.62,1.42,12.2,3.8,4.45,2.94,7,8,9.35,12.73l3.39,6.89a18.29,18.29,0,0,1,1.54,3.82c.75,3.19-.27,6.56-1.85,9.43a24.86,24.86,0,0,1-9.06,9.32c-1.63,1-3.6,1.75-5.38,1.12-1.54-.55-2.54-2-3.4-3.39a113.75,113.75,0,0,1-9.49-18.3"/><path class="cls-2" d="M87.52,68.24C85.94,72.08,83.69,76,80,77.82a18,18,0,0,1-4.83,1.45c-10.9,2-22.16,1.24-33.11,3a24.34,24.34,0,0,0-9.61,3.23c-2.85,1.87-5.07,5-5.13,8.37-.06,4.18,3.15,7.84,6.93,9.64s8,2.14,12.22,2.54c15.56,1.5,31.14,4.39,46.71,3,3.1-.27,6.5-.89,8.43-3.33.69-.87,1.14-1.92,1.88-2.75a9.84,9.84,0,0,1,3.79-2.23l12.48-5c2.9-1.18,5.91-2.41,8-4.7,4.87-5.22,3.88-14.34,9.31-19"/><path class="cls-2" d="M130.78,86.32c6-2,11-6.24,15.55-10.61a19.92,19.92,0,0,0,3.81-4.5,7.22,7.22,0,0,0,.78-5.7,10.84,10.84,0,0,0-2.07-3.27l-7.25-8.86a2.45,2.45,0,0,0-1.33-1c-.72-.12-1.4.41-2.13.5C137,53,136,52,135.2,51.15a27.69,27.69,0,0,0-9.2-6.42.54.54,0,0,0-.52,0c-.14.1,0,.42.14.33"/><path class="cls-2" d="M56.3,82.16l-.67-.42c3.26,2,5.45,5.38,7,8.86a43.73,43.73,0,0,1,4,16.71"/><path class="cls-2" d="M102.22,104.49a51.38,51.38,0,0,0-21.71-5.77,1.13,1.13,0,0,1-.75-.21A1.06,1.06,0,0,1,79.5,98a20.15,20.15,0,0,1,6.18-19.9"/><path class="cls-2" d="M90.15,83c-1.86-3.11-3.91-6.41-7.21-7.91a2.31,2.31,0,0,0-1.35-.28,1,1,0,0,0-.82,1"/><path class="cls-2" d="M84.36,72.62a1.26,1.26,0,0,1-.27.79,2.13,2.13,0,0,1-.82-2.67,1.17,1.17,0,0,1,.58-.6,1.53,1.53,0,0,1,1.15.19A23.72,23.72,0,0,1,95.31,79.6"/><path class="cls-2" d="M87.64,68.75a5.6,5.6,0,0,1-2.31-1.38,1.9,1.9,0,0,1-.11-2.47,2.21,2.21,0,0,1,1-.49,7.57,7.57,0,0,1,3.71.26c3.43.88,6.88,2.28,9.23,4.92"/><path class="cls-2" d="M100.26,68.81a5.33,5.33,0,0,0-1,3.16c-.88,12.67,7.24,21,17.81,28.06"/><path class="cls-2" d="M27.31,93.88l-2.46,3.3s-2.73,0-3,5.2,5.33,10,12.6,12.6,29.89,6.11,39.9,4.94,31.08-9.67,32.44-10.49,10.19-5.23,16.55-6.53,26.65-9.62,30.8-14.82,4.55-9.62,3.51-13.32-1.69-4.14-3-6.52a5.51,5.51,0,0,0-3.75-2.73"/><path class="cls-2" d="M131.2,68.24c.27.35,1.35-.18,1.66-.49a10.63,10.63,0,0,0,1.19-1.48,34.67,34.67,0,0,0,6.19-14"/><path class="cls-3" d="M53.9,83.66a5.29,5.29,0,0,1,1.72,2"/><path class="cls-3" d="M57.32,87.85c.48,1,.93,2,1.34,3"/><path class="cls-3" d="M60.05,93.29l.54,2"/><path class="cls-3" d="M61.49,97.84l.82,2.19"/><path class="cls-3" d="M63,103.17q.09.58.21,1.17c0,.06,0,.14.1.15s.09-.12,0-.1"/><path class="cls-3" d="M24.85,97.18s-1.18,9.09,17.87,11.13,48,1.07,50.45.75"/><path class="cls-3" d="M127.79,91s10.63-4.69,15.39-8,11.33-9,10.49-16"/><circle class="cls-3" cx="90.15" cy="82.97" r="2.01"/><circle class="cls-3" cx="95.93" cy="79.25" r="2.01"/><circle class="cls-3" cx="100.21" cy="70.09" r="2.01"/></g></svg>