<svg xmlns="http://www.w3.org/2000/svg" viewBox="0 0 180 152"><defs><style>.cls-1,.cls-2,.cls-3{fill:none;}.cls-2,.cls-3{stroke:#fff;stroke-linecap:round;stroke-linejoin:round;}.cls-2{stroke-width:2.27px;}.cls-3{stroke-width:1.36px;}</style></defs><title>1</title><g id="Layer_2" data-name="Layer 2"><rect class="cls-1" width="180" height="152"/><path class="cls-2" d="M16.06,34.66c0-3.33.82-7,2.16-7.89s5.89-1.28,7.25-1,3.93.1,7.39-1.15,6.34-1,6.63-2.05,1.29-5.61.83-6.51,5-.82,8.48,1.26,8,6.55,9,9.11,7.9,3.68,9.24,2c0,0-1,3.94-2.52,4.11,0,0,6.7,3.4,6.76,8.54s2,13.43,3.52,15.53c0,0-4.08,0-4.85-1.3,0,0-1.57,8.79-3.43,10.93S61.44,72.72,61.18,76,60,87.34,60.73,88.69s-6.8.54-8-1.87S47,81.6,44.44,80,37.24,72.05,33,71.19,25.39,68,24.9,64.94s-1.49-10.72-1.49-10.72a6.6,6.6,0,0,1-5.15-.54C16,52.2,17,49,17.13,47.8c0,0,8.16-.25,9.33-3.29s.37-6.51-1-7.4S18.92,34.32,16.06,34.66Z"/><path class="cls-2" d="M45.22,27.34s3.2-4.12,6.55-2.5,4,5.24,1.61,7.69a12.34,12.34,0,0,1-5.86,3.1"/><path class="cls-2" d="M39.49,22.57s2.38,6,.72,9.07.12,9.29.76,10.65c0,0-5,6.07-6.67,6.77s-8.13,5.51-10.89,5.16"/><path class="cls-3" d="M17.19,34.63a8.12,8.12,0,0,0,.45,4.88s.8-3.69,2.09-4.5"/><path class="cls-3" d="M18.1,47.74s-.76-.62-.59-4c0,0,1.42,3.2,3.74,3.57"/><path class="cls-3" d="M31,28.55a2.36,2.36,0,0,1,1-.08,1.15,1.15,0,0,1,.83.65,1.16,1.16,0,0,1-.82.73,2.92,2.92,0,0,1-1.46-.12c-.22-.06-.95-.32-.69-.84C30,28.58,30.74,28.6,31,28.55Z"/><path class="cls-3" d="M16.75,29.36s4.36.92,4.78-3.5"/><path class="cls-2" d="M71.43,43.07s3.71,9.6,11.15,12.31c8.43,3.07,23.43,5.49,27.63,6s13.19,2.9,16.8,10.91,4.12,21.15,4,24.44,1.73,11.32,3.12,13.34,3.82,6.42,3.19,10.62.83,11.67.83,11.67-.65,3.07-1.78,3.43a4.46,4.46,0,0,1-2.26,0s-3.73,1.06-4,.5-3.27.78-3.58-.92a3.42,3.42,0,0,1,3.35-4.07s.57-9.13.38-10.26-5.77-8.49-8-11.76S115,99,113.07,96.8s-10.69-2.07-13.7-1C93.65,98,75.46,100.09,66.26,96c0,0-3.68,20-3.62,24.69s1.41,10,1.73,11.83-4.26,3.62-8,3.37-5.78-2.5-5.19-3.72,1.47-3.49,3.27-4.27,1.92-4.26,1.92-4.26-1-10.27-1.39-13.89-4.51-25.56-4.51-25.56"/><path class="cls-2" d="M45.89,80.89s-.23,12.37.18,14.33,3.85,12.2,3.9,15.68-.31,11.79-1,13-5.1,3.09-4.62,5.66,2.32,4.05,6.84,2.63"/><path class="cls-2" d="M114.49,98.55s-2.25,7.49-2.22,9.87,2.34,11.42,2.51,12.9S111.85,129.06,110,132s-4.5,2.61-6.77,2.29-5.33,0-5.23-1.4.49-5.45,4.81-4.83l4.35-5.61s-1.56-7.24-2.17-10.74-4.36-16.18-4.36-16.18"/><path class="cls-2" d="M125.77,70c2,1.18,3.2,4.49,12.46,7.17s17.5-8.83,19-13a4.92,4.92,0,0,1-.06-4.31,12.18,12.18,0,0,1,4.1-5.19c1-.69,2.76,3.14,2.63,5s-1.68,5-3.11,5.48A71.5,71.5,0,0,1,153.33,76a16.5,16.5,0,0,1-14.21,5.77,32.92,32.92,0,0,1-9.78-2"/><path class="cls-2" d="M157.27,64.2s.55,1.58,3.56.94"/></g></svg>