<svg xmlns="http://www.w3.org/2000/svg" viewBox="0 0 180 152"><defs><style>.cls-1,.cls-2,.cls-3{fill:none;}.cls-2,.cls-3{stroke:#fff;stroke-linecap:round;stroke-linejoin:round;}.cls-2{stroke-width:2.27px;}.cls-3{stroke-width:1.36px;}</style></defs><title>1</title><g id="Layer_2" data-name="Layer 2"><rect class="cls-1" width="180" height="152"/><path class="cls-2" d="M115.89,106.68c4,1.29,22.27,4.36,28,4.44s11.3-1.29,13.15-2.34,8.23-5.24,7.75-13.39-8.55-15.57-14.2-18.31-10.17-3.88-14.6-4-8.39,1.54-10,3-3.14,3.3-3.3,5.16,1.77.73,2.26,0,3-3.39,8.47-3.39,11.61,3.55,17.1,7.75S156,94.1,156,94.1s-1.53,2-5.64,3-12.59-1-18.56-2.9-15.81-9-20-12.91-18.24-12.18-24-15a105.79,105.79,0,0,0-18.07-6.7,37.82,37.82,0,0,1-11.38-5.16c-2.66-1.7-5.24-5.81-8.79-8.39s-10.87-3.57-10.87-3.57C38.51,41.9,37,41.18,35.9,41s-3.26.31-4.23-.6-3.63-.79-5-.3-6,3-7.81,3.63-2.94,2.79-3.57,4c-.46.89,1.31,2.34,2.52,3.23a24.48,24.48,0,0,0,8.88,4.19c3.87.73,7.18.33,8.63.49"/><path class="cls-2" d="M156,94.1s.65,5.4-3.46,8.31S139.61,104.5,136.7,104s-11.37-2.82-11.37-2.82"/><path class="cls-2" d="M24.74,54.63s5.23,3.81,6.77,5.26,6.37,6.38,7.58,8.71,5.32,7.91,8.07,8.8"/><path class="cls-2" d="M45.62,70.46s3.55,11.37,4.28,13.8a46.84,46.84,0,0,1,1.29,10.4c.16,4.12,1.05,7.5,0,7.83a8.53,8.53,0,0,1-5.2-.33,33.17,33.17,0,0,0-5.92-1.43c-.89-.08-3.48,1.35-3.48,2.08"/><path class="cls-2" d="M43.45,103.94a31.4,31.4,0,0,0-5.09-1.13c-1.29,0-3.14.24-3.87,1.69s-.56,2,0,1.86a11.81,11.81,0,0,1,2.46-.64c.32.08,5.85.51,5.85.51"/><path class="cls-2" d="M43.45,106.25a16.86,16.86,0,0,1-1.86,1.32c-.4.16-1.45,1.29,0,1.37a7.38,7.38,0,0,0,3.63-1.13c1.05-.48,5.08-.72,6.86-.56a5.14,5.14,0,0,0,5.24-2.75c1.37-2.42,2.34-4.51,1.78-10S56,77.72,56,77.72"/><path class="cls-2" d="M57.36,84.3s6,4.07,8.27,5.52,12.91,7,17.43,8.31a35.24,35.24,0,0,0,9.27,1.17"/><path class="cls-2" d="M48.49,79.67s-.4,13.88-.56,14.36-1.45,1-2.83.89a20.57,20.57,0,0,0-4.78,0c-1.1.28-2,.52-2.28,1.81s-.22,2.34.78,1.69a4.29,4.29,0,0,1,3-.72c1,.16,2.51.56,2.51.56"/><path class="cls-2" d="M44.67,97.54s-.65,2.37.24,3.26,1.35-1.4,2.25-1.76a15.36,15.36,0,0,0,2.89-1.31c.66-.49,1.14-3.07,1.14-3.07"/><path class="cls-2" d="M100.77,105.11a45.7,45.7,0,0,1-5.77-3c-2.83-1.77-3.31-4.68-3.63-7.1s.48-3.87,2.9-5.4,8,0,8,0"/><path class="cls-2" d="M106.69,96.7a106.18,106.18,0,0,1,7.59,7.8c1.61,2.18,3.06,4,2.17,5.73s-2.06,2.42-4.74,1.86-6.95-1.39-9-1.64-3.47-.56-4.92,0-3.15,1.46-3.19.65.29-2.5,1.58-2.91,2.34-.64,2.34-.64a29.27,29.27,0,0,0-4.6-1,7.69,7.69,0,0,0-4.58,1.9c-.85.84-1.39.46-1.27-.83s1.68-2.76,2.51-3.28a5.89,5.89,0,0,1,4-.51l7.14,1.45"/><circle class="cls-3" cx="31.09" cy="48.74" r="1.28"/></g></svg>