<svg xmlns="http://www.w3.org/2000/svg" viewBox="0 0 180 152"><defs><style>.cls-1,.cls-2,.cls-3,.cls-4{fill:none;}.cls-2,.cls-3,.cls-4{stroke:#fff;stroke-linecap:round;stroke-linejoin:round;}.cls-2{stroke-width:1.36px;}.cls-3{stroke-width:2.27px;}.cls-4{stroke-width:1.81px;}</style></defs><title>1</title><g id="Layer_2" data-name="Layer 2"><rect class="cls-1" width="180" height="152"/><circle class="cls-2" cx="50.51" cy="25.55" r="1.25"/><path class="cls-3" d="M63.74,73.26c3.39-.12,12.46,3.15,15.13,4.12s21.29,9.43,29.15,12.1A59.51,59.51,0,0,0,127,93c5.57.13,9-1.77,12.5-2s12.91-.24,14-.57,1.29-1.13.64-1.37-3.63-.16-6.53-1.37-23.07-9.92-26.46-11.61S89.11,61.12,81.61,60s-11.54,0-11.54,0c-.88-2.09-1-4.27-1.53-7.34s-.48-14.51-1.45-21.77S61.93,17.81,53.86,18,42.57,23.62,41,27.33c0,0-12.42,7.94-13.69,8.85s-2.12,2.12-1.57,2.54.66,1.27,4.23.54,17.25-3.79,17.25-3.79c1,.25,2.74,2.26,5,2.91a3.93,3.93,0,0,1,1.13,2.09v6.7c0,1.85-1.7,5.16-6.13,10.08s-9.6,12.5-9.6,19.93,2.26,17.5,14.27,24.76a66.44,66.44,0,0,0,38.58,9.38c12.7-.91,14.94-2.85,18.09-2.61s13.67,1.09,21,.37,5-1.41,4.78-1.82-4.84-1.53-5.89-3.47-3-3.38-2.67-10.85"/><path class="cls-3" d="M47.17,35.47a8.8,8.8,0,0,0-1.76-3c-1.21-1.27-2.48-2.24-3.08-2.78A9.62,9.62,0,0,1,41,27.33"/><path class="cls-3" d="M48.07,99.32c-3.81-5.27-2.84-13-2-16.86s5.38-10.34,11.37-16.34C62.29,61.28,70.07,60,70.07,60"/><path class="cls-3" d="M52.81,49.23a14.47,14.47,0,0,1,8.21.26,23.78,23.78,0,0,1,7.78,4.87"/><path class="cls-3" d="M50.88,52.65a12.46,12.46,0,0,1,6.81,0,17.11,17.11,0,0,1,9.64,8"/><path class="cls-3" d="M134.28,107.26s14.91-1.21,20.2-3.39c0,0-10.36-4.27-17.62-4.92S126,98.31,126,98.31"/><path class="cls-3" d="M149.4,102s2.71-4,2.38-6.5a13.23,13.23,0,0,0-1.85-4.84"/><path class="cls-4" d="M81.89,111.34S78.14,125.17,77.66,126s-4.72-.49-6-1-3.75-1.58-3.39-.85,4.11,3.15,3.63,3.75-5.45.85-8.23,1.82-3,2.66,0,2.3,9.92-.73,10.89-.73-.12,1.94,0,2.54,2.54-.73,4.36-1.45,2.8-3,3.22-5.24c.5-2.68,3.59-15.72,3.59-15.72"/><path class="cls-4" d="M92,111.2s-2,9.73-2,10.58,2.83,3.27,2,3.63-4.5-1-5.47-.73-4,.79-4,.79L83.91,119a9.14,9.14,0,0,0,3.38-2.56,21.81,21.81,0,0,0,1.62-5"/><path class="cls-2" d="M39.72,31.4a7.31,7.31,0,0,0-.83.24"/></g></svg>