<svg xmlns="http://www.w3.org/2000/svg" viewBox="0 0 180 152"><defs><style>.cls-1,.cls-2{fill:none;}.cls-2{stroke:#fff;stroke-linecap:round;stroke-linejoin:round;stroke-width:2.27px;}</style></defs><title>1</title><g id="Layer_2" data-name="Layer 2"><rect class="cls-1" width="180" height="152"/><path class="cls-2" d="M85.49,86.25c-2.1-3.44-8-8.6-8.6-10.89A14.56,14.56,0,0,0,75,71.15s-6.69-.57-9.37-3.82c0,0,6.5.09,8.89-1,0,0,3.92-5.73,5-7s1-7.64,1-7.64,3,6.78,2.3,9.56a35,35,0,0,1-2.49,6.3s2,6.31,2.49,6.79,6.45,4.68,6.45,4.68a78.92,78.92,0,0,1,5-6.5c1.24-1.14,2-1.14,4.59-2.77s2.39-12,2.39-13.86,3.63-1,4.2-.09.29,2.67,0,6,.1,7.74-.09,8.6-3.44,4.21-3.44,4.21,9.75.38,10.8.57.76,1.15-.48,2-7.27.48-9.08,1-5.64,1.06-6.41,1.92a13.52,13.52,0,0,0-2.29,5.16c-.19,1.53-.38,12,0,13.57s.77,2.58-1.24,3.44-5.26,2-6.12,1S84,99.64,84,99.64a30.1,30.1,0,0,0,1.72-4.5C86.16,93.23,85.49,86.25,85.49,86.25Z"/><path class="cls-2" d="M84.35,100.12a31.73,31.73,0,0,0-5.93,2.17c-2.11,1.17-4.21,5-4.69,6.77a6.21,6.21,0,0,0-3.92,1,6.88,6.88,0,0,0-3.15,5.37S63.22,118,63.12,122a23.41,23.41,0,0,0,.48,6.11"/><path class="cls-2" d="M73.73,109.06s3.16.3,3.64,1.92-1,7.14-1,7.14-1.44-.15-2.87,2.5a19.69,19.69,0,0,0-2,8.84"/><path class="cls-2" d="M76.41,118.12a3.94,3.94,0,0,1,2.49,2c.66,1.54.09,6.62,0,8.61"/><path class="cls-2" d="M77.45,112.24s5.56.54,6.51,4.52c0,0,7-1.28,6.12,12.55"/><path class="cls-2" d="M91.23,103.05s6,.71,8.5,3.07,1.91,7.21,1.91,7.21a8.58,8.58,0,0,0-3.91,7,48.41,48.41,0,0,0,.38,7.8"/><path class="cls-2" d="M101.64,113.33s3.16,1.4,4,4,.67,10.45.67,10.45"/><path class="cls-2" d="M101,108s5.44-.41,10.22,6.73c0,0,5.26.3,6.31,4.53a20.26,20.26,0,0,1,.48,7.55"/><path class="cls-2" d="M67.48,112.53a15.68,15.68,0,0,0-9.23,3.89c-4.11,3.76-5,10.39-5,10.39"/><path class="cls-2" d="M83.27,115.24s-2.17-7.93,3.56-12.09"/><path class="cls-2" d="M82,81.86c-2.09,2.56-8.47,4.75-12.19,1.26-6.08,2.89-15,1-19.91-7A9.44,9.44,0,0,1,42,59.19a5,5,0,0,1,.7-3.5c1-1.47,1.92-1,2.82-1.13A3.78,3.78,0,0,1,45.36,52a7.31,7.31,0,0,1,5.39-4.22,14.29,14.29,0,0,1,10.56,2.52l1.38-.9a4,4,0,0,1-.13-7.4,8.54,8.54,0,0,1,3.6-6.4A14.68,14.68,0,0,1,73.22,33a11.52,11.52,0,0,1,6,.65,5.86,5.86,0,0,1,3.6,4.63A13.56,13.56,0,0,1,95.35,22.56c3.64-.24,7.94,1.78,8.24,5.42a3.4,3.4,0,0,1,5.4,3.33,4.91,4.91,0,0,1,6.47,0,5.15,5.15,0,0,1,.44,6.45c4.36-1.91,9.4,1.37,11.9,5.43a20.58,20.58,0,0,1,1.36,18.63c4.46-.36,8.81,2.52,10.89,6.48s2.59,6.81,1.31,11.1c-.36,1.18-1.16,3.69-2.63,4.9a16.6,16.6,0,0,1-3.82,2.42c-3.17,1.56-6,1.4-9.5,1.49a15.16,15.16,0,0,1-10-3,4.18,4.18,0,0,1-6.61-.3c-4.81,1.6-9.2.24-14.12-1"/></g></svg>