<svg xmlns="http://www.w3.org/2000/svg" width="86.453" height="88.904" viewBox="0 0 86.453 88.904">
    <defs>
        <style>
            .prefix__cls-1{fill:none;stroke:#fff;stroke-linecap:round;stroke-linejoin:round;stroke-width:1.75px}
        </style>
    </defs>
    <g id="prefix__mangroves" transform="translate(-1233.724 -800.085)">
        <path id="prefix__패스_874" d="M1275.806 855.455c-1.712-2.8-6.538-7-7-8.873a11.721 11.721 0 00-1.557-3.425s-5.449-.467-7.629-3.113c0 0 5.293.078 7.239-.779 0 0 3.192-4.67 4.047-5.682s.779-6.227.779-6.227 2.413 5.526 1.868 7.783a28.7 28.7 0 01-2.024 5.138 49.675 49.675 0 002.024 5.526c.389.389 5.256 3.814 5.256 3.814a63.113 63.113 0 014.084-5.293c1.012-.934 1.635-.934 3.736-2.258s1.946-9.729 1.946-11.286 2.957-.779 3.425-.078.233 2.179 0 4.9.077 6.3-.078 7-2.8 3.425-2.8 3.425 7.939.312 8.8.467.623.934-.389 1.635-5.916.389-7.4.779-4.592.856-5.214 1.557a10.962 10.962 0 00-1.868 4.2c-.156 1.246-.312 9.808 0 11.053s.623 2.1-1.012 2.8-4.281 1.635-4.982.856-2.49-3.036-2.49-3.036a24.042 24.042 0 001.4-3.658c.384-1.543-.161-7.225-.161-7.225z" class="prefix__cls-1" data-name="패스 874" transform="translate(-2.473 -2.611)"/>
        <path id="prefix__패스_875" d="M1274.655 871.076a25.78 25.78 0 00-4.831 1.761c-1.713.959-3.425 4.077-3.814 5.516a5.02 5.02 0 00-3.192.779 5.606 5.606 0 00-2.568 4.377 7.667 7.667 0 00-2.881 5.4 18.9 18.9 0 00.389 4.977" class="prefix__cls-1" data-name="패스 875" transform="translate(-2.25 -6.937)"/>
        <path id="prefix__패스_876" d="M1266.76 879.152s2.569.24 2.957 1.559-.778 5.816-.778 5.816-1.177-.12-2.34 2.038a16.146 16.146 0 00-1.63 7.2" class="prefix__cls-1" data-name="패스 876" transform="translate(-3.001 -7.736)"/>
        <path id="prefix__패스_877" d="M1269.378 887.337a3.207 3.207 0 012.024 1.618c.544 1.26.077 5.4 0 7.016" class="prefix__cls-1" data-name="패스 877" transform="translate(-3.439 -8.546)"/>
        <path id="prefix__패스_878" d="M1270.322 882.029s4.52.439 5.3 3.676c0 0 5.676-1.039 4.981 10.219" class="prefix__cls-1" data-name="패스 878" transform="translate(-3.533 -8.02)"/>
        <path id="prefix__패스_879" d="M1282.77 873.722s4.9.575 6.925 2.494 1.557 5.876 1.557 5.876a6.994 6.994 0 00-3.192 5.7 39.835 39.835 0 00.312 6.356" class="prefix__cls-1" data-name="패스 879" transform="translate(-4.764 -7.199)"/>
        <path id="prefix__패스_880" d="M1292.183 883.011s2.568 1.14 3.269 3.238.544 8.514.544 8.514" class="prefix__cls-1" data-name="패스 880" transform="translate(-5.695 -8.118)"/>
        <path id="prefix__패스_881" d="M1291.582 878.2s4.433-.338 8.325 5.479c0 0 4.281.24 5.137 3.687a16.439 16.439 0 01.389 6.146" class="prefix__cls-1" data-name="패스 881" transform="translate(-5.636 -7.641)"/>
        <path id="prefix__패스_882" d="M1260.038 882.286a12.76 12.76 0 00-7.518 3.172c-3.347 3.058-4.047 8.455-4.047 8.455" class="prefix__cls-1" data-name="패스 882" transform="translate(-1.371 -8.046)"/>
        <path id="prefix__패스_884" d="M1275.544 883.652s-1.773-6.459 2.9-9.843" class="prefix__cls-1" data-name="패스 884" transform="translate(-4.016 -7.207)"/>
        <path id="prefix__패스_885" d="M1270.461 849.269c-1.706 2.084-6.9 3.865-9.932 1.024-4.949 2.355-12.22.856-16.208-5.719a7.687 7.687 0 01-6.38-13.768 4.057 4.057 0 01.573-2.852c.831-1.194 1.558-.779 2.294-.919a3.088 3.088 0 01-.157-2.1 5.974 5.974 0 014.393-3.44 11.631 11.631 0 018.6 2.054l1.127-.736a3.285 3.285 0 01-.112-6.019 6.97 6.97 0 012.931-5.212 11.922 11.922 0 015.753-2.079 9.391 9.391 0 014.926.524 4.774 4.774 0 012.93 3.772 11.041 11.041 0 0110.161-12.822c2.965-.2 6.47 1.451 6.709 4.412a2.77 2.77 0 014.4 2.712 3.984 3.984 0 015.264 0 4.186 4.186 0 01.36 5.25c3.551-1.559 7.656 1.118 9.691 4.421a16.778 16.778 0 011.108 15.17 9.586 9.586 0 018.863 5.281c1.692 3.227 2.11 5.546 1.066 9.036a8.77 8.77 0 01-2.136 3.989 13.474 13.474 0 01-3.113 1.971c-2.584 1.274-4.858 1.141-7.737 1.216a12.361 12.361 0 01-8.11-2.418 3.4 3.4 0 01-5.378-.244c-3.922 1.3-7.493.188-11.5-.824" class="prefix__cls-1" data-name="패스 885"/>
    </g>
</svg>
