<svg xmlns="http://www.w3.org/2000/svg" viewBox="0 0 180 152"><defs><style>.cls-1,.cls-2{fill:none;}.cls-2{stroke:#fff;stroke-linecap:round;stroke-linejoin:round;stroke-width:2.27px;}</style></defs><title>1</title><g id="Layer_2" data-name="Layer 2"><rect class="cls-1" width="180" height="152"/><path class="cls-2" d="M90,43a13.37,13.37,0,0,0-4.79.44c-2.09.63-3,1.7-2.91,2.41,0,0-1.22.2-1.17.92,0,0-2.45.81-2.45,4.23,0,0-1,1.53-.41,2.55s1.84,3.93,3.93,4a12.73,12.73,0,0,0,4.33-1A12,12,0,0,1,90,56"/><path class="cls-2" d="M81.25,57.31A10.29,10.29,0,0,0,76,63.87c-1.33,4.84-.72,7.44,0,8.05a6.28,6.28,0,0,1,2.9-1.12c1.33,0,3.73,2.25,3.57,4a56.62,56.62,0,0,0,0,7.14c.15,1.58,1.83,2.91,7.54,2.91"/><path class="cls-2" d="M78.68,51a15.59,15.59,0,0,0,2.7,2.19c.72.26,2.35-.1,2.25-1.09s-2.5-5.33-2.5-5.33"/><path class="cls-2" d="M85.21,43.46s-5.56-6.92-9.49-8.6"/><path class="cls-2" d="M70.27,38s2.5,4.28,2.6,4.54a50.49,50.49,0,0,1-1.3,6.22c-.28.76,2.11,5.35,2.78,6.32a47.49,47.49,0,0,0,4.33,4.13"/><path class="cls-2" d="M76.7,71.49s-.47,2.12-.62,3.19-7.49,16.13-11.7,22-6,9.87-7,14.23-.07,6.73,3.52,6.12a45.48,45.48,0,0,0,15.45-6.27,24.23,24.23,0,0,0,8.49-11.4c.84-2.45-.58-7.26-.75-8.57s-.75-5.51-.42-7.07"/><path class="cls-2" d="M79.45,108.1c.68,1.45,4.81,6.58,10.55,6.58"/><path class="cls-2" d="M76.26,73.61s-5.23-.54-6-.54-4.9.54-5.66-1.22-.92-4.59-.61-5.2,2.29-.92,3.13,0,2.41,3.52,2.93,3.74S76,71.92,76,71.92"/><line class="cls-2" x1="64.98" y1="66.12" x2="60.02" y2="62.06"/><path class="cls-2" d="M75,77.21s-4.15.3-5.83,2.74-1.62,4.79,1.56,5.84"/><path class="cls-2" d="M68.37,81.5a2.62,2.62,0,0,0-2.92.52,19.59,19.59,0,0,0-3.67,4.13c-.23.69-.93,2.29.72,2.6s2.79,1.29,7.38-1.3"/><path class="cls-2" d="M61.44,87.69a22.54,22.54,0,0,0-7.23.68"/><path class="cls-2" d="M90,43a13.37,13.37,0,0,1,4.79.44c2.09.63,3,1.7,2.91,2.41,0,0,1.22.2,1.17.92,0,0,2.45.81,2.45,4.23,0,0,1,1.53.41,2.55s-1.84,3.93-3.93,4a12.73,12.73,0,0,1-4.33-1A12,12,0,0,0,90,56"/><path class="cls-2" d="M98.75,57.31A10.29,10.29,0,0,1,104,63.87c1.33,4.84.72,7.44,0,8.05a6.28,6.28,0,0,0-2.9-1.12c-1.33,0-3.73,2.25-3.57,4a56.62,56.62,0,0,1,0,7.14c-.15,1.58-1.83,2.91-7.54,2.91"/><path class="cls-2" d="M101.32,51a15.59,15.59,0,0,1-2.7,2.19c-.72.26-2.35-.1-2.25-1.09s2.5-5.33,2.5-5.33"/><path class="cls-2" d="M94.79,43.46s5.56-6.92,9.49-8.6"/><path class="cls-2" d="M109.73,38s-2.5,4.28-2.6,4.54a50.49,50.49,0,0,0,1.3,6.22c.28.76-2.11,5.35-2.78,6.32a47.49,47.49,0,0,1-4.33,4.13"/><path class="cls-2" d="M103.3,71.49s.47,2.12.62,3.19,7.49,16.13,11.7,22,6,9.87,7,14.23.07,6.73-3.52,6.12a45.48,45.48,0,0,1-15.45-6.27,24.23,24.23,0,0,1-8.49-11.4c-.84-2.45.58-7.26.75-8.57s.75-5.51.42-7.07"/><path class="cls-2" d="M100.55,108.1c-.68,1.45-4.81,6.58-10.55,6.58"/><path class="cls-2" d="M103.74,73.61s5.23-.54,6-.54,4.9.54,5.66-1.22.92-4.59.61-5.2-2.29-.92-3.13,0-2.41,3.52-2.93,3.74S104,71.92,104,71.92"/><line class="cls-2" x1="115.02" y1="66.12" x2="119.98" y2="62.06"/><path class="cls-2" d="M105,77.21s4.15.3,5.83,2.74,1.62,4.79-1.56,5.84"/><path class="cls-2" d="M111.63,81.5a2.62,2.62,0,0,1,2.92.52,19.59,19.59,0,0,1,3.67,4.13c.23.69.93,2.29-.72,2.6s-2.79,1.29-7.38-1.3"/><path class="cls-2" d="M118.56,87.69a22.54,22.54,0,0,1,7.23.68"/></g></svg>