<svg xmlns="http://www.w3.org/2000/svg" viewBox="0 0 180 152"><defs><style>.cls-1,.cls-2,.cls-3{fill:none;}.cls-2,.cls-3{stroke:#fff;stroke-linecap:round;stroke-linejoin:round;}.cls-2{stroke-width:2.27px;}.cls-3{stroke-width:1.36px;}</style></defs><title>1</title><g id="Layer_2" data-name="Layer 2"><rect class="cls-1" width="180" height="152"/><path class="cls-2" d="M69.82,15.82c-4.55,0-11,1.76-13.91,5.41a3.6,3.6,0,0,0-4.31,1.33C50,25,49.29,31.49,53.42,35c0,0,4.92,16.4,16.4,16.4"/><path class="cls-2" d="M70.15,22.87c-3.73,0-8.41-.25-10.53,2.85s-.67,6.8,0,7.87A13.16,13.16,0,0,0,62,36a2.72,2.72,0,0,0-1.28,2.61c.12,1.88,5.83,8.5,9.11,8.5"/><circle class="cls-3" cx="64.96" cy="28.86" r="1.44"/><path class="cls-2" d="M70.47,15.82c4.56,0,11,1.76,13.91,5.41a3.6,3.6,0,0,1,4.31,1.33C90.27,25,91,31.49,86.87,35c0,0-4.92,16.4-16.4,16.4"/><path class="cls-2" d="M70.15,22.87c3.72,0,8.4-.25,10.53,2.85s.66,6.8,0,7.87A13.16,13.16,0,0,1,78.31,36a2.72,2.72,0,0,1,1.27,2.61c-.12,1.88-5.83,8.5-9.11,8.5"/><circle class="cls-3" cx="75.33" cy="28.86" r="1.44"/><path class="cls-3" d="M69.82,41.55a8.78,8.78,0,0,0-2.65.53"/><path class="cls-3" d="M69.82,41.55a8.71,8.71,0,0,1,2.65.53"/><path class="cls-2" d="M85.76,38.67s7.74,6.41,9.56,7.69C98.47,48.58,109.17,56.5,113.65,66s7.29,18,4.08,30.36-7.88,27.4-11.3,28.19-14,1.61-17.93.3-7.45-2.61-7.45-2.61"/><path class="cls-2" d="M69.9,59.64s-2.68,28.23-3.53,30.69-15.66,27.18-16.91,28-7.26,4.94-8.7,9.12-.21,3.81-.21,3.81-.85,3.34.44,3.74c0,0,3,1.58,3.88.87A7.35,7.35,0,0,0,49,134c1.4-1.56.94-5,2.72-7.49s3.3-4.4,5.61-4.71l2.31-.3S73,106,75.12,102.49"/><path class="cls-2" d="M61.85,48.35s-3.16,10.22-2.71,15,7.23,26.93,7.23,26.93"/><path class="cls-2" d="M49.59,133s-.12,2.52,1.94,2.75a5,5,0,0,0,3.37.19s3.3.67,4-.95,1.17-3.78,2.3-4.59,9.65-2.63,12.42-3.34,4.78-1.92,7.58-7.76S92.87,99.7,92.87,99.7"/><path class="cls-2" d="M107.48,102s-6.93-14.7-12.36-17.19S86.23,80,81.61,88.24a91.43,91.43,0,0,0-8.45,20.27,53.14,53.14,0,0,1-4.72,10.76c-.06.43-8.79,2.24-8.79,2.24"/><path class="cls-2" d="M41.33,126.18s-1.69,1.68-2.89-.16,1-6.2,3.36-8.25,6.38-1.93,6.94-2.12,5.54-9.18,5.54-9.18.13-21,8.36-28.82"/><path class="cls-2" d="M109.23,121.51c2.57.91,4.52,3.4,13,2.74,10-.78,14.7-12.45,14.7-29.21,0-14.86.61-52.62,3.53-60.06s.85-8.29-1.46-7.56-3.45,6.68-4.13,12.39-.92,14-1.77,27.89,0,26.61-1,34.31c-.45,3.58-1.68,13.37-6.58,16.65s-14.63-.72-14.63-.72"/></g></svg>