<svg xmlns="http://www.w3.org/2000/svg" width="114.006" height="58.748" viewBox="0 0 114.006 58.748">
    <defs>
        <style>
            .prefix__cls-1{fill:none;stroke:#fff;stroke-linecap:round;stroke-linejoin:round;stroke-width:1.75px}
        </style>
    </defs>
    <g id="prefix__mussel" transform="translate(-682.566 -484.857)">
        <path id="prefix__패스_823" d="M795.7 510.814c0-4.241-4.014-6.466-30.068-15.633s-52.94-15.633-70.929 0-10.764 33.2-3.341 38.89c12.592 9.657 33.666 13.106 68.1 0s36.238-16.96 36.238-23.257z" class="prefix__cls-1" data-name="패스 823"/>
        <path id="prefix__패스_824" d="M763.958 494.19c-12.934-3.949-28.864-6.439-40.043-2.07s-19.659 12.98-20.559 25.18 13.62 19.274 25.827 20.816 21.338-.311 33.284-3.432" class="prefix__cls-1" data-name="패스 824" transform="translate(-3.005 -.618)"/>
        <path id="prefix__패스_825" d="M781.519 528.684c-9.011 3.709-25.834 6.022-37.527 3.581s-28.012-10.408-17.6-26.47 27.956-13.491 38.328-11.82" class="prefix__cls-1" data-name="패스 825" transform="translate(-5.992 -1.058)"/>
        <path id="prefix__패스_826" d="M783.6 500.324c-4.815-1.739-19.8-6.706-30.589-2.08s-16 12.787-16.19 18.247 7.969 12.424 19.467 14.569c5.906 1.1 16.233 1.394 31.438-3.665" class="prefix__cls-1" data-name="패스 826" transform="translate(-8.073 -1.603)"/>
        <path id="prefix__패스_827" d="M795.383 504.182c-6.507-2.512-17.251-5.927-25.312-2.784s-13.39 9.43-11.887 15.714 11.75 10.247 21.041 10.384 17.751-2.118 20.8-4.273" class="prefix__cls-1" data-name="패스 827" transform="translate(-11.266 -2.179)"/>
        <path id="prefix__패스_828" d="M808.594 509.142c-4.749-2.489-14.137-5.583-17.689 1.66s3.42 18.042 16.125 11.89" class="prefix__cls-1" data-name="패스 828" transform="translate(-16.114 -3.112)"/>
    </g>
</svg>
