<svg xmlns="http://www.w3.org/2000/svg" viewBox="0 0 180 152"><defs><style>.cls-1,.cls-2{fill:none;}.cls-2{stroke:#fff;stroke-linecap:round;stroke-linejoin:round;stroke-width:2.27px;}</style></defs><title>1</title><g id="Layer_2" data-name="Layer 2"><rect class="cls-1" width="180" height="152"/><path class="cls-2" d="M153,72.21c0-4.76-4.51-7.26-33.75-17.54s-59.41-17.55-79.6,0S27.56,91.92,35.89,98.31c14.14,10.84,37.79,14.71,76.43,0S153,79.28,153,72.21Z"/><path class="cls-2" d="M114,52.86c-14.51-4.43-32.39-7.23-44.93-2.32S47,65.1,46,78.8s15.29,21.63,29,23.36,23.94-.35,37.35-3.85"/><path class="cls-2" d="M130.35,91.08c-10.11,4.16-29,6.75-42.11,4S56.8,83.41,68.48,65.39s31.37-15.14,43-13.27"/><path class="cls-2" d="M130.35,58.64c-5.4-2-22.21-7.53-34.33-2.34s-18,14.35-18.17,20.48,9,13.94,21.85,16.35C106.33,94.37,117.92,94.7,135,89"/><path class="cls-2" d="M140,62.32c-7.3-2.82-19.36-6.65-28.41-3.12s-15,10.58-13.34,17.63,13.19,11.5,23.62,11.65,19.92-2.37,23.34-4.79"/><path class="cls-2" d="M149.38,66.84c-5.33-2.79-15.87-6.27-19.85,1.86S133.36,89,147.62,82.05"/></g></svg>