<svg xmlns="http://www.w3.org/2000/svg" viewBox="0 0 180 152"><defs><style>.cls-1,.cls-2,.cls-3{fill:none;}.cls-2,.cls-3{stroke:#fff;stroke-linecap:round;stroke-linejoin:round;}.cls-2{stroke-width:2.27px;}.cls-3{stroke-width:1.36px;}</style></defs><title>1</title><g id="Layer_2" data-name="Layer 2"><rect class="cls-1" width="180" height="152"/><path class="cls-2" d="M155.12,36.74s.87,1.54.94,6a39.92,39.92,0,0,1-.94,10.44c-.67,2.34-3.48,6.43-5.15,8.44s-10.58,9.1-12.46,10.17-3,1.21-3.55,1.81-4.08,4.82-5,5.69c0,0,4.35,1.88,5,2.68a9.55,9.55,0,0,1,2.41,4.35c.6,2.41,1.47,6,1.27,7.63a24.65,24.65,0,0,1-.87,3.22c0,.33.81,4,.6,5.22s-.33,2.21-.8,2.21-.94-.94-1-1.74-1.21-1.88-1.21-1.88-2.94,6.23-3.48,6.3-1.41-.27-.94-2.48a19.58,19.58,0,0,0,.47-3.68s-4.21,3-5,3c-1.94,0-1.34-1-.6-1.61s2.61-2.54,2.61-2.54a34.31,34.31,0,0,1-4.82.4c-1-.13-1.68-1.07-.4-1.4a37.94,37.94,0,0,0,4.28-1.81s-2.94-.54-2.74-.94a2.61,2.61,0,0,1,2.47-1.2c1.48.06,2.88-.27,2.88-1.48s.14-3.41.14-4.08a1.65,1.65,0,0,0-1.54-1.61c-1.07-.13-7-1.47-7-1.47"/><path class="cls-2" d="M121.24,84.88s-3.95,6.09-4.75,6.83-3.95,2.94-4.29,3.61-2.34,1.54-3.21,1.54-2.28,1.14-3.41,1.81-5.49,1.34-6.1,1.54-1.74,1.4-2.27,1.34a21.23,21.23,0,0,0-2.88,0c-.34.06-2.08,1.27-3.48,1.2a50.19,50.19,0,0,0-5.9.87c-1.07.14-3.41.07-4.08.4A30.3,30.3,0,0,1,78,105"/><path class="cls-2" d="M77.66,103.49s2.81,4.48,3.14,5,1.81,3.21,0,4.55-8.77,5-9.44,5.56A24.5,24.5,0,0,1,65.74,121c-.87.13-3,1.84-3.48,2.11s-1.94,1.64-2.55,1.57a1.27,1.27,0,0,1-.57-2c.71-.77,2.61-2.61,2.61-2.61s-4.15.37-5.28.41-4.09.23-4.12-.27a2.12,2.12,0,0,1,1.54-1.64c.83-.2,7-1.28,7-1.28s-5.56-.3-5.69-.5-1.94-.93-.87-1.6,6.29,0,6.62-.07a32.82,32.82,0,0,0,4.56-.44c.6-.26,6.66-4.38,6.66-4.38A7.18,7.18,0,0,0,69.76,109a36.17,36.17,0,0,1-5.09-2c-.44-.3-1.31-.14-2.15-.3a10.92,10.92,0,0,1-2.57-.81c-.64-.33-3.33.45-4.84,0s-4.57.25-7.18.4-3.32-.7-4.67-.35-8.54-.9-10.8-1.75a32.36,32.36,0,0,1-7.28-4.22,15.89,15.89,0,0,1-2.56-2.78c-.53-2.68-1.74-4.42,1.34-7s5.36-3.89,5.89-4.62,1.61-3.22,3.75-3.49,2.88.34,2.88.34a8.64,8.64,0,0,1,6.16-2.54c4-.07,12.45,1,15.47.8s9.17-.74,11.91-2.08A171.39,171.39,0,0,1,87.22,72c3.89-1.07,23.38-7,26.12-8.57s8.17-1.94,10.11-2.07,10.92-3.22,13.26-5,15.4-10.24,17.81-13.86,0-8.1-1.88-9.71-5.89-4.48-9.71-4.75a70.58,70.58,0,0,0-8.83,0c-.54.07-2.21-.94-3.55-.8s-2.81,1-3.55,1.07a14.65,14.65,0,0,0-3,.06c-.8.27-1.47.74-2.41.47s-3.88-.13-4.35.41S116,30,114.48,30A5.31,5.31,0,0,0,110.06,32c-1.14,1.54-4,3.89-5.09,5s-1.94,2.35.14,3.42,4,.74,4.35,1,.33,1.14,2.27,1.14,4.62-.2,7.1-.27a33.6,33.6,0,0,0,6.56-.6,36.45,36.45,0,0,1,12.39-.07c4.22.88,10.73,4.5,11.47,5.83"/><path class="cls-2" d="M63.18,80.18a37,37,0,0,0,.55-4.61c-.13-.54-1.81-1.74-2.48-2.14S48.6,80.14,48.6,80.14"/><path class="cls-2" d="M109.53,65s-2-5.24-4-5.65-4.09,1-6,4.52c0,0-6.1,1.91-7.1,2.41s-1.61,1.51,3.11,1.31l-3,2.85"/><path class="cls-3" d="M33.28,97.6c.13-1.08,3.51-.84,4.2,0s.76,2-.69,2.06S33.12,98.82,33.28,97.6Z"/></g></svg>