<svg xmlns="http://www.w3.org/2000/svg" viewBox="0 0 180 152"><defs><style>.cls-1,.cls-2,.cls-3{fill:none;}.cls-2,.cls-3{stroke:#fff;stroke-linecap:round;stroke-linejoin:round;}.cls-2{stroke-width:2.27px;}.cls-3{stroke-width:1.36px;}</style></defs><title>1</title><g id="Layer_2" data-name="Layer 2"><rect class="cls-1" width="180" height="152"/><path class="cls-2" d="M90.26,60c-13,5.54-20,7.31-25.43,6.9-7.33-.55-16.54-2.16-25.31-3.6a47.06,47.06,0,0,1-9,15.37c-1.87,2.14-4,4.24-4.78,7a16,16,0,0,0-.06,6.2l1.41,11.57a9,9,0,0,0,.95,3.59,9.26,9.26,0,0,0,3.85,3.09,305.88,305.88,0,0,1,29.13,18.15,109,109,0,0,1,35.21-25.12,6.61,6.61,0,0,0,2.64-1.7A6.48,6.48,0,0,0,100,98.58l2.22-11.11c.81-4,1.69-8.58,5.2-11.86"/><path class="cls-2" d="M98.91,101.44s-12-5.93-15.46-6.27-5.61,2.25-9,4.11-4.64,7.69-7,14.13c-3.16,8.54-6.33,14.85-6.33,14.85"/><path class="cls-2" d="M39.52,63.3s23.9,13,25.95,17.06,4.44,5.49,8.72,2.52,12.42-7.39,25.36-7.26"/><path class="cls-2" d="M99.55,75.62c9.23-.19,18.52-.13,27.64,1.29,2.59.4.37-6.79,2.4-8.31s17.63-12.7,21-20.13a101.18,101.18,0,0,0,4-9.32c-4.27.81-8.29-1.31-12.14-3.33-7.87-4.13-15.16-2.39-20.69-2.08-6.89.24-14.78-6.18-22-10,0,0-8,36.76-12.58,43.51S75,74.94,71.82,76.34s-3.26,7.72-3.26,7.72"/><path class="cls-3" d="M98.32,65.17a301.23,301.23,0,0,1,43.09-21.62"/><path class="cls-3" d="M106.33,51.85a81.51,81.51,0,0,0,9-9.73"/><path class="cls-3" d="M33.06,105.75c7.74-4.08,16.52-5.65,24.88-8.27,2.77-.86,9-2.11,7.64-4-1.23-2.06-3.89-2.68-6.26-3.1L37,86.42"/></g></svg>