<svg xmlns="http://www.w3.org/2000/svg" viewBox="0 0 180 152"><defs><style>.cls-1,.cls-2,.cls-3{fill:none;}.cls-2,.cls-3{stroke:#fff;stroke-linecap:round;stroke-linejoin:round;}.cls-2{stroke-width:2.27px;}.cls-3{stroke-width:1.36px;}</style></defs><title>1</title><g id="Layer_2" data-name="Layer 2"><rect class="cls-1" width="180" height="152"/><path class="cls-2" d="M130.61,112.86c-7.44,9.07-15.36,14.2-22.66,16.17-14.25,3.85-38.2-6.08-52.8-31.37s-14.06-49-3.3-59.15C55.59,35,69.46,24,77.71,22.56,92,19.68,110.36,32.62,124.05,56.33c13.2,22.87,15.67,46.72,6.57,56.53"/><path class="cls-3" d="M119.8,123.2c-.75.26-3.26.77-4,1C101.55,128,77.6,118.08,63,92.79s-14.1-49.9-3.33-60c.7-.66,1.81-1.75,3.13-2.83"/><path class="cls-3" d="M125.8,118.63c-.73.26-1.44.48-2.15.67-14.25,3.85-38.21-6.08-52.81-31.37S56.26,38.19,67,28.09c.61-.57,1.72-1.57,2.79-2.45"/><path class="cls-3" d="M128.71,115c-14.42,2-36.33-8.22-50-31.93C64.09,57.77,64.63,34,75.4,23.91"/><path class="cls-2" d="M117.42,57.87C129,76.27,131.36,98.12,126,100c-7.35,2.49-22.55-7-34.1-25.36S77.28,35.91,83.82,31.81,105.88,39.47,117.42,57.87Z"/><path class="cls-2" d="M82.12,52.58A86.66,86.66,0,0,1,99.2,72.77a79.75,79.75,0,0,1,9.15,20.73"/><path class="cls-3" d="M81,47.16c6.12,3.26,16.15,14,21.42,22.44a86.37,86.37,0,0,1,10.29,26.94"/><path class="cls-3" d="M100.06,74.17c1-.53,1.72-1.27,2.77-1.79a3.2,3.2,0,0,0,.82-.53,2.91,2.91,0,0,0,.62-1.08c1.83-4.86,7.74-11.66,13.15-12.9"/><path class="cls-3" d="M44.36,60.54a54.94,54.94,0,0,1,9.33-18q3.12,5.57,5.78,11.37a76.3,76.3,0,0,1,9.32-18.22"/><path class="cls-3" d="M48.73,84.87a66.76,66.76,0,0,1,3.56-23.75,74,74,0,0,0,13.94,19c-1.35-7.41-.83-14.81,2.7-21.46"/><path class="cls-3" d="M57.16,100.54A46.19,46.19,0,0,1,57.6,81.2,54.76,54.76,0,0,0,77.45,97.72a31.69,31.69,0,0,1-2.74-22.3"/><path class="cls-3" d="M68.79,115.24c-1.62-5-3.34-12.74-3-18,5.47,6,13.44,8.9,21.39,10.35-3.26-5.24-2.4-9.51-2.66-15.67"/><path class="cls-3" d="M83.68,125.3c-3.79-3.91-5.4-9.75-6.82-15,5.46,1.58,15,4.82,20.56,3.73-2.48-4.33-3.81-7.51-4.19-12.49"/><path class="cls-3" d="M98.38,129.68c-3.63-2.23-5.69-6.45-6.61-9.13,5,1.09,14.31,1.5,18.47-1.48a30.89,30.89,0,0,1-5.08-9.43"/></g></svg>