<svg xmlns="http://www.w3.org/2000/svg" viewBox="0 0 180 152"><defs><style>.cls-1,.cls-2,.cls-3{fill:none;}.cls-2,.cls-3{stroke:#fff;stroke-linecap:round;stroke-linejoin:round;}.cls-2{stroke-width:1.36px;}.cls-3{stroke-width:2.27px;}</style></defs><title>1</title><g id="Layer_2" data-name="Layer 2"><rect class="cls-1" width="180" height="152"/><path class="cls-2" d="M33.8,62.27c.71,2.69,2.84,4.67,8.09,4.67"/><path class="cls-2" d="M41.89,33.74s-6.83,0-9.65,4.76-3.17,11,1.25,18.5"/><path class="cls-2" d="M41.89,58.66c-.61,0-3.69-.09-5,1.11"/><path class="cls-2" d="M50,62.05c-.65,2.8-2.75,4.89-8.15,4.89"/><path class="cls-2" d="M50,62.05c.56-2.4.06-5.32-.34-7.88a8.2,8.2,0,0,0-7.81-7.11,8.21,8.21,0,0,0-7.81,7.11c-.41,2.64-.93,5.66-.28,8.1"/><path class="cls-2" d="M41.89,33.74s6.84,0,9.65,4.76,3.17,11-1.25,18.5"/><path class="cls-2" d="M41.89,58.66c.62,0,3.7-.09,5,1.11"/><circle class="cls-2" cx="47.36" cy="43.55" r="1.27"/><circle class="cls-2" cx="36.42" cy="43.55" r="1.27"/><path class="cls-3" d="M110.49,65.88S100.1,78,98.15,82.58s-7.47,41.08-8.6,43c0,0-4.22,2.43-5.52,6.33s.32,3.51,8.28,4.11,12.66-1.83,14.45-5.65.48-9.34.32-9.83,4.87-19.48,5.36-20.94,13.15-16.07,17.37-21.43,2.76-27.55,1.14-31.15-13.88-8.46-22.85-14.3S90.68,15.86,81.76,15.54a30.36,30.36,0,0,0-21.18,7.63C55.94,27.39,55,28.52,55,28.52s-7-4.7-15.18-1.78-15,7.94-13.72,24.34c1.3,14,10.3,20.52,15.82,20.79a52.59,52.59,0,0,0,13-1.24s-3.17,5.5-2.19,16.58,4.5,17.66,4.5,17.66-2,20.94-2.35,22.64-4.22,1.1-4.1,4.51,3.56,4.14,9.87,4,10.83-.73,12.77-4.75,4.75-8.52,3.41-16.44-.85-10-.85-10,1.22-13,2.68-22.53,1.2-31.26,1.2-31.26"/><path class="cls-3" d="M79.35,74.14s7.76,8.77,18.8,8.44"/><path class="cls-3" d="M132.15,53.68s5.78,19.81,5.94,24.68,3.25,17.7,3.25,17.7,14.41,12.57,14.08,14.35-1.91,9.35-7.75,14.06-9.58,3.73-10.88,2.6-1.46-5,0-8.12.15-4.87.15-4.87-7.46-6.17-10.7-9.09-5.16-16.23-5.16-16.23"/><path class="cls-3" d="M36.45,70s-1,11.29-2.06,18.1a39.23,39.23,0,0,0,1,14.13l-3.18,21.59s-7.14,4.22-7.63,7.47,3.57,4.51,10.39,4.85,4.06.34,6.82.34,7.78-9.25,7.62-10.87,2.12-15.91,1.79-18.67,3.37-9,3.37-9"/><path class="cls-2" d="M36,38.06s5-3.91,11.34,0"/></g></svg>