<svg xmlns="http://www.w3.org/2000/svg" viewBox="0 0 180 152"><defs><style>.cls-1,.cls-2{fill:none;}.cls-2{stroke:#fff;stroke-linecap:round;stroke-linejoin:round;stroke-width:2.27px;}</style></defs><title>1</title><g id="Layer_2" data-name="Layer 2"><rect class="cls-1" width="180" height="152"/><path class="cls-2" d="M149.14,71.94s8.64-2.32,2.13-5.35-17.81-2.81-22.08-6.52S98,47.66,83.06,50,55.57,46.72,51.73,54,34.82,62.62,35.65,72.7s6,8.11,11.12,16.09S66.32,101.62,75,97.23s23.19-12.66,31.54-11.79,27.48-8.39,32.38-10,10.23-3.54,10.23-3.54"/><path class="cls-2" d="M85.4,91.69c-4.61.41-9.23.69-13.85.71-2.88,0-5.91-.12-8.4-1.93s-4.26-5.38-7-7a39.3,39.3,0,0,0-4.37-1.79A5.54,5.54,0,0,1,48.56,78a8.19,8.19,0,0,1,.7-4.54,14.71,14.71,0,0,1,3-5.25c1.79-1.77,4.3-2.47,5.67-4.73.55-.9.86-2,1.33-3,1.36-2.83,3.89-4.47,6.41-5.62A60.68,60.68,0,0,1,77,51.36l5.17-1.22"/><path class="cls-2" d="M103.81,85.45c-10,1.08-10.27,1.45-20.28.82A12.91,12.91,0,0,1,77.83,85a6.92,6.92,0,0,1-3.5-5.35c-.13-1.65.33-3.57-.6-4.8-.62-.81-1.67-1-2.2-1.9a3,3,0,0,1,.11-2.82,7.16,7.16,0,0,1,1.8-2,25.15,25.15,0,0,0,4.93-5.38c.92-1.42,1.67-3,2.61-4.42a18.1,18.1,0,0,1,8.93-6.76c3.42-1.26,8.33-.22,11.89-.65"/><path class="cls-2" d="M153.83,74.72c-11.74,8.44-25.61,19.48-39.43,21.43-3.05.42-6.16.61-9.09,1.65-3.1,1.11-5.88,3.12-8.75,4.85a53,53,0,0,1-35.31,7.14,14.65,14.65,0,0,1-6.35-2.19c-2.83-2-4.46-5.54-6.75-8.28-4.33-5.19-10.8-7.26-17-8.86-3.56-.92-7.34-1.88-10-4.72a12.53,12.53,0,0,1-1.32-14.28c1.15-1.89,2.81-3.36,3.78-5.37,1.75-3.66.88-8.34,2.53-12.05,1.46-3.28,4.57-5.14,7.51-6.7,4.23-2.24,8.58-4.31,13.19-5.18a53.13,53.13,0,0,1,12.35-.36L76,42.61c14.34.7,28.89,1.43,42.56,6.34,10.56,3.79,18.52,5.77,28.17,11.9,2,1.25,7.36,2.62,9.58,3.1,3,.65,5.14.13,5.4,3.07S158.14,71.62,153.83,74.72Z"/><path class="cls-2" d="M119.37,82.86a21.39,21.39,0,0,1-10.32-.51c-1.58-.41-3.59-.55-4.88-1.74a12.53,12.53,0,0,1-3.29-5.55,4.46,4.46,0,0,0-1.45-1.62c-1.41-.75-3.15,0-3.44,0-2.61,0-1.31.09-3.91.41-1.18.14-2.67.15-3.26-1.14a3,3,0,0,1,.43-2.87,7.63,7.63,0,0,1,2.1-1.71,20.75,20.75,0,0,0,5.17-5c1.32-1.81,2.43-3.9,4-5.32a11.89,11.89,0,0,1,3.55-2.06,24.78,24.78,0,0,1,10.25-1.79"/></g></svg>