<svg xmlns="http://www.w3.org/2000/svg" width="130.501" height="63.448" viewBox="0 0 130.501 63.448">
    <defs>
        <style>
            .prefix__cls-1{fill:none;stroke:#fff;stroke-linecap:round;stroke-linejoin:round;stroke-width:1.75px}
        </style>
    </defs>
    <g id="prefix__oyster" transform="translate(-401.481 -483.235)">
        <path id="prefix__패스_818" d="M522.449 512.493s7.745-2.088 1.913-4.807-15.979-2.52-19.812-5.848-27.95-11.138-41.381-9.079-24.667-2.9-28.112 3.671-15.168 7.7-14.42 16.736 5.4 7.28 9.972 14.435 17.538 11.515 25.321 7.573 20.8-11.355 28.289-10.574 24.658-7.524 29.053-8.933 9.177-3.175 9.177-3.175" class="prefix__cls-1" data-name="패스 818" transform="translate(-2.654 -1.215)"/>
        <path id="prefix__패스_819" d="M467.224 530.291c-4.133.371-8.278.624-12.429.644-2.577.013-5.294-.109-7.527-1.74-2.323-1.7-3.822-4.822-6.244-6.289a36.929 36.929 0 00-3.925-1.6 4.957 4.957 0 01-2.927-3.324 7.358 7.358 0 01.627-4.075 13.151 13.151 0 012.686-4.708c1.6-1.591 3.856-2.213 5.084-4.241.492-.813.774-1.788 1.195-2.662a11.067 11.067 0 015.751-5.042 54.171 54.171 0 0110.2-3.136l4.637-1.1" class="prefix__cls-1" data-name="패스 819" transform="translate(-4.614 -1.302)"/>
        <path id="prefix__패스_820" d="M487.225 524.811c-8.931.973-9.214 1.307-18.2.74a11.6 11.6 0 01-5.117-1.186 6.24 6.24 0 01-3.143-4.8c-.117-1.479.3-3.2-.537-4.3-.553-.729-1.5-.9-1.971-1.712a2.713 2.713 0 01.1-2.522 6.4 6.4 0 011.618-1.756 22.547 22.547 0 004.419-4.822c.829-1.277 1.5-2.7 2.346-3.963a16.2 16.2 0 018.012-6.067c3.063-1.129 7.466-.2 10.662-.586" class="prefix__cls-1" data-name="패스 820" transform="translate(-8.093 -1.421)"/>
        <path id="prefix__패스_821" d="M524 513.766c-10.531 7.57-22.973 17.48-35.376 19.224a40.922 40.922 0 00-8.15 1.486c-2.786.991-5.271 2.8-7.847 4.353a47.5 47.5 0 01-31.677 6.4 13.126 13.126 0 01-5.7-1.962c-2.542-1.794-4-4.97-6.054-7.429-3.889-4.655-9.686-6.51-15.221-7.944-3.2-.829-6.585-1.686-8.958-4.233a11.253 11.253 0 01-1.183-12.819c1.032-1.691 2.523-3.012 3.389-4.818 1.573-3.278.791-7.476 2.274-10.808 1.308-2.94 4.093-4.608 6.739-6.009a42.583 42.583 0 0111.831-4.643 47.5 47.5 0 0111.078-.329l15.062.731c12.867.625 25.915 1.283 38.184 5.689 9.47 3.4 16.614 5.171 25.268 10.67 1.763 1.12 6.606 2.356 8.595 2.781 2.734.586 4.612.123 4.851 2.757s-3.236 4.121-7.105 6.903z" class="prefix__cls-1" data-name="패스 821"/>
        <path id="prefix__패스_822" d="M503.835 522.948a19.235 19.235 0 01-9.26-.461c-1.412-.368-3.222-.492-4.379-1.563a11.233 11.233 0 01-2.951-4.979 3.969 3.969 0 00-1.3-1.449c-1.271-.674-2.827-.017-3.091-.017a14.65 14.65 0 00-3.5.361c-1.066.13-2.4.134-2.929-1.018a2.683 2.683 0 01.385-2.575 6.887 6.887 0 011.88-1.539 18.524 18.524 0 004.647-4.519c1.184-1.626 2.181-3.5 3.622-4.777a10.659 10.659 0 013.181-1.845 22.282 22.282 0 019.2-1.607" class="prefix__cls-1" data-name="패스 822" transform="translate(-10.749 -1.873)"/>
    </g>
</svg>
