<svg xmlns="http://www.w3.org/2000/svg" viewBox="0 0 180 152"><defs><style>.cls-1,.cls-2{fill:none;}.cls-2{stroke:#fff;stroke-linecap:round;stroke-linejoin:round;stroke-width:2.27px;}</style></defs><title>1</title><g id="Layer_2" data-name="Layer 2"><rect class="cls-1" width="180" height="152"/><path class="cls-2" d="M88.62,67.5c8,0,7.55-8.42,7.55-12.62,0-6.18-4.75-8.49-7.55-8.49s-7.55,2.31-7.55,8.49C81.07,59.08,80.65,67.5,88.62,67.5Z"/><path class="cls-2" d="M86.7,46.7a20.12,20.12,0,0,1-3.88-9.4"/><path class="cls-2" d="M90.54,46.7a20.12,20.12,0,0,0,3.88-9.4"/><path class="cls-2" d="M82.82,49.36a15.21,15.21,0,0,1-5.31-7.65"/><path class="cls-2" d="M94.42,49.36a15.26,15.26,0,0,0,5.32-7.65"/><path class="cls-2" d="M86.7,67.35a20.12,20.12,0,0,0-3.88,9.4"/><path class="cls-2" d="M90.54,67.35a20.12,20.12,0,0,1,3.88,9.4"/><path class="cls-2" d="M82.82,64.7a15.15,15.15,0,0,0-5.31,7.65"/><path class="cls-2" d="M94.42,64.7a15.2,15.2,0,0,1,5.32,7.65"/><path class="cls-2" d="M48.48,74.72s-6.54,1.35-8.89,6.6-2.78,11.21-.28,12.94,7.93-.77,12-4.83,3-10.65,3-10.65,6.54-1.35,8.89-6.6S66,61,63.52,59.24s-7.93.77-12,4.83S48.48,74.72,48.48,74.72Z"/><path class="cls-2" d="M88.46,99.51a2.65,2.65,0,0,0-.75-.29,2.83,2.83,0,0,0,.78-2,2.84,2.84,0,0,0-3.66-2.75A2.87,2.87,0,0,0,80.6,91.4a2.77,2.77,0,0,0-.62.5,2.87,2.87,0,0,0-5.23-.59,3,3,0,0,0-.28.74,2.87,2.87,0,0,0-4.82,2.1,3,3,0,0,0,.12.79,2.81,2.81,0,0,0-2.07.3,2.86,2.86,0,0,0-1,3.92,2.78,2.78,0,0,0,.5.63,2.82,2.82,0,0,0-1.65,1.3,2.87,2.87,0,0,0,1,3.92,3,3,0,0,0,.75.29,2.82,2.82,0,0,0-.77,1.94A2.8,2.8,0,0,0,70.18,110a2.87,2.87,0,0,0,4.23,3.13,2.77,2.77,0,0,0,.62-.5,2.87,2.87,0,0,0,5.23.59,3,3,0,0,0,.28-.75,2.86,2.86,0,0,0,4.82-2.09,2.9,2.9,0,0,0-.12-.79,2.87,2.87,0,0,0,3.12-4.23,2.52,2.52,0,0,0-.5-.62,2.86,2.86,0,0,0,.6-5.22Z"/><path class="cls-2" d="M118.05,114.65c2.85-.7,5.29-10.13,4.12-14.92s-4.73-8.17-6.59-11.1-3.29-7.55-5.6-7-1.43,5.31-1.74,8.77-1.91,8.09-.74,12.89S115.19,115.35,118.05,114.65Z"/><path class="cls-2" d="M132.29,70.41c3.68-1.22,7.63-4.73,5.65-10.72s-11.23-6.17-13-11.39c1.72,5.22-5.61,10.87-3.63,16.86S128.6,71.63,132.29,70.41Z"/><path class="cls-2" d="M127.84,70.87s-1.38,6.14-.2,10.23"/><path class="cls-2" d="M136.13,68.14s4.77,4.11,6.25,8.09"/></g></svg>