<svg xmlns="http://www.w3.org/2000/svg" width="99.265" height="73.85" viewBox="0 0 99.265 73.85">
    <defs>
        <style>
            .prefix__cls-1{fill:none;stroke:#fff;stroke-linecap:round;stroke-linejoin:round;stroke-width:1.75px}
        </style>
    </defs>
    <g id="prefix__phytoplankton" transform="translate(-687.34 -803.234)">
        <path id="prefix__패스_832" d="M743.124 833.849c7.4 0 7.01-7.822 7.01-11.716 0-5.744-4.414-7.886-7.01-7.886s-7.01 2.142-7.01 7.886c0 3.894-.39 11.716 7.01 11.716z" class="prefix__cls-1" data-name="패스 832" transform="translate(-7.557 -1.581)"/>
        <path id="prefix__패스_833" d="M741.645 812.956a18.72 18.72 0 01-3.6-8.727" class="prefix__cls-1" data-name="패스 833" transform="translate(-7.862)"/>
        <path id="prefix__패스_834" d="M746.556 812.956a18.715 18.715 0 003.6-8.727" class="prefix__cls-1" data-name="패스 834" transform="translate(-9.205)"/>
        <path id="prefix__패스_835" d="M737.117 816.185a14.127 14.127 0 01-4.932-7.1" class="prefix__cls-1" data-name="패스 835" transform="translate(-6.938 -.766)"/>
        <path id="prefix__패스_836" d="M750.834 816.185a14.126 14.126 0 004.933-7.1" class="prefix__cls-1" data-name="패스 836" transform="translate(-9.88 -.766)"/>
        <path id="prefix__패스_837" d="M741.645 837.351a18.72 18.72 0 00-3.6 8.727" class="prefix__cls-1" data-name="패스 837" transform="translate(-7.862 -5.226)"/>
        <path id="prefix__패스_838" d="M746.556 837.351a18.715 18.715 0 013.6 8.727" class="prefix__cls-1" data-name="패스 838" transform="translate(-9.205 -5.226)"/>
        <path id="prefix__패스_839" d="M737.117 834.427a14.127 14.127 0 00-4.932 7.1" class="prefix__cls-1" data-name="패스 839" transform="translate(-6.938 -4.765)"/>
        <path id="prefix__패스_840" d="M750.834 834.427a14.126 14.126 0 014.933 7.1" class="prefix__cls-1" data-name="패스 840" transform="translate(-9.88 -4.765)"/>
        <path id="prefix__패스_841" d="M698.3 842.689s-6.07 1.249-8.257 6.128-2.576 10.409-.254 12.013 7.358-.715 11.147-4.487 2.811-9.892 2.811-9.892 6.07-1.249 8.257-6.128 2.576-10.408.254-12.013-7.357.715-11.147 4.487-2.811 9.892-2.811 9.892z" class="prefix__cls-1" data-name="패스 841" transform="translate(0 -3.718)"/>
        <path id="prefix__패스_842" d="M740.2 871.125a1.038 1.038 0 11.027-2.076 2.666 2.666 0 00-2.666-2.666 1.038 1.038 0 11-1.014-1.812 4.117 4.117 0 01-5.426-2.036 4.117 4.117 0 01-5.717.949 2.666 2.666 0 00-2.666 2.666 1.038 1.038 0 11-1.812 1.014 2.667 2.667 0 00-.975 3.643 1.038 1.038 0 11-1.061 1.784 2.666 2.666 0 00.975 3.642 2.6 2.6 0 00.691.266 8.808 8.808 0 012.962 6.286 4.116 4.116 0 015.426 2.037 4.117 4.117 0 015.717-.949 2.666 2.666 0 002.666-2.666 1.038 1.038 0 111.812-1.015 2.665 2.665 0 00.975-3.642 2.6 2.6 0 00-.465-.576 2.658 2.658 0 00.551-4.849z" class="prefix__cls-1" data-name="패스 842" transform="translate(-4.783 -9.143)"/>
        <path id="prefix__패스_843" d="M774.968 883.745c2.648-.647 4.919-9.4 3.831-13.857s-4.391-7.579-6.125-10.3-3.048-7.008-5.192-6.484-1.334 4.932-1.617 8.148-1.774 7.512-.686 11.965 7.141 11.175 9.789 10.528z" class="prefix__cls-1" data-name="패스 843" transform="translate(-12.082 -7.704)"/>
        <g id="prefix__그룹_345" data-name="그룹 345" transform="translate(765.646 814.437)">
            <path id="prefix__패스_844" d="M790.613 836.879c3.422-1.129 7.087-4.394 5.253-9.954s-10.427-5.729-12.026-10.576c1.6 4.847-5.206 10.1-3.371 15.656s6.723 6.002 10.144 4.874z" class="prefix__cls-1" data-name="패스 844" transform="translate(-780.152 -816.349)"/>
            <path id="prefix__패스_845" d="M787.556 841.235s-1.28 5.7-.189 9.491" class="prefix__cls-1" data-name="패스 845" transform="translate(-781.221 -820.276)"/>
            <path id="prefix__패스_846" d="M796.815 838.219s4.422 3.821 5.8 7.516" class="prefix__cls-1" data-name="패스 846" transform="translate(-782.781 -819.8)"/>
        </g>
    </g>
</svg>
