<svg xmlns="http://www.w3.org/2000/svg" viewBox="0 0 180 152"><defs><style>.cls-1,.cls-2{fill:none;}.cls-2{stroke:#fff;stroke-linecap:round;stroke-linejoin:round;stroke-width:2.27px;}</style></defs><title>1</title><g id="Layer_2" data-name="Layer 2"><rect class="cls-1" width="180" height="152"/><ellipse class="cls-2" cx="90" cy="18.21" rx="9.95" ry="1.6"/><path class="cls-2" d="M80.05,26.59c-.47,0-1.37,1.74,0,3.12,0,.88,4.46,1.6,10,1.6s10-.72,10-1.6c1.37-1.38.47-3.12,0-3.12,0,.88-4.46,1.6-10,1.6S80.05,27.47,80.05,26.59Z"/><line class="cls-2" x1="99.95" y1="18.21" x2="99.95" y2="26.59"/><line class="cls-2" x1="80.05" y1="18.21" x2="80.05" y2="26.59"/><path class="cls-2" d="M81.4,30.51v2.42s1.52,1,8.6,1"/><path class="cls-2" d="M81.4,32.93S72.34,38.3,70.78,48.09,70.43,65,71.5,68.38v39s-2.74,8.24-2.39,12.77,2.48,12.41,6.3,14.44,8.22-.89,8.22-.89,2.05,1.67,6.37,1.67"/><path class="cls-2" d="M98.6,30.51v2.42s-1.52,1-8.6,1"/><path class="cls-2" d="M98.6,32.93s9.06,5.37,10.62,15.16.35,16.94-.72,20.29v39s2.74,8.24,2.39,12.77-2.48,12.41-6.3,14.44-8.22-.89-8.22-.89-2.05,1.67-6.37,1.67"/><path class="cls-2" d="M71.5,68.38s4,2.38,18.5,2.38"/><path class="cls-2" d="M71.5,107.24s4,2.39,18.5,2.39"/><path class="cls-2" d="M108.5,68.38s-4,2.38-18.5,2.38"/><path class="cls-2" d="M108.5,107.24s-4,2.39-18.5,2.39"/></g></svg>