<svg xmlns="http://www.w3.org/2000/svg" viewBox="0 0 180 152"><defs><style>.cls-1,.cls-2,.cls-3{fill:none;}.cls-2,.cls-3{stroke:#fff;stroke-linecap:round;stroke-linejoin:round;}.cls-2{stroke-width:2.27px;}.cls-3{stroke-width:1.36px;}</style></defs><title>1</title><g id="Layer_2" data-name="Layer 2"><rect class="cls-1" width="180" height="152"/><path class="cls-2" d="M48.53,120.78c-.26,1.83,13.24,8.71,15.08,8.83,10.54.68,20.26-4.78,30.75-3.65A63.11,63.11,0,0,1,109,129.37a3.26,3.26,0,0,0,2.36.25,3.18,3.18,0,0,0,1.11-1l6.33-7.81a5,5,0,0,0,1.11-1.86c.29-1.19-.3-2.39-.77-3.52-4.11-9.75.08-20.82.08-31.4,0-9.36-3.33-18.35-5-27.55a81.49,81.49,0,0,1-1.27-19.1c.19-3.65-1.16-10.22-1.16-14.1-3.23.32-7.67,1-11.37,1.28A46.54,46.54,0,0,1,99,46.74,3.41,3.41,0,0,1,98,48.41a3.37,3.37,0,0,1-1.77.59,50.72,50.72,0,0,1-26-3.59C72.68,39,74.79,31.1,74.08,24.22c-4.45-.67-7.17-.4-9.75-2C62,28.39,61.23,41.54,58,47.44a47.44,47.44,0,0,0-2.46,4.68,30.31,30.31,0,0,0-1.62,6.68l-3.77,23a11.33,11.33,0,0,0-.2,3.8c.42,2.36,2.23,4.17,3.61,6.13a18.88,18.88,0,0,1,3.15,13.76C56.17,108.83,49,117.44,48.53,120.78Z"/><path class="cls-2" d="M74.08,24.22c1.59.68,3.43,1.33,4.18,5.21s0,12.06,0,12.06S90.13,44,100,42.71"/><path class="cls-2" d="M111.76,23.29c1.29-1.08,3.34,1.08,4.42,3.77s2.58,21.11,6.46,28.87,6.68,34.9,7.33,38.35,1.51,17,1.51,17-6.1,5-6.1,8.19-10.71,6.45-10.71,6.45"/><path class="cls-3" d="M66.24,105.16c13.12-11.92,39.91-34.92,37.33-37.81-1.94-1.68-4.9-.85-7.29.08Q84.54,72,73.05,77.29"/><path class="cls-3" d="M123,113.59c-2.39-3.47-3.24-7.76-3.67-12a74.19,74.19,0,0,1-.25-12.11"/></g></svg>