<svg xmlns="http://www.w3.org/2000/svg" width="115.544" height="40.275" viewBox="0 0 115.544 40.275">
    <defs>
        <style>
            .prefix__cls-1{fill:none;stroke:#fff;stroke-linecap:round;stroke-linejoin:round;stroke-width:1.75px}
        </style>
    </defs>
    <g id="prefix__scads-nei" transform="translate(.875 .875)">
        <circle id="prefix__타원_62" cx="2.097" cy="2.097" r="2.097" class="prefix__cls-1" data-name="타원 62" transform="translate(100.04 23.156)"/>
        <path id="prefix__패스_149" d="M719.83 213.674c0-1.815-6.189-6.4-13.351-8.981s-15.474-4.586-32.007-4.2-44.828 11.752-46.685 11.752-3.891-1.051-7.339-3.44-10.787-6.784-14.412-6.879c0 0 5.393 7.874 7.073 9.622s2.255 2.13 2.3 2.608" class="prefix__cls-1" data-name="패스 149" transform="translate(-606.036 -188.372)"/>
        <path id="prefix__패스_150" d="M719.83 217.606c0 1.815-6.189 6.4-13.351 8.981s-15.474 4.586-32.007 4.2-44.828-11.752-46.685-11.752-3.891 1.051-7.339 3.44-10.787 6.784-14.412 6.879c0 0 5.393-7.875 7.073-9.622s2.255-2.129 2.3-2.607" class="prefix__cls-1" data-name="패스 150" transform="translate(-606.036 -192.304)"/>
        <path id="prefix__패스_151" d="M711.349 197.254a30.906 30.906 0 00-4.572-12.6 4.844 4.844 0 01-3.68 1.707s-2.165 8-6.56 10.363" class="prefix__cls-1" data-name="패스 151" transform="translate(-627.362 -184.651)"/>
        <path id="prefix__패스_152" d="M683.713 199.022a19.211 19.211 0 00-3.769-5.371c-2.165-1.911-2.548-1.273-3.566-.637s-5.422 8.507-8.355 9.326" class="prefix__cls-1" data-name="패스 152" transform="translate(-620.643 -186.472)"/>
        <path id="prefix__패스_153" d="M715.861 217.568a22.523 22.523 0 00-7.828-4.423c-4.572-1.406-6.7-1.5-8.195-1.215s1.946 1.786 3.622 2.866a98.926 98.926 0 019.533 7.93 6.273 6.273 0 012.868-5.158z" class="prefix__cls-1" data-name="패스 153" transform="translate(-628.054 -191.049)"/>
    </g>
</svg>
