<svg xmlns="http://www.w3.org/2000/svg" viewBox="0 0 180 152"><defs><style>.cls-1,.cls-2,.cls-3,.cls-4{fill:none;}.cls-2,.cls-3,.cls-4{stroke:#fff;stroke-linecap:round;stroke-linejoin:round;}.cls-2{stroke-width:2.27px;}.cls-3{stroke-width:1.81px;}.cls-4{stroke-width:1.36px;}</style></defs><title>1</title><g id="Layer_2" data-name="Layer 2"><rect class="cls-1" width="180" height="152"/><path class="cls-2" d="M92.54,114c7,.46,12.9,0,15.9-.89,5.08-1.42,11.7-8.51,11.7-8.51s-.47,6.15,1.54,10,5.49,6,11.37,6.94c9.45,1.55,17.7.64,21.24.64s9-1.91,9-3.92-5.44-1.89-5.44-1.89c-.83-1.65-6-1.77-6-1.77-.35-1.66-4.49-1.89-4.49-1.89-.12-.83-4.25-1.42-5.91-1.07a22.93,22.93,0,0,1-10.16,0c-5-1.06-2.72-10-1.54-20.09s.35-17.38-1.3-22-5.56-10.16-8-14.89-2.92-18.88-5-22.58a16.36,16.36,0,0,0-12.85-8.59c-6.78-.71-10.28,4-11.85,5.35a3.5,3.5,0,0,0-3.2,2.18c-1,2.24-1.54,4.72-1.07,6.38a53.14,53.14,0,0,0,2.84,6c.83,4.37,1.54,9.57,1.06,13.47s-6.73,17.53-6.73,17.53S54.3,80.39,42.48,85.12s-14.07,9.34-17.61,15.13-.95,10.64,1.18,12.53,8.63,1.42,10.09.23.31-6.14.07-8.86,0-3.9,1.86-3.67,25.33,7.45,38.69,11l2.17.54"/><path class="cls-3" d="M88.59,29.67s1.06,3.08,1.94,3.2,1.36-.66,2-1.6.37-2.1-1.76-2.35"/><path class="cls-4" d="M101.47,29.76c0-.63,2-.79,3-.36s1.7,1,1.42,1.81a1.58,1.58,0,0,1-2.16.83C102.77,31.65,101.51,30.94,101.47,29.76Z"/><path class="cls-4" d="M87.25,39.45a12,12,0,0,0,3.43-2.72,21.76,21.76,0,0,0,9.88,3.74"/><path class="cls-4" d="M98.37,33.42s5.75,1.93,9.26,5.83"/><path class="cls-4" d="M98.37,35.75c.25.22,8.1,5.69,10.32,9.73"/><path class="cls-2" d="M83.62,74.51S81.73,80.86,82,85.35s-.59,26.6-4.84,29.44-8.63,2-10.29,2.84a5.74,5.74,0,0,0-2.36,2.12s-3.79,1.07-4.14,1.84c0,0-4.49,1.59-4.49,2.77,0,0-4.14,1.19-2,2.6s6.47,2.6,20.55,0,17.51-8.15,18.22-10,1.3-18-3.31-24.71"/><path class="cls-2" d="M120.14,104.62s5-5.91,6.27-12.17"/><path class="cls-2" d="M24.87,100.25s-7.57-2.37-8-4,.35-3.43,4.61-4.73,8.63,1.3,8.63,1.3"/><path class="cls-4" d="M33.37,113.57a6.36,6.36,0,0,1-.78-2.58c-.24-1.6-.39-3.22-.47-4.83"/><path class="cls-4" d="M26.86,112.86a25.16,25.16,0,0,1,.68-7.88"/><path class="cls-4" d="M18.32,93.65a8.64,8.64,0,0,1,3.55,1.08"/><path class="cls-4" d="M22.07,91.34a9.83,9.83,0,0,1,3.27,2.13"/><path class="cls-4" d="M60.33,121.59s6.41.65,19.5-3"/><path class="cls-4" d="M55.84,124.36s13.73,1.22,21.81-1.51"/><path class="cls-4" d="M157.85,116.44s-2.72,3.24-17.84,2.11"/><path class="cls-4" d="M151.82,114.67s-.4,1.23-6,1.31a55.25,55.25,0,0,1-9.6-.66"/></g></svg>