<svg xmlns="http://www.w3.org/2000/svg" viewBox="0 0 180 152"><defs><style>.cls-1,.cls-2{fill:none;}.cls-2{stroke:#fff;stroke-linecap:round;stroke-linejoin:round;stroke-width:2.27px;}</style></defs><title>1</title><g id="Layer_2" data-name="Layer 2"><rect class="cls-1" width="180" height="152"/><path class="cls-2" d="M64.07,69.62c-.94,3.45-.38,11,0,15.45.3,3.44,2.2,12,1.73,16.66a26.48,26.48,0,0,1-2.54,8.59"/><path class="cls-2" d="M63.67,72.19s-3.75-3.7-3.4-8.65,8.47-14.06,14.59-17-.12-8.66-3.18-8.1S61,43.73,57.68,50.26C53.8,57.92,54.13,69.25,63.67,72.19Z"/><path class="cls-2" d="M63.6,77.61s6.08-1.46,7.5-7.09,1.64-12.15,1.17-13.73,2.24-3,4.71-3.37,3.52,5.39,3.53,7.65C80.54,66.24,77.28,78.74,63.6,77.61Z"/><path class="cls-2" d="M64.22,86.29s-2.07-2.72-5.36-7.22-8.28-4.77-9.18-13.53-2-11.21-5.41-14.38-4.34.52-6.36,5.41c-1.25,3,2.36,5.51,3.06,7.76s.24,8.55,4.47,12.15S61.57,80.91,64.22,86.29Z"/><path class="cls-2" d="M64.64,42.23c-1.53-4.73-3.79-9.12-7.08-11.77-8.23-6.64-8.7-.21-10.35,5.18-1.38,4.49,6.86,4.71,10.47,14.62"/><path class="cls-2" d="M63.67,72.19a17.12,17.12,0,0,0,4-11A71.8,71.8,0,0,0,67,52.91"/><path class="cls-2" d="M87.42,111.82s10.47-6.76,14-27"/><path class="cls-2" d="M100.44,89.46s9.33-1.95,10.63-14.66-.94-15.53-2.24-17.33-4.59-.57-5.76,1.91.59,3.3,1.53,8.17S105.57,83.31,100.44,89.46Z"/><path class="cls-2" d="M98.91,94.55s-1.73-4.9-1.61-13.23S96.12,72.66,95,70.74s-4.24,1.35-5.65,3.72,2.24,4.21,2.47,7.9S90.52,92.48,98.91,94.55Z"/><path class="cls-2" d="M122.62,111.47c-2.64-.42-5.19-1-7.48-1.58-3.39-.86-8.35-1.8-13.06,0s-.94,5-14.12,2.7-22.24-2.88-27.65-1.5-12.1,3.06-14.59,3.41c-1.63.23-2.71,3.6-1.18,4.73s5.53,1,10,0,11.57-3.15,18.85-1.91,21,2.36,24.57,2.13,4-5,9.3-5,13,2.29,16.29.71S128.69,112.43,122.62,111.47Z"/><path class="cls-2" d="M121.54,115.62s-3.17-.7-.92-4.51"/><path class="cls-2" d="M102.08,109.89s-1.55,4.51,2.75,5"/><path class="cls-2" d="M97.78,113s-2.31,3.94,1.7,6.06"/><path class="cls-2" d="M88,112.59s-3.93,3.65.2,6.43"/><path class="cls-2" d="M77.29,111s-4.73,2-.86,6.76"/><path class="cls-2" d="M65.33,110.41s-3.49,3.34,0,6.71"/><path class="cls-2" d="M57.4,111.83a5.3,5.3,0,0,0,1.68,6.34"/><path class="cls-2" d="M126.61,112.59s4.09.15,11.58-3.73,12.4,0,12.4,0"/><path class="cls-2" d="M134.61,110.53s2.85,1.91,4,2.84,7.08,6.66,7.08,6.66"/><line class="cls-2" x1="141.06" y1="115.62" x2="148.27" y2="115"/><path class="cls-2" d="M45.72,114.5s-9.34-4.62-11.66-4.61"/><path class="cls-2" d="M39.89,111.82s-8.67,1.78-10.48,3"/><path class="cls-2" d="M51.67,119.76s-3.14,2.54-3.66,4.61"/><path class="cls-2" d="M122.62,111.47a31.29,31.29,0,0,0,6.1-10.62c1.89-6.54,1.46-10.61,1.46-10.61"/><path class="cls-2" d="M129.92,95.33s-3.1-9-2.58-14.34.45-8.36-.73-8.59c-3.15-.61-3.92.94-4,7.66S127.5,94.29,129.92,95.33Z"/><path class="cls-2" d="M130.22,91.38s3.66-6.55,4.39-12.23-1.25-16.8-2.19-17.7-1.47-3.61,1.38-5.94,4.82,1.55,6.35,5.68,1,8.69,1.79,11.91.38,4.72-2.59,10S130.22,91.38,130.22,91.38Z"/><path class="cls-2" d="M102.8,60.07c-2.79-6.84-2-11.88-3-12.79-1.35-1.2-2.72-2.24-5.83,0S88.64,55.63,91,63,99.77,74,101.42,77.12s1.79,3.24,2.32,5.91"/><path class="cls-2" d="M97.42,98.31s7.38-.59,10.48-3.76c2.28-2.33,4.84-10.38,3-18.5"/></g></svg>