<svg xmlns="http://www.w3.org/2000/svg" width="98.847" height="78.873" viewBox="0 0 98.847 78.873">
    <defs>
        <style>
            .prefix__cls-1{fill:none;stroke:#fff;stroke-linecap:round;stroke-linejoin:round;stroke-width:1.5px}
        </style>
    </defs>
    <g id="prefix__seagrass" transform="translate(-952.893 -801.658)">
        <path id="prefix__패스_847" d="M987.339 843.014c-.752 2.755-.308 8.8 0 12.338.239 2.748 1.753 9.583 1.378 13.3a21.148 21.148 0 01-2.029 6.858" class="prefix__cls-1" data-name="패스 847" transform="translate(-5.726 -7.103)"/>
        <path id="prefix__패스_848" d="M985.681 839.787a9.74 9.74 0 01-2.716-6.9c.281-3.953 6.764-11.23 11.649-13.565s-.094-6.918-2.537-6.468-8.531 4.215-11.179 9.432c-3.098 6.106-2.834 15.152 4.783 17.501z" class="prefix__cls-1" data-name="패스 848" transform="translate(-4.389 -1.823)"/>
        <path id="prefix__패스_849" d="M987.014 846.651s4.86-1.169 5.987-5.661 1.315-9.7.939-10.96 1.785-2.426 3.758-2.7 2.809 4.3 2.819 6.109c.021 4.137-2.581 14.113-13.503 13.212z" class="prefix__cls-1" data-name="패스 849" transform="translate(-5.783 -4.359)"/>
        <path id="prefix__패스_850" d="M983.119 853s-1.647-2.173-4.277-5.766-6.612-3.811-7.328-10.8c-.709-6.921-1.56-8.95-4.321-11.478-2.853-2.612-3.462.409-5.072 4.312-1 2.426 1.879 4.4 2.443 6.2s.187 6.827 3.57 9.7 12.875 3.532 14.985 7.832z" class="prefix__cls-1" data-name="패스 850" transform="translate(-1.394 -3.774)"/>
        <path id="prefix__패스_851" d="M985.048 814.044c-1.223-3.778-3.024-7.28-5.649-9.4-6.576-5.3-6.945-.167-8.266 4.132-1.1 3.584 5.479 3.76 8.36 11.678" class="prefix__cls-1" data-name="패스 851" transform="translate(-2.985)"/>
        <path id="prefix__패스_852" d="M987.088 842.239a13.689 13.689 0 003.2-8.79 57.758 57.758 0 00-.545-6.606" class="prefix__cls-1" data-name="패스 852" transform="translate(-5.796 -4.275)"/>
        <path id="prefix__패스_853" d="M1010.062 879.273s8.361-5.39 11.179-21.561" class="prefix__cls-1" data-name="패스 853" transform="translate(-9.813 -9.672)"/>
        <path id="prefix__패스_854" d="M1022.658 856.655s7.455-1.557 8.488-11.708-.751-12.4-1.785-13.836-3.664-.449-4.6 1.527.469 2.631 1.221 6.526.776 12.581-3.324 17.491z" class="prefix__cls-1" data-name="패스 854" transform="translate(-12.015 -4.902)"/>
        <path id="prefix__패스_855" d="M1019.5 863.011a33.24 33.24 0 01-1.286-10.561c.094-6.647-.939-6.917-1.879-8.445s-3.382 1.078-4.51 2.965 1.786 3.363 1.973 6.308-.998 8.077 5.702 9.733z" class="prefix__cls-1" data-name="패스 855" transform="translate(-10.077 -7.195)"/>
        <path id="prefix__패스_856" d="M1030.793 883.062c-2.111-.335-4.146-.793-5.973-1.258-2.71-.689-6.67-1.437-10.427 0s-.752 3.953-11.273 2.156-17.755-2.3-22.076-1.2-9.659 2.444-11.649 2.723c-1.3.182-2.161 2.875-.94 3.773s4.415.808 7.985 0 9.232-2.516 15.044-1.527 16.8 1.886 19.621 1.706 3.194-3.99 7.422-4.016 10.373 1.822 13 .564 4.112-2.151-.734-2.921z" class="prefix__cls-1" data-name="패스 856" transform="translate(-2.435 -13.741)"/>
        <path id="prefix__패스_857" d="M1042.783 886.761s-2.528-.558-.737-3.6" class="prefix__cls-1" data-name="패스 857" transform="translate(-15.293 -14.122)"/>
        <path id="prefix__패스_858" d="M1024.2 881.978s-1.236 3.6 2.192 3.959" class="prefix__cls-1" data-name="패스 858" transform="translate(-12.248 -13.915)"/>
        <path id="prefix__패스_859" d="M1019.976 884.946s-1.842 3.15 1.354 4.843" class="prefix__cls-1" data-name="패스 859" transform="translate(-11.454 -14.434)"/>
        <path id="prefix__패스_860" d="M1010.3 884.591s-3.14 2.916.154 5.136" class="prefix__cls-1" data-name="패스 860" transform="translate(-9.619 -14.372)"/>
        <path id="prefix__패스_861" d="M999.864 883.076s-3.783 1.588-.688 5.392" class="prefix__cls-1" data-name="패스 861" transform="translate(-7.697 -14.107)"/>
        <path id="prefix__패스_862" d="M988.427 882.485s-2.782 2.666 0 5.354" class="prefix__cls-1" data-name="패스 862" transform="translate(-5.814 -14.004)"/>
        <path id="prefix__패스_863" d="M980.942 883.86a4.22 4.22 0 001.344 5.054" class="prefix__cls-1" data-name="패스 863" transform="translate(-4.661 -14.244)"/>
        <path id="prefix__패스_864" d="M1047.979 883.669s3.265.116 9.248-2.976 9.9 0 9.9 0" class="prefix__cls-1" data-name="패스 864" transform="translate(-16.442 -13.45)"/>
        <path id="prefix__패스_865" d="M1055.726 882.6s2.272 1.53 3.182 2.267 5.656 5.321 5.656 5.321" class="prefix__cls-1" data-name="패스 865" transform="translate(-17.797 -14.023)"/>
        <path id="prefix__선_61" d="M0 0.496L5.75 0" class="prefix__cls-1" data-name="선 61" transform="translate(1043.079 872.143)"/>
        <path id="prefix__패스_866" d="M967.745 885.662s-7.453-3.689-9.31-3.684" class="prefix__cls-1" data-name="패스 866" transform="translate(-.787 -13.915)"/>
        <path id="prefix__패스_867" d="M962.3 883.841s-6.924 1.423-8.368 2.422" class="prefix__cls-1" data-name="패스 867" transform="translate(0 -14.241)"/>
        <path id="prefix__패스_868" d="M974.859 891.53s-2.51 2.027-2.923 3.677" class="prefix__cls-1" data-name="패스 868" transform="translate(-3.147 -15.585)"/>
        <path id="prefix__패스_869" d="M1044.126 879.911a24.866 24.866 0 004.863-8.474 24.406 24.406 0 001.169-8.474" class="prefix__cls-1" data-name="패스 869" transform="translate(-15.769 -10.59)"/>
        <path id="prefix__패스_870" d="M1049.948 863.987s-2.472-7.19-2.06-11.444.365-6.671-.583-6.857c-2.511-.492-3.125.75-3.179 6.111s3.896 11.365 5.822 12.19z" class="prefix__cls-1" data-name="패스 870" transform="translate(-15.769 -7.553)"/>
        <path id="prefix__패스_871" d="M1051.476 857.883s2.922-5.226 3.507-9.764-1-13.409-1.753-14.131-1.168-2.879 1.1-4.741 3.849 1.234 5.071 4.534.809 6.939 1.427 9.5.309 3.769-2.063 8.015-7.289 6.587-7.289 6.587z" class="prefix__cls-1" data-name="패스 871" transform="translate(-17.054 -4.598)"/>
        <path id="prefix__패스_872" d="M1022.784 831.389c-2.23-5.462-1.613-9.487-2.42-10.209-1.077-.963-2.175-1.788-4.651 0s-4.236 6.664-2.339 12.514 6.987 8.835 8.307 11.307 1.428 2.584 1.855 4.716" class="prefix__cls-1" data-name="패스 872" transform="translate(-10.252 -3.101)"/>
        <path id="prefix__패스_873" d="M1019.739 867.011s5.889-.474 8.365-3c1.822-1.862 3.868-8.289 2.407-14.77" class="prefix__cls-1" data-name="패스 873" transform="translate(-11.505 -8.191)"/>
    </g>
</svg>
