<svg xmlns="http://www.w3.org/2000/svg" viewBox="0 0 180 152"><defs><style>.cls-1,.cls-2,.cls-3{fill:none;}.cls-2,.cls-3{stroke:#fff;stroke-linecap:round;stroke-linejoin:round;}.cls-2{stroke-width:2.27px;}.cls-3{stroke-width:1.36px;}</style></defs><title>1</title><g id="Layer_2" data-name="Layer 2"><rect class="cls-1" width="180" height="152"/><path class="cls-2" d="M72.06,103.66c2.64-.4,7.65-1.38,9.59-1.79a203.24,203.24,0,0,1,23.4-3.73c5.42-.38,32.29-4.21,38.06-4.84s20.74.25,24.74,1S175.9,94,176,92c.25-7.57-14.86-11-28.67-7.73"/><path class="cls-2" d="M54.85,103.21c-3-.62-6.46-1.34-9.35-3.21C32,91.28,31.61,81.81,31,77.22s-1.22-11.69-3.11-15.64-4.11-3.81-4.77-8.23a37.39,37.39,0,0,1,.12-6.69,14.15,14.15,0,0,1,.68-3.32S24,41.44,25,40.8a7.43,7.43,0,0,1,3-.65A19.3,19.3,0,0,1,38,37.4,13.74,13.74,0,0,1,50.5,44.55a63.35,63.35,0,0,1,4.6,11.1s3.45,2,4.16,3c0,0,4.48,1.28,6.28.77A49.08,49.08,0,0,1,84.47,56c10.92.09,28.52,6.12,35.82,10.8s17.73,13.88,22,13.87c2.19,0,10.63-6,19.57-8.91,7.8-2.52,10.14-.49,10.13,1.53,0,3.08-2.58,4.79-9.21,7.68-1.53.67-3.46,1.36-5.28,2"/><path class="cls-3" d="M39.56,44.81c-.1-.77,1.28-1,2-.74a2.12,2.12,0,0,1,1.49,1.87A1,1,0,0,1,41.71,47,3,3,0,0,1,39.56,44.81Z"/><path class="cls-2" d="M53.07,94.66s2.12,4.57,2,7.23-2.38,8.16-.51,10.38,3.32,1.36,3.32,1.36,2.21.91,3.4.16c0,0,2.55,1.61,3.32.3,0,0,2.81.64,3.74-.8,0,0,2.64,1.19,3.49-2.64s-.6-11.91-.77-14.38-.34-9.61-5-14.2"/><path class="cls-2" d="M31,77.22s-5.62,9.1-7.44,9.74a15.17,15.17,0,0,1-5.15.91c-2.29.11-3.7-.11-4.72,0a4.23,4.23,0,0,0-2,.94s-2.56.19-3,.76c0,0-2.75.45-3,1.85,0,0-1.85,1-1.66,2.49s1.79,2.49,9.19,2.56,11.42-.13,14.42-1.15a54,54,0,0,0,8.11-4.25"/><path class="cls-3" d="M23.9,43.34c2.13.49,3.68.08,4.09-3.19"/><path class="cls-3" d="M33.84,54.76c-8.18-1-8.62-11.25-8.62-11.25"/></g></svg>