<svg xmlns="http://www.w3.org/2000/svg" width="138.264" height="46.234" viewBox="0 0 138.264 46.234">
    <defs>
        <style>
            .prefix__cls-1{fill:none;stroke:#fff;stroke-linecap:round;stroke-linejoin:round;stroke-width:1.75px}
        </style>
    </defs>
    <g id="prefix__shark" transform="translate(.875 .874)">
        <path id="prefix__패스_168" d="M1503.049 216.677a88.68 88.68 0 006.728-.546c8.983-1.093 11.206-.974 13.87-3.933a17.876 17.876 0 005.414-1.685c2.517-1.328 3.861-2.057 3.8-3.316-.084-1.679-13.077-7.755-20.642-9.658s-22.381-3.561-24.47-4.417-3.819-4.6-6.968-8.081c-2.4-2.651-7.146-5.873-9.689-6.191-1.118-.14-.938.741-.331 4.855a26.614 26.614 0 01-.243 8.784c-.262 1.6-2.327 2.339-3.894 2.718s-21.995 3.09-24.087 3.2-4.326.005-6.178-2.349c-1.441-1.833-3.588-2.917-4.723-2.895-.327.007-.374.764-.214 1.9s.315 2.147.385 3.075c.1 1.351-.659 2.089-2.2 2.485-.931.239-5.991.9-6.939 1.03 0 0-3.615-2.7-6.787-4.746a193.616 193.616 0 00-17.659-9.327c-2.782-1.062-1.79.331-1.218.863s11.133 10.457 13.421 13.226 2.84 3.583 2.878 4.342-4.158 5.8-7.066 9.01a30.314 30.314 0 01-3.951 3.845c-.681.675-.341 1.339 2.156.812s8.139-3.615 11.195-5.932a68.319 68.319 0 006.682-6.146s31.286 8.359 50.064 8.776c6.981.156 12.7.313 17.59.394" class="prefix__cls-1" data-name="패스 168" transform="translate(-1396.347 -178.836)"/>
        <path id="prefix__패스_169" d="M1523.444 227.374s1.415-.352 5.749-1.651a18.09 18.09 0 019.185-.463 22.553 22.553 0 01-1.771 7.5c-1.549 3.122-2.937 3.313-4.039 3.087s-2.1-1.777-2.883-3.06a4.529 4.529 0 00-3.048-2.29 4.983 4.983 0 01-3.193-3.123z" class="prefix__cls-1" data-name="패스 169" transform="translate(-1431.09 -191.422)"/>
        <path id="prefix__패스_170" d="M1443.556 221.265a4.684 4.684 0 00.9 1.87 4.271 4.271 0 01.347 3.508c-.3.816 1.027 2.112 3.4.389a12.182 12.182 0 003.473-3.935" class="prefix__cls-1" data-name="패스 170" transform="translate(-1409.252 -190.434)"/>
        <path id="prefix__패스_171" d="M1467.244 226.31s1.824 2.178 2.688 3.1a5.1 5.1 0 011.234 2.83c.028.552 1.661.469 3.7-.435a25.378 25.378 0 005.278-3.422" class="prefix__cls-1" data-name="패스 171" transform="translate(-1415.727 -191.813)"/>
        <path id="prefix__패스_172" d="M1545.251 220.208a5.361 5.361 0 011.4 2.256" class="prefix__cls-1" data-name="패스 172" transform="translate(-1437.051 -190.145)"/>
        <path id="prefix__패스_173" d="M1548.769 218.357a6.169 6.169 0 011.694 3.6" class="prefix__cls-1" data-name="패스 173" transform="translate(-1438.013 -189.639)"/>
        <path id="prefix__패스_174" d="M1552.9 217.917a5.231 5.231 0 011.256 3.921" class="prefix__cls-1" data-name="패스 174" transform="translate(-1439.141 -189.519)"/>
        <circle id="prefix__타원_65" cx="1.497" cy="1.497" r="1.497" class="prefix__cls-1" data-name="타원 65" transform="translate(124.422 25.812)"/>
    </g>
</svg>
