<svg xmlns="http://www.w3.org/2000/svg" viewBox="0 0 180 152"><defs><style>.cls-1,.cls-2{fill:none;}.cls-2{stroke:#fff;stroke-linecap:round;stroke-linejoin:round;stroke-width:1.81px;}</style></defs><title>1</title><g id="Layer_2" data-name="Layer 2"><rect class="cls-1" width="180" height="152"/><path class="cls-2" d="M138,95.47c2.95-.14,5.7-.35,8.4-.68,11.22-1.37,14-1.22,17.32-4.91a22.39,22.39,0,0,0,6.76-2.11c3.14-1.66,4.82-2.57,4.74-4.14-.11-2.09-16.33-9.68-25.77-12s-27.94-4.45-30.55-5.52-4.77-5.74-8.7-10.09c-3-3.31-8.92-7.33-12.09-7.73-1.4-.17-1.17.93-.42,6.06a33,33,0,0,1-.3,11c-.33,2-2.91,2.92-4.86,3.39s-27.46,3.86-30.07,4-5.4,0-7.72-2.93c-1.8-2.29-4.48-3.64-5.89-3.61-.41,0-.47,1-.27,2.37s.39,2.68.48,3.84c.13,1.68-.82,2.6-2.75,3.1-1.16.3-7.48,1.13-8.66,1.28,0,0-4.52-3.37-8.48-5.92s-18.57-10.32-22-11.64-2.24.41-1.52,1.07S19.5,73.27,22.35,76.72,25.9,81.2,26,82.14s-5.19,7.24-8.82,11.25a36.56,36.56,0,0,1-4.94,4.8c-.85.85-.42,1.67,2.7,1s10.16-4.52,14-7.41a85.4,85.4,0,0,0,8.34-7.67s39.06,10.43,62.5,11c8.72.19,15.86.39,22,.49"/><path class="cls-2" d="M120.08,93.11s1.77-.44,7.18-2.06a22.66,22.66,0,0,1,11.47-.58,28.14,28.14,0,0,1-2.21,9.36c-1.94,3.9-3.67,4.14-5.05,3.86s-2.62-2.22-3.6-3.82a5.65,5.65,0,0,0-3.8-2.86C122,96.36,121,95.16,120.08,93.11Z"/><path class="cls-2" d="M47.61,86.72a5.81,5.81,0,0,0,1.12,2.33,5.35,5.35,0,0,1,.44,4.38c-.38,1,1.28,2.64,4.24.49A15.24,15.24,0,0,0,57.74,89"/><path class="cls-2" d="M69.1,91.29s2.28,2.72,3.36,3.87A6.38,6.38,0,0,1,74,98.69c0,.69,2.07.59,4.61-.54a31.87,31.87,0,0,0,6.59-4.27"/><path class="cls-2" d="M139.86,85.76a6.62,6.62,0,0,1,1.75,2.81"/><path class="cls-2" d="M143.06,84.08a7.72,7.72,0,0,1,2.11,4.49"/><path class="cls-2" d="M146.8,83.68a6.54,6.54,0,0,1,1.57,4.89"/><circle class="cls-2" cx="161.99" cy="82.32" r="1.87"/></g></svg>