<svg xmlns="http://www.w3.org/2000/svg" viewBox="0 0 180 152"><defs><style>.cls-1,.cls-2,.cls-3,.cls-4{fill:none;}.cls-2,.cls-3,.cls-4{stroke:#fff;stroke-linecap:round;stroke-linejoin:round;}.cls-2{stroke-width:2.27px;}.cls-3{stroke-width:1.36px;}.cls-4{stroke-width:1.81px;}</style></defs><title>1</title><g id="Layer_2" data-name="Layer 2"><rect class="cls-1" width="180" height="152"/><path class="cls-2" d="M149.61,74.18s-9.66-2.67-13.26-3.34S125.14,69,123.18,68.59s-7.13-1.77-9.62-3.3-12.81-12.15-19.87-15.4-16.14-7.46-22-8c0,0-3.54-4.93-7.55-7.22a20.29,20.29,0,0,0-10.48-2.82c-6.12,0-10.86,2.72-12.77,5.88a10.34,10.34,0,0,0-1.37,6.54,14.64,14.64,0,0,1-.25,1.88,53.87,53.87,0,0,0-5.39,2A10.35,10.35,0,0,0,30.39,51a11.24,11.24,0,0,0,4.14.42,38.89,38.89,0,0,0,4.25-.58,12.23,12.23,0,0,1,1.65,3.93c.61,3.52,1,8.64,1.4,11.4a24.74,24.74,0,0,0,8.8,15.36c5.85,5.07,13,8.82,24.85,10.54s18.11-.19,22.19-1.72,16.07-8.9,18.72-10.3a26.28,26.28,0,0,1,10-3c3.34-.16,13.42,1.31,14.62,1.41C142.88,78.58,147.92,74.76,149.61,74.18Z"/><path class="cls-2" d="M39.29,46.16A22.25,22.25,0,0,1,44.88,48c.29.34-6.1,2.87-6.1,2.87"/><path class="cls-2" d="M65.4,55.47s3.06,1.53,5.48.76,3.26-2.55,2.68-3.82c0,0,4.4,2.87,7,1.14s1.21-3.06,1.21-3.06,5.39,2.64,7.25-2.73"/><path class="cls-2" d="M70.88,56.23s2.81,3.77,6.83,4.28,3.82-3.19,3.82-3.19,2.84,1.38,4.76,1,2.61-2.79,2.29-3.75"/><path class="cls-2" d="M41.83,36.53c-.58.71,0,4.46,5,3.55s8.47-2.44,10.57-2.29,5.26.86,5.65,2.82a2,2,0,0,1-1.92,2.58c-.62-.09-1.77,2-2.68,3s3,1.72,5.41.38,4.06-3.1,5.94-7"/><circle class="cls-3" cx="53.82" cy="43.81" r="1.91"/><path class="cls-2" d="M116.89,66.8s-3,1.89-7.87,0a23,23,0,0,1-8.29-5.91s3.12,4.4,1.79,6.18-8.42-4.2-8.42-4.2"/><path class="cls-2" d="M80.14,60.15s3,4.37,6.69,3.54a2.31,2.31,0,0,0,1.72-2.8s2.81,3.26,5.55,2c2-.91.44-4.21.44-4.21"/><path class="cls-3" d="M113,67.64s9.37,5.84,28.34,4.36"/><path class="cls-3" d="M108.31,66.5s2.33,5.1,15.66,7.07,22.71-.18,22.71-.18"/><path class="cls-4" d="M88.66,92.52s1.07,2.61,1.34,3.67S89.11,100,88.66,101c-.57,1.16-3.72,8.92-3.82,11s2.65,2,4.07,3.49-.2,1.57-1.17,1.29a30.77,30.77,0,0,0-4.24-1c-1-.08-2.75,2.46-4,3.49-2.47,2-2.08-.19-2.08-.19s1.21-2.59,1.79-3.54.09-.7-1.3-.64c-3.8.16-5.42-.56-5.23-1.13s2.31-.86,4.55-1.06,3.49-.86,4-1.72,4.12-10.71,4.31-11.28a17.48,17.48,0,0,0,.73-3.59c0-.7-1.4-3.39-1.4-3.39"/><path class="cls-4" d="M71.4,111.89a11.37,11.37,0,0,1-1.65.27c-2.24.19-4.36.48-4.55,1s1.45,1.56,5.23,1.13c.81-.09,2.4-.15,2.4-.15"/><path class="cls-4" d="M77.61,92.67a10.74,10.74,0,0,1,1.14,2.89A18.18,18.18,0,0,1,78,99.15c-.17.49-2.92,7.95-4,10.5"/><path class="cls-4" d="M81.35,92.67a22.29,22.29,0,0,1,1.18,2.94c.27,1-.89,3.85-1.35,4.78-.56,1.16-3.71,8.93-3.81,11a1.72,1.72,0,0,0,.39,1.23"/><path class="cls-4" d="M74.06,109.65c-1.33-.12-4.51-.82-5.47-.82s-1,1.21,0,1.53a15.55,15.55,0,0,1,2.81,1.53"/></g></svg>