<svg xmlns="http://www.w3.org/2000/svg" viewBox="0 0 180 152"><defs><style>.cls-1,.cls-2,.cls-3{fill:none;}.cls-2,.cls-3{stroke:#fff;stroke-linecap:round;stroke-linejoin:round;}.cls-2{stroke-width:2.27px;}.cls-3{stroke-width:1.36px;}</style></defs><title>1</title><g id="Layer_2" data-name="Layer 2"><rect class="cls-1" width="180" height="152"/><path class="cls-2" d="M112.43,64.35c2.57,1.36,8.77-.61,11.64-1.82s14.82-7.71,18.15-9.07S151,45,150.68,40.31,142.52,32.75,140,32.6a31.55,31.55,0,0,0-4.23,0s-.75-4.24-4.16-5.45a10.18,10.18,0,0,0-8.85.91,7.07,7.07,0,0,0-2.57,3.48s-11.94,5-14.51,6.05-6.8,2.72-6.8,2.72a9.84,9.84,0,0,0-6.2-1.82c-3.78.15-12.55.91-15.27.91s-9.23-.15-11.8,1.36S44.4,57.39,41.37,59.36c-2.64,1.72-4.71,2.51-5.18,5.42"/><path class="cls-2" d="M33.36,76.14s3.25,6.8,14.14,11.57,17.84,8.84,24.87,3.4a7.66,7.66,0,0,0,2.57-8.47c-1.06-2.57-6-9.37-8.47-10.89s-7.86-3.62-15.27-4.53S33.66,64.65,32.3,64.5s-4.84,0-6.35,1.66-.9,7.26,1.21,12.55,9.07,15.87,12.4,18.44S53,104.56,53,104.56s3.32,7.49,3.17,8.55.23,3.93-.08,4.3-1.51,1.89-1.28,2.73.91,2.72,3.1,2.34,1.81-2.65,1.74-3.25a38.45,38.45,0,0,1,.45-6.12c.23-.38,1.66-.53,2.57-.38s4.46,3,5,3.63,4.39,3.17,5.07,4.38,1.13,3,1.58,3.55S76.6,126,78,125.2s.83-3,0-3.63a27.87,27.87,0,0,1-3-3.4c-.38-.45-6-4.91-6.43-5.82s-2.72-3.78-2.42-3.93a17.84,17.84,0,0,1,4.31.68,16.44,16.44,0,0,1,3,2c1,.68,2.79.83,3.17-.15A2.25,2.25,0,0,0,75.24,108c-1.51-.45-4.23-1.44-6.43-2.19s-5.66-3.1-7-3.93-4.83-3.1-5.51-4a36.31,36.31,0,0,0-5.75-4.84c-1.66-1.06-5.82-2.27-6.2-3s-2-4.31-2-4.31"/><path class="cls-2" d="M125,62.12a55.68,55.68,0,0,1-2.58,4.95c-.68.9-1.47,12.92-1.47,15.19s.68,5.45,1.25,5.79,2.94.34,7.93,2.15a66.05,66.05,0,0,1,7.37,3.06l2.76-.49a3.88,3.88,0,0,1-.53-1.89,1.6,1.6,0,0,1,2.57-1c1.06.75.76,2.64.76,2.64a25,25,0,0,1,4.23,1.14c2,.75,2.65.22,3.86.3A2.21,2.21,0,0,1,153,96.55a1.76,1.76,0,0,1-2.33,1A19.78,19.78,0,0,0,147,96.4s1.81,3.4,2.34,4.23,2.42,1.89,3.33,3,2.72,3.47,2.12,4.38-2.42,1.21-3,.45a6.15,6.15,0,0,1-1-2.42c0-.3-3.95-3.93-4.4-4.38s-2.87-1.06-4.76-1-6.58,1-9.45.83-9.38-2.5-10.51-3-3.78-.68-4.23-1.74-1.67-2-2.57-5.37S110,75.69,109.86,73.87"/><path class="cls-2" d="M111,78.47a31.82,31.82,0,0,1-11.71,5.61c-7,1.66-16.42,2.79-24,0"/><path class="cls-3" d="M122.27,46a2.57,2.57,0,0,0-.29,2.55,2.34,2.34,0,0,0,2.34,1.27,3,3,0,0,0,2.52-1.59,2.93,2.93,0,0,0,.18-2.55,3.3,3.3,0,0,0-2.82-.8A3.08,3.08,0,0,0,122.27,46Z"/><path class="cls-3" d="M120,44.78c-.79.93-1.65,3.55-.68,5.27s2.53,3.22,4.62,3,4.25-.92,5.11-3.23a6.85,6.85,0,0,0,0-5.43c-.59-1-2.85-2.23-5.13-1.88A6.3,6.3,0,0,0,120,44.78Z"/><path class="cls-2" d="M55.61,48.33c-3.2,1.28-12.8,5.13-15,5.74s-6.43,1.51-7.49,3.62-1.89,3.54,0,6.76"/><path class="cls-3" d="M95.6,67.47s1.74,3.53.21,6.8c-1.62,3.47-2.71,5.86-5.74,7.38s-6,2-6.51,2.88"/></g></svg>