<svg xmlns="http://www.w3.org/2000/svg" viewBox="0 0 180 152"><defs><style>.cls-1,.cls-2,.cls-3{fill:none;}.cls-2,.cls-3{stroke:#fff;stroke-linecap:round;stroke-linejoin:round;}.cls-2{stroke-width:2.27px;}.cls-3{stroke-width:1.36px;}</style></defs><title>1</title><g id="Layer_2" data-name="Layer 2"><rect class="cls-1" width="180" height="152"/><path class="cls-2" d="M40.86,47.33C44.8,40.49,50.21,34.17,57.4,30.9S73.78,28,79.68,33.26l-2.5,5.39c2.71,1,5.24-1.83,8-2.56,2.47-.64,5,.43,7.37,1.48l20.52,9.23-7.59,7.81c-1.23,1.27-2.56,3-1.84,4.62,1.27,2.79,5.35.55,7.76-1.34,7.2-5.63,18.33-4.56,25.33,1.33s10,15.64,9.14,24.75-5.24,17.59-10.89,24.78-13.13,13.47-22.12,14.37-19-5.76-18.93-14.79a15.62,15.62,0,0,1-10.57,3.16c-4.51-.35-8.61-2.63-12.54-4.86-7.59-4.31-18.58-8.49-18.21-17.32-7.58,10.71-15.83.17-17.82-8.79C32.36,69.36,35.23,57.1,40.86,47.33Z"/><path class="cls-2" d="M113.11,46.8c2.85,2,5.8,3.82,5,7.93"/><path class="cls-2" d="M79.68,33.26c1.9,1,3.26,3.81,3.26,3.81"/><path class="cls-2" d="M44.86,93.75A18.25,18.25,0,0,0,55,96.15"/><path class="cls-2" d="M97.45,117.09a39.73,39.73,0,0,1-8.72-6.15"/><path class="cls-2" d="M94,108.33c-2.94-25.4,5.66-38.14,18-50.8"/><path class="cls-2" d="M91.22,109.58c-3.63-17.77,1.08-36.66,14.32-49"/><path class="cls-2" d="M52.65,89.31c-.9-5.45.78-12.25,2.7-17.43A74.32,74.32,0,0,1,82.94,37.07"/><path class="cls-2" d="M49.93,92.27c-1.76-13.08,1.55-22,6.73-31.41S70.1,42.68,78.42,36"/><path class="cls-3" d="M76.15,100.81c.3-.56,1.21-.44,1.58.07A2.47,2.47,0,0,1,78,102.7"/><path class="cls-3" d="M71,95.36a.89.89,0,0,1,1-.48.88.88,0,0,1,.7.8"/><path class="cls-3" d="M78.53,94.07a.74.74,0,0,1,1.26.75"/><path class="cls-3" d="M73.08,86.33a.65.65,0,0,1,.66-.45.63.63,0,0,1,.54.59"/><path class="cls-3" d="M62.38,94.44c-.17-.34.25-.73.63-.68a2.35,2.35,0,0,1,1.48,1.95"/><path class="cls-3" d="M81.65,86.31a.87.87,0,0,1,.47-.56.46.46,0,0,1,.29.41"/><path class="cls-3" d="M99.87,41.47l-3,3.26a3.55,3.55,0,0,0-.81,1.19,1.19,1.19,0,0,0,.3,1.33c.44.34,1.08.19,1.64.14a3.72,3.72,0,0,1,2.23.56,1.19,1.19,0,0,0,.25.13A.85.85,0,0,0,101,48a22.57,22.57,0,0,1,5.08-1.54,7.65,7.65,0,0,0,1.77-.44,2.15,2.15,0,0,0,1.25-1.27"/><path class="cls-3" d="M98.42,47a5,5,0,0,0-.16-3l0,.18"/><path class="cls-3" d="M100.48,47.38a7,7,0,0,0-.62-5.17"/><path class="cls-3" d="M102.81,46.85a5.41,5.41,0,0,0-.63-4.4"/><path class="cls-3" d="M105.23,46.1a3.6,3.6,0,0,0,0-2.66"/><path class="cls-3" d="M111.89,117.45a10.39,10.39,0,0,1-4.71-5.89c-1.66-4.53-1.35-9.56-.38-14.29a54.28,54.28,0,0,1,18.62-30.76,11.39,11.39,0,0,1,3.3-2.07,4.55,4.55,0,0,1,3.79.16"/><path class="cls-3" d="M117.21,110.74c.1-.07.14.18,0,.19s-.2-.12-.25-.23l-.51-1.17a.82.82,0,0,1,.41-.39"/><path class="cls-3" d="M113.41,104.46a1,1,0,0,1,.9-.78"/><path class="cls-3" d="M123,107a.66.66,0,0,1,1.07-.78"/><path class="cls-3" d="M121.36,102a.73.73,0,1,1,1.24-.71"/><path class="cls-3" d="M131.57,103.85a2.41,2.41,0,0,1,.15-1.52c.06.13.23.15.37.15s.31,0,.35.16-.24.2-.21.07"/></g></svg>