<svg xmlns="http://www.w3.org/2000/svg" viewBox="0 0 180 152"><defs><style>.cls-1,.cls-2,.cls-3,.cls-4,.cls-5{fill:none;}.cls-2,.cls-3,.cls-4,.cls-5{stroke:#fff;}.cls-2{stroke-miterlimit:10;}.cls-2,.cls-5{stroke-width:2.27px;}.cls-3,.cls-4,.cls-5{stroke-linecap:round;stroke-linejoin:round;}.cls-3{stroke-width:1.36px;}.cls-4{stroke-width:1.81px;}</style></defs><title>1</title><g id="Layer_2" data-name="Layer 2"><rect class="cls-1" width="180" height="152"/><path class="cls-2" d="M5.38,33.39c.18-2.29.54-4.94,1-5.37s1.7-.69,3.53-.78a39.55,39.55,0,0,0,6.68-1c1-.34,7.14.48,10.62,2.86s4.11,3.59,4.11,3.59,3.24-1.43,4.73-.52a2.17,2.17,0,0,1,.79,3c-.33.52-1,1.91-1,1.91s5.06,4.89,6.89,5.24,6.43.13,9.67.6,5.31,3,6.55,4.55S67,52,75.6,50.19s18.56-6.32,24.54-7.71,16.43-3.2,25.48-1.38,15.69,4.42,20.09,14.72,4.81,21.74,5.56,24.94,5.23,13.86,11.87,12.56,6.64-5.11,7.13-7.1,1.5-3.2,3.16-2.42,1.41,3.37.41,6-3.57,6-5.81,6.84S160,100,154.09,94.1A31.62,31.62,0,0,1,145,76.87c-.66-4.59-3-16.46-5.89-19,0,0-1.33,10.22-2.24,14.12s-2.16,14.53-.91,19,4.15,5.6,4.39,6.92a31.82,31.82,0,0,1-.74,9.28c-.75,2.34-5.65,11.43-6.73,13.07s-3.48,2-5,2.08-3,0-4.81,0-4.07-1.12-3.74-2.85a4.07,4.07,0,0,1,4.32-3.38,28.42,28.42,0,0,1,3.57.26s2.82-4.51,3.24-5.46.41-5.72.41-6-8.22-10.83-10-13.08-6-5.81-6.56-8.32-5.22-2.77-7.38-1.73S96.44,91.32,82.62,93.66s-24.33-.52-32.79-5.19c0,0-2,17.79-3,21.68s-3.48,10.65-4.73,12.21-3.23,3.51-4.6,3.51-5.86-.52-8-1.81-2.12-5.59.75-5.72a26.3,26.3,0,0,1,4.6.13s3.24-3.64,3.24-4.55S35.89,89.5,35.27,88.2s-2.87-3.51-3.37-8.83-2.11-12.29-4.1-15.28-3.41-6.45-4.16-6.8-5.47-2.94-6.22-4.5a16.2,16.2,0,0,0-3.82,1.3c-1.33.78-4.81,1.3-5.89-.35A5.77,5.77,0,0,1,7,49.5c.17-.52,1.66-.35,2.74-.61S12.19,45.6,12.19,44A12.4,12.4,0,0,0,10,38C9.12,37,6.8,36.33,6.46,36A2.41,2.41,0,0,1,5.38,33.39Z"/><line class="cls-2" x1="130.93" y1="104.92" x2="123.71" y2="116.09"/><path class="cls-2" d="M110.89,81.27s1.86,6,3.11,8,5.73,13.42,5.85,15.68-.25,6.4-2.36,9.26L115.37,117s-.92-1-4.48-1-3.8,4.26-3.49,5.11,2,1.3,3.86,1.3h7a4,4,0,0,0,2-1.07"/><path class="cls-3" d="M7.64,49.16a15.34,15.34,0,0,1-.39-4.55s2.24,3.52,3.2,3.82"/><path class="cls-3" d="M6.46,36a9.63,9.63,0,0,0,.2,3.16s1.28-2,1.82-2.18"/><path class="cls-3" d="M5.7,30.54a8.11,8.11,0,0,0,2.78,0c.93-.31.34-3.22.34-3.22"/><path class="cls-4" d="M142.79,64.16a3.39,3.39,0,0,0,3-.23,3.67,3.67,0,0,0,1.71-2.56"/><path class="cls-4" d="M144.07,70.52a2.37,2.37,0,0,0,2.2.63,5.36,5.36,0,0,0,2.13-1.07,2.93,2.93,0,0,0,1.3-1.7"/><path class="cls-4" d="M145.29,76.08a4.59,4.59,0,0,0,5-2.4"/><path class="cls-4" d="M146.49,81.38a2.1,2.1,0,0,0,2.68.41,5.44,5.44,0,0,0,2-2.23"/><path class="cls-4" d="M148.87,86.29a2.35,2.35,0,0,0,2.2,0,2.53,2.53,0,0,0,1.3-1.85"/><path class="cls-4" d="M152,91.81c.48.6,2.2.59,2.88.26a1.86,1.86,0,0,0,1-1.95"/><path class="cls-4" d="M160,93.09a2.41,2.41,0,0,1,.34,2.19,2.17,2.17,0,0,1-.58.59,2.68,2.68,0,0,1-1.81.65"/><path class="cls-4" d="M164.91,93.71a4,4,0,0,1,.21,4"/><path class="cls-5" d="M87.91,48.2a33.64,33.64,0,0,1,1.66,3.54c.66,1.7.53,4.07.76,5.26s2.17,3.15,2.32,5.27a36.4,36.4,0,0,0,2.47,9.09"/><path class="cls-5" d="M81.43,49.52a17.28,17.28,0,0,1-.79,2.6,7.39,7.39,0,0,0,0,2.89,22.23,22.23,0,0,0,2,6.63"/><path class="cls-5" d="M73.81,51a20.74,20.74,0,0,0-1,14.16"/><path class="cls-5" d="M66,51c.38,2-.71,3.83-1.38,5.7a13.73,13.73,0,0,0-.78,5.43"/><path class="cls-5" d="M94.24,45.93a24.8,24.8,0,0,0,3.33,8.52"/><path class="cls-5" d="M97.28,45c2.33,2.57,2.35,6.45,3.31,9.82a34,34,0,0,0,4.26,8.49"/><path class="cls-5" d="M105.05,42.37c1,1.77,1.18,3.89,1.83,5.83a24.58,24.58,0,0,0,1.18,2.74l1.49,3.1"/><path class="cls-5" d="M114.66,41.61c1.56,2.27,1.23,5.3,1.29,8.08.1,3.91,1.12,7.83.55,11.71"/><path class="cls-5" d="M50.25,42.93c.46,4.37-.87,8.71-2.18,12.9a11.91,11.91,0,0,1-2,4.25"/><path class="cls-5" d="M59,47.42c-2.3,5.22-4.21,12-4.3,17.73"/><path class="cls-5" d="M123.13,42c-1.32,4-1.18,8.29-1,12.49"/><path class="cls-3" d="M17,31.54A2.5,2.5,0,0,1,18,31.46a1.28,1.28,0,0,1,.9.76,1.33,1.33,0,0,1-.91.83,3.19,3.19,0,0,1-1.61-.17c-.23-.06-1-.37-.74-1C15.81,31.56,16.67,31.6,17,31.54Z"/><path class="cls-5" d="M23.47,27.53a12.87,12.87,0,0,1,.69,4.87C24,34,24.2,37,21.75,39.13"/><path class="cls-5" d="M12.59,46.5a6.29,6.29,0,0,0,3.31-4.28"/><path class="cls-5" d="M17.58,53a34.17,34.17,0,0,0,4.25-3.46,12,12,0,0,0,3-4.62"/><path class="cls-5" d="M38.2,39.13A16.7,16.7,0,0,1,32,50"/><path class="cls-5" d="M26.55,60.39A9.87,9.87,0,0,0,34.12,59a14.41,14.41,0,0,0,5.14-6.11"/><path class="cls-5" d="M61.13,68.08c-.1,2.36-.2,7.65-.3,10a47.49,47.49,0,0,1-.41,5.06A34.1,34.1,0,0,1,57.64,92"/><path class="cls-5" d="M68.55,94.29A30.1,30.1,0,0,0,70,85.92"/><path class="cls-5" d="M79.33,94.12A50.91,50.91,0,0,0,80,85c-.13-4.29,0-11.5.14-15.79"/></g></svg>