<svg xmlns="http://www.w3.org/2000/svg" viewBox="0 0 180 152"><defs><style>.cls-1,.cls-2,.cls-3{fill:none;}.cls-2,.cls-3{stroke:#fff;stroke-miterlimit:10;}.cls-2{stroke-width:1.36px;}.cls-3{stroke-width:2.27px;}</style></defs><title>1</title><g id="Layer_2" data-name="Layer 2"><rect class="cls-1" width="180" height="152"/><path class="cls-2" d="M110.34,35.55c0,2.7-8.17,4.89-18.25,4.89s-18.25-2.19-18.25-4.89,7.57-1.73,18.25-4.89C101.75,27.79,110.34,32.84,110.34,35.55Z"/><path class="cls-2" d="M120,35.55c0,4.88-12.47,10.84-27.86,10.84s-27.87-6-27.87-10.84,2.43-3.61,27.87-8.84C107.16,23.6,120,30.66,120,35.55Z"/><path class="cls-3" d="M126.63,35.55c0,7.27-15.46,14.64-34.54,14.64S57.55,42.82,57.55,35.55s9.78-9.19,34.54-13.18C110.92,19.33,126.63,28.27,126.63,35.55Z"/><path class="cls-3" d="M125,43.55C120,51.61,111.17,54,92.09,54S56.72,49.84,56.72,42.56"/><path class="cls-3" d="M125.21,113.17c0,7.27-14,12.13-33.12,12.13s-34.26-3.81-34.26-11.09"/><path class="cls-3" d="M55.69,50.77C55.69,58.05,73,64,92.09,64c2.45,0,4.84-.09,7.15-.28,0,0-2.41,13.22-2.72,17.34s3.23,11.1,2.72,13.14-7.15,13.18-7.15,13.18c-19.08,0-30.84-.86-32.76-9"/><path class="cls-3" d="M57.55,35.55S54.37,63.37,53.42,64.8s6.41,24.9,6.41,27-2.28,25.22-2.28,25.22c0,7.28,15.46,13.18,34.54,13.18s34.54-5.9,34.54-13.18c0,0-2.91-7.45-2.91-9.73s3.29-10.82,2.91-13.67-6-18.76-6.68-20.61,6.68-37.5,6.68-37.5"/></g></svg>