<svg xmlns="http://www.w3.org/2000/svg" viewBox="0 0 180 152"><defs><style>.cls-1,.cls-2,.cls-3{fill:none;}.cls-2,.cls-3{stroke:#fff;stroke-linecap:round;stroke-linejoin:round;}.cls-2{stroke-width:2.27px;}.cls-3{stroke-width:1.36px;}</style></defs><title>1</title><g id="Layer_2" data-name="Layer 2"><rect class="cls-1" width="180" height="152"/><path class="cls-2" d="M78.34,69.53c4.58,2.13,10.47,11.6,12,15.74a14.89,14.89,0,0,1-.75,11.29c-1.32,2.82-3.77,5.08-6.34,7.33s-8.09,5.27-11.16,5.58-11.91.76-13.54.51-5,.56-6.84.62a46.66,46.66,0,0,0-5.45.88c-1.95.32-1.51-.63-.76-1.75s4-1.51,5.15-1.89a12.67,12.67,0,0,0,2.82-1.56c-.63-1.26-8.15-3.14-9.1-3.2s-4.45.12-5.95,0-.44-1.76.62-2.61,4.46-.09,5.4,0,8.21,0,8.21,0-2.82-2-3.45-2.2-2.13-.69-1.94-1.19S48,95.9,50.65,95.9s6.12,3.29,7.15,3.48a8.68,8.68,0,0,0,5-.66c2.35-.94,9.5-8.93,10-10.25s-1.32-5.93-1.88-7.81-3.58-4.33-3.95-4.89-3.58-1.88-6.59-3S51,67.87,47.08,65.61,36,60,33.53,58.28s-5.07-5.23-5-7.48,0-3.91,3.39-7.34a31.14,31.14,0,0,1,5.74-4.75s-.14-3.24,1-5.17a6.43,6.43,0,0,1,4.71-3.39C45.1,30,49.05,31.23,50.14,33a97.78,97.78,0,0,1,16-1.36c7.38.14,18,1.88,20.93,1.41s6.86-.76,8.27-.1a42.56,42.56,0,0,0,6,2.64c1.41.28,4.05.09,5.55.65s6.49,2.36,7.62,3,7.9,4.33,9.5,5.18,5.08,2.16,5.93,3.29a20.75,20.75,0,0,0,4,4.42c1.5,1,6.86,6.68,7.71,8.47a32.16,32.16,0,0,1,1.5,3.95s2.17,1.41,2.07,3c0,0,3.67,4.39,4.8,7.27a31.41,31.41,0,0,1,1.51,10.88c-.1,3.48-.85,6.3-1.89,7.34a57.71,57.71,0,0,0-4.13,4.42c-.76,1-1.13,3-1.7,4.32s-1.69,3.11-2.91,3.3-6-.85-7.34-.94-3.86-.38-5.17.47a56.21,56.21,0,0,0-7.43,6.52c-1.57,1.82-2.26,1.88-2.83,4s-1.63,5.77-2.13,6.21-1.69.94-2.07,0a10.27,10.27,0,0,1-.5-5c.32-2.13.82-5.83.44-6.71s-3.13-3.57-4.26-3.7a12.78,12.78,0,0,0-5.58,1.45c-2.07,1-6.46,3.76-7.09,5.58s-.44,3.13-1.88,3.07-3.64-2-2.45-4.14A18.12,18.12,0,0,1,99.09,106c1.82-.76,5.77-3,5.84-3.58s.12-2.88-1.19-2.88-3.89,1.19-4.33.44-.75-2.51.81-3.14,7-2,7-2"/><path class="cls-2" d="M119.79,67.12s-7.06,5.73-10.44,12.22-5.8,13.39.53,18.53,13.73,2.51,19.38-1.12,12.35-14.68,12.6-15.43"/><path class="cls-2" d="M112.39,88.91s3.76-10.35,9.34-14.68S132,66.65,138.6,67.12"/><path class="cls-2" d="M91.1,88.34s1.66,2.32,6.11,3.08a29.79,29.79,0,0,0,8.82,0"/><path class="cls-2" d="M70.88,80.66a4.52,4.52,0,0,1-2,2.42c-1.32.5-2.57.14-2.88.85s-1.7,3-2.26,2.91-2.2-1.07-2.07-2-1.95-1.69-2.63-1.5-6.84,2.57-7.47,3.51-2.76,2.44-3.13,2.07,1.06-2.92,2-4.1,4.33-4.43,4.33-4.43-6.14,1.5-7.21,2.13-1.44-.81,0-1.88,5.89-2.57,6.71-3,7.94-4.15,7.94-4.15"/><path class="cls-2" d="M141.61,60.63s4.51-.32,5-2.07-1.26-6.4-2.51-7.65-5.14-5.4-8.28-7.4S124.93,39,121.17,38.87a34.31,34.31,0,0,0-6.65.4"/><path class="cls-2" d="M52.72,53.48c-.09-1.6-.66-3.48,2.82-4.33s8.75-.75,12.33,1,12,12.41,13.45,14.58"/><path class="cls-3" d="M37.37,46.8s2.68-1.5,7.85-.84"/><path class="cls-3" d="M41.29,50.31c-1.29.1-2.63.95-2.73,2.16s.59,1.64,2,1.83,3.5-.95,3.46-2S43.57,50.15,41.29,50.31Z"/><path class="cls-2" d="M93.64,63.54c.56.47,1.88,1.6,1.32,2.73a2.51,2.51,0,0,1-2.84,1.32"/><path class="cls-2" d="M91.63,57.66a3,3,0,0,1,.94.32,1,1,0,0,1,.5.82,1,1,0,0,1-.15.49,2.42,2.42,0,0,1-.91.94"/><path class="cls-2" d="M96.4,59.89a1.57,1.57,0,0,1,1.49.27,1.43,1.43,0,0,1,.46,1.43,1.31,1.31,0,0,1-1.14.95"/><path class="cls-2" d="M84.21,55.62a1.51,1.51,0,0,1,.26-.12,1.48,1.48,0,0,1,1.81.61,1.11,1.11,0,0,1-.83,1.56"/><path class="cls-2" d="M98.64,54.53a1.11,1.11,0,0,1,1.54.34,2.12,2.12,0,0,1,.15,1.73"/></g></svg>