<svg xmlns="http://www.w3.org/2000/svg" viewBox="0 0 180 152"><defs><style>.cls-1,.cls-2,.cls-3{fill:none;}.cls-2,.cls-3{stroke:#fff;stroke-linecap:round;stroke-linejoin:round;}.cls-2{stroke-width:2.27px;}.cls-3{stroke-width:1.36px;}</style></defs><title>1</title><g id="Layer_2" data-name="Layer 2"><rect class="cls-1" width="180" height="152"/><path class="cls-2" d="M40.85,24.82s-2.83-1.09-3.49.54-.56,4.49,2,7.23,7,8.42,9.85,11a40.68,40.68,0,0,0,8.11,5c2.52.84,5.29-.21,4-3.18"/><path class="cls-2" d="M60.57,43.3c.47,1.08.84,2.07.84,2.07s4.2,4.2,8.45,7.91,9.49,7,12,8.83,8.72,2.18,9.7,3,22.9,25.52,28.57,31.19,6.76,5.88,15.38,15.37,10.69,14.4,8.86,17.53-4.17,4.83-7.52,2.07-17.15-19.92-22.28-26.36-32.28-31.62-39-38.15C70.89,62.25,65.4,56.43,61.57,52.55"/><path class="cls-2" d="M64.3,39.57l-5.08,5.08c-.7.7-3.1-.5-5.47-2.1-1.92-1.3-11.92-11.19-12.84-12.44a8.49,8.49,0,0,1-1-3.77s3.87-5.94,4.09-6.6S45.59,19.09,49,22a90,90,0,0,1,9.11,9.11A88,88,0,0,1,64.3,39.57Z"/><path class="cls-2" d="M44,19.74a15.13,15.13,0,0,0,3.32,5.73C50,28.63,60.86,40,64.3,39.57"/><path class="cls-2" d="M37.36,25.36c-1.53,1.53-4.12,5.09-.53,9.78A87.4,87.4,0,0,0,47,46c2.29,2.07,9.83,7.54,14.56,6.52"/><line class="cls-3" x1="40.91" y1="30.11" x2="45.49" y2="23.04"/><line class="cls-3" x1="42.59" y1="31.95" x2="47.28" y2="25.47"/><line class="cls-3" x1="44.51" y1="33.9" x2="49.38" y2="27.77"/><line class="cls-3" x1="46.46" y1="35.82" x2="51.39" y2="29.86"/><line class="cls-3" x1="48.5" y1="37.81" x2="53.47" y2="31.92"/><line class="cls-3" x1="50.05" y1="39.29" x2="55.34" y2="33.68"/><line class="cls-3" x1="52.08" y1="41.16" x2="57.46" y2="35.55"/><line class="cls-3" x1="54.13" y1="42.8" x2="59.49" y2="37.19"/><line class="cls-3" x1="56.2" y1="44.03" x2="61.57" y2="38.62"/><path class="cls-3" d="M90,64.54c-3.71,1.58-3.25,4.73,0,8.37s19.34,21.94,22,22.41,6.24-1,4.26-3.14"/></g></svg>