<svg xmlns="http://www.w3.org/2000/svg" viewBox="0 0 180 152"><defs><style>.cls-1,.cls-2,.cls-3,.cls-4{fill:none;}.cls-2,.cls-3,.cls-4{stroke:#fff;stroke-linecap:round;stroke-linejoin:round;}.cls-2{stroke-width:2.27px;}.cls-3{stroke-width:1.36px;}.cls-4{stroke-width:1.81px;}</style></defs><title>1</title><g id="Layer_2" data-name="Layer 2"><rect class="cls-1" width="180" height="152"/><path class="cls-2" d="M60,120.79s-16.79-1.7-22.93-3.15"/><path class="cls-2" d="M85.42,93.16s2.7,17.93,3.85,23.27c0,0,.48,3-1.67,3.51s-10.83,3-14.54,5.5.12,3.07,2.12,2.74A58.71,58.71,0,0,1,83.75,127c3.32-.08,11.58.73,14.13.32s4.25-1,5-1.85,0-3.15,0-3.15,8.41-23.19,8.26-29.9"/><path class="cls-2" d="M63.33,118.79s12.55,2.36,21.16,2"/><path class="cls-2" d="M150.23,43.1C152,41.94,152.91,40.28,153,37c.15-5.65-1.93-9.81-7.26-12.76-2.62-1.46-7.25,1-7.25,1s-2.78-1.29-8,.32-21.62,12-28.1,21.33A77.3,77.3,0,0,0,93.23,64a22.9,22.9,0,0,0-9.71,6.87s-8,.89-11.5,1.94-7.26-.49-15.59,2.74S42.3,81.64,40.14,82.37s-15,7.39-18,12.12-5.44,11.15-3.7,17.57a15.65,15.65,0,0,0,11.35,11.28c4.63,1.09,8,1,13.19,1.21s13.55.6,14.94.85a18.52,18.52,0,0,0,6.49-1c.92-.49-4.4-3.64-4.4-3.64s3.59.12,3.93-.24-3.35-9-12.15-13.45-24.67-3.88-24.67-3.88"/><path class="cls-2" d="M103.18,123.49A44.34,44.34,0,0,0,119,121.54c8.18-2.65,21.38-11.37,24.55-17.6s2.62-22.7,1-33.93-3.47-21.17-3.08-22.78.5-1.39,3.58-2.17"/><path class="cls-2" d="M143.58,103.94s7.76,17.21,7.76,18.18.46,2.89-3.13,3.32-14.7-.8-18,0-4.63,0-2.66-1.74,3.94-3.15,7.53-3.15a10.1,10.1,0,0,1-3.07-5.7"/><path class="cls-3" d="M123.28,34.94s-.39,5,3,8,10.81,3,10.81,3"/><path class="cls-4" d="M143.35,41.68a3.39,3.39,0,0,1,4-2s4,3.78,5.26,12c1.4,9.06.89,15.45.67,16.26s-.82,1.32-1.33-1.63a107.09,107.09,0,0,0-3.45-14.56A39.42,39.42,0,0,0,143.35,41.68Z"/><path class="cls-4" d="M153,36.36a23.21,23.21,0,0,1,5.5,9.11,70.28,70.28,0,0,1,3.67,17.17c-.07.8-.11.84-1.09-1.84a130.54,130.54,0,0,0-6.39-14.56,35.08,35.08,0,0,0-3-4.61"/><path class="cls-3" d="M133.28,28.76c-.28-.45-1.05-.4-1.89,0s-1.94,1.58-1.38,2.06,2,.29,2.79,0S133.57,29.21,133.28,28.76Z"/></g></svg>