<svg xmlns="http://www.w3.org/2000/svg" viewBox="0 0 180 152"><defs><style>.cls-1,.cls-2,.cls-3{fill:none;}.cls-2,.cls-3{stroke:#fff;stroke-linecap:round;stroke-linejoin:round;}.cls-2{stroke-width:2.27px;}.cls-3{stroke-width:1.81px;}</style></defs><title>1</title><g id="Layer_2" data-name="Layer 2"><rect class="cls-1" width="180" height="152"/><path class="cls-2" d="M99.85,79.13a2.85,2.85,0,0,1-2.27-1.22c-1.69-2-2-4.85-2.21-7.49A2.43,2.43,0,0,1,96.5,71a13.2,13.2,0,0,1,3.6,4.4"/><path class="cls-2" d="M102.78,69.82a.19.19,0,0,1,.1-.08.2.2,0,0,1,.15.05c1.85,1.21,2.52,3.65,2.37,5.85a5.52,5.52,0,0,1-1.55,3.76,3,3,0,0,1-3.07.58c-1.12-.54-1-1.76-.89-2.86A12.18,12.18,0,0,1,102.78,69.82Z"/><path class="cls-2" d="M98.08,72A6.07,6.07,0,0,1,98,68.21a11.92,11.92,0,0,1,1.67-3.44,4.89,4.89,0,0,1,2.47-2.2,10.9,10.9,0,0,1,1.35,7.49"/><path class="cls-2" d="M97,70.9a7.27,7.27,0,0,1-1.61-3.68,49,49,0,0,1-.85-8A13.28,13.28,0,0,1,100,63.78"/><path class="cls-2" d="M104.87,72.67a6,6,0,0,0,1.68-2.54,23.94,23.94,0,0,0,1.77-7.36,7.52,7.52,0,0,0-.34-3.4,9.91,9.91,0,0,0-4.71,5.76"/><path class="cls-2" d="M100.68,62.48a11.1,11.1,0,0,1,1.24-6.23,22.62,22.62,0,0,1,3.79-5.18,9,9,0,0,1,1.16,4.22c.14,1.6.2,3.2.19,4.81"/><path class="cls-2" d="M97.4,61.08a19.47,19.47,0,0,1-4-9.9,4.66,4.66,0,0,1,3,.59,10.27,10.27,0,0,1,2.45,2,23.09,23.09,0,0,1,2.41,3"/><path class="cls-2" d="M98.68,53.37a12.72,12.72,0,0,1,1.58-12.07,21,21,0,0,1,4,8.49,4.75,4.75,0,0,1,0,2.89"/><path class="cls-2" d="M103.75,48.31a13.93,13.93,0,0,1,6-6.22,24.81,24.81,0,0,1-2.81,12"/><path class="cls-2" d="M98.82,44a13.88,13.88,0,0,1-2.37-9.54,6.31,6.31,0,0,1,3.43,1.63,18.48,18.48,0,0,1,4.2,3.93,18.54,18.54,0,0,1,2.12,4.84"/><path class="cls-2" d="M104.49,40.11A52.83,52.83,0,0,0,111.74,32a13.79,13.79,0,0,1-2.58,10.86"/><path class="cls-2" d="M99.28,35.61a15.82,15.82,0,0,1,.81-10.9,16.3,16.3,0,0,1,6.72,13c0,.11,0,.25-.14.26s0-.22,0-.12"/><path class="cls-2" d="M105.93,32.57a27.26,27.26,0,0,1,7-10.61c.93,3.7.85,7.9-1.37,11"/><path class="cls-2" d="M102,26.19a16.62,16.62,0,0,1,3.09-11.42,18.15,18.15,0,0,1,3.39,12.35"/><path class="cls-2" d="M107.45,18.52a18.75,18.75,0,0,1,5.17-9,25.2,25.2,0,0,1,.15,12.76"/><path class="cls-2" d="M97.88,79l-.38-1a32.78,32.78,0,0,1,.25,8.28,7.81,7.81,0,0,0,0,1.87,2.33,2.33,0,0,0,.9,1.59,1.71,1.71,0,0,0,1.83,0c.95-.63,1-2,1.09-3.13a26.12,26.12,0,0,1,2.15-7.38"/><path class="cls-3" d="M99.57,107.12c.47-7,.93-13.48,1.37-17.94"/><path class="cls-3" d="M98.38,89.34c-.53,6.06-1.39,15.58-2.27,25.09"/><path class="cls-2" d="M81.59,92a2.63,2.63,0,0,0,2.08-1.17c1.52-1.92,1.74-4.53,1.9-7a2.21,2.21,0,0,0-1,.56,12.17,12.17,0,0,0-3.24,4.13"/><path class="cls-2" d="M78.71,83.42a.16.16,0,0,0-.24,0c-1.69,1.16-2.26,3.43-2.08,5.47a5.08,5.08,0,0,0,1.51,3.45,2.77,2.77,0,0,0,2.85.47c1-.52.84-1.64.77-2.66A11.33,11.33,0,0,0,78.71,83.42Z"/><path class="cls-2" d="M76.55,56a49.52,49.52,0,0,1-6.86-7.39,10.75,10.75,0,0,0,1.63,8.3"/><path class="cls-2" d="M81.71,50.5c.89-3.33.12-5.77-1.38-8.87a15.08,15.08,0,0,0-6,12.17c0,.11,0,.24.13.25s0-.21,0-.12"/><path class="cls-2" d="M75.08,49a25.33,25.33,0,0,0-6.69-9.68c-.79,3.44-.63,7.32,1.47,10.15"/><path class="cls-2" d="M78.6,43a15.39,15.39,0,0,0-3.09-10.51A16.86,16.86,0,0,0,72.62,44"/><path class="cls-2" d="M73.4,36a17.35,17.35,0,0,0-5-8.19,23.4,23.4,0,0,0,.1,11.81"/><path class="cls-2" d="M83.41,91.82l.34-1a30.29,30.29,0,0,0-.08,7.67,7.17,7.17,0,0,1,.08,1.73,2.15,2.15,0,0,1-.8,1.49,4.66,4.66,0,0,1-1.79.62c-.86.13-1.27-1.21-1.68-3a47.79,47.79,0,0,0-2.09-7.58"/><path class="cls-3" d="M83.18,127.27c-1-8.84-2.05-18.38-2.89-25.44"/><path class="cls-3" d="M83.62,100.79c1,9.83,2.59,24.73,3.91,35.79"/><path class="cls-2" d="M76.35,86.66a8.62,8.62,0,0,1-2.5-3A15.63,15.63,0,0,1,72,75.19,14.25,14.25,0,0,1,82.69,86.53"/><path class="cls-2" d="M79.89,79.46a9.62,9.62,0,0,1,5.18-8.65,28.89,28.89,0,0,1,.3,12.75"/><path class="cls-2" d="M73,75.5a14.32,14.32,0,0,1-2.36-10,16.2,16.2,0,0,1,10.09,9.79"/><path class="cls-2" d="M77.72,69.78A13.26,13.26,0,0,1,82.2,57.91,18.24,18.24,0,0,1,84.53,71"/><path class="cls-2" d="M72.7,66.32a18.27,18.27,0,0,1-4.22-9.52,12.69,12.69,0,0,1,10.86,4.59"/><path class="cls-2" d="M77,58a10.11,10.11,0,0,1,7.42-8.69,16.73,16.73,0,0,1-.65,7.82,5.63,5.63,0,0,0-.46,2.3"/><path class="cls-3" d="M54.59,136.21c0,.61.91-.15.85-.76C53.19,113.84,47,92.91,52,71.77"/><path class="cls-3" d="M50.08,89.72c12.41,13.73,23.32,31.46,31.41,48.1.9,1.85,2,3.9,3.93,4.52s4.51-1.65,3.31-3.32c-10.49-21.17-19-45.48-33.23-64.3a7.25,7.25,0,0,0-3.52-3c-2.11-.59-4.23.73-6,2-2.34,1.63-4.81,3.41-5.88,6a14,14,0,0,0-.64,5.93,109.32,109.32,0,0,0,15.3,50.91"/><path class="cls-3" d="M89.41,141.52a6.79,6.79,0,0,0,3.74,0c1.06-.31,3.51-.72,4.36-1.43,4.37-3.7,5.19-10.86,6.66-16.39a65.33,65.33,0,0,1,13.11-25.29,36.58,36.58,0,0,1,17.07-11.35"/><path class="cls-3" d="M88.73,139s6.83-38.76,25.62-48.17S137,89.13,138,90s2.77,13.61,2.65,17.71S134,127.19,133,131.17c0,0,4.94-17.95,3.37-24.94S127.57,90,127.57,90"/></g></svg>