<svg xmlns="http://www.w3.org/2000/svg" viewBox="0 0 180 152"><defs><style>.cls-1,.cls-2,.cls-3{fill:none;}.cls-2,.cls-3{stroke:#fff;stroke-linecap:round;stroke-linejoin:round;}.cls-2{stroke-width:2.27px;}.cls-3{stroke-width:1.36px;}</style></defs><title>1</title><g id="Layer_2" data-name="Layer 2"><rect class="cls-1" width="180" height="152"/><polyline class="cls-2" points="91.98 99.45 28.9 71.49 32.7 63.18 93.45 91.79"/><polyline class="cls-2" points="97.11 93.5 140.11 113.75 137.44 119.6 95.36 100.95"/><line class="cls-3" x1="96.13" y1="97.19" x2="138.77" y2="116.67"/><line class="cls-3" x1="30.8" y1="67.33" x2="92.72" y2="95.63"/><polygon class="cls-2" points="88.5 134.61 112.23 18.3 107.75 17.39 85.35 133.97 88.5 134.61"/><line class="cls-2" x1="124.39" y1="106.02" x2="103.35" y2="80.4"/><line class="cls-2" x1="99.36" y1="81.37" x2="117.74" y2="103.24"/><polyline class="cls-2" points="97.11 72.79 54.01 20.3 50.48 23.2 95.68 76.99"/><polyline class="cls-2" points="62.14 86.22 31.52 90.54 30.88 86.02 54.72 82.93"/><line class="cls-2" x1="95.43" y1="81.52" x2="77.13" y2="84.1"/><polyline class="cls-2" points="100.24 77.03 148.62 70.77 149.07 73.95 99.77 80.91"/><line class="cls-2" x1="70.35" y1="80.91" x2="96.19" y2="77.56"/><polyline class="cls-2" points="101.21 72.32 150.16 54.88 151.1 58.05 100.7 76.15"/><line class="cls-2" x1="93.45" y1="74.34" x2="73.79" y2="80.46"/><polyline class="cls-2" points="53.36 87.46 55.12 91.47 66.07 87.96"/><polyline class="cls-2" points="99.05 62.69 90.02 32.01 85.35 33.63 97.77 69.32"/><polyline class="cls-2" points="82.09 95.06 38.27 111.62 42.01 121.53 90.67 98.87"/><line class="cls-2" x1="89.92" y1="90.12" x2="94.09" y2="88.47"/><line class="cls-2" x1="98.26" y1="94.05" x2="106.72" y2="90.12"/><polyline class="cls-2" points="109.98 88.47 132.78 77.86 131.99 76.36"/><line class="cls-2" x1="98.12" y1="87.46" x2="102.85" y2="85.52"/><line class="cls-2" x1="106.05" y1="83.68" x2="122.34" y2="77.72"/><line class="cls-3" x1="40.06" y1="116.36" x2="85.35" y2="96.97"/><line class="cls-3" x1="97.4" y1="90.99" x2="104.76" y2="87.79"/><line class="cls-3" x1="108.11" y1="86.2" x2="130.12" y2="76.62"/></g></svg>