<svg xmlns="http://www.w3.org/2000/svg" width="149.483" height="46.22" viewBox="0 0 149.483 46.22">
    <defs>
        <style>
            .prefix__cls-1{fill:none;stroke:#fff;stroke-linecap:round;stroke-linejoin:round;stroke-width:1.5px}
        </style>
    </defs>
    <g id="prefix__zooplankton" transform="translate(-1735.202 -828.62)">
        <path id="prefix__패스_900" d="M1820.729 847.09s17.734-2.792 21.237-6.381 3.394-6.249 2.409-8.11-4.817-.532-7.663-.532-18.829 2.659-26.382 2.26-16.311-1.718-22.66-2.72-21.566-1.268-27.368.726c0 0-1.423 4.121 1.2 5.583s7.662-.133 7.662-.133 5.365 2.761 9.086 1.181c0 0 4.707 3.472 8.867 2.674a13.918 13.918 0 008.867 2.9s6.018 2.813 9.632 1.617c.004.005 9.529 3.062 15.113.935z" class="prefix__cls-1" data-name="패스 900" transform="translate(-3.048 -.187)"/>
        <path id="prefix__패스_901" d="M1757.1 833.167a3.047 3.047 0 00-1.973 0c-1.09.364-15.953 3.854-16.25 3.854s0 .6 0 .6a17.691 17.691 0 00-2.923 1.624s13.458.8 21.568-1.887" class="prefix__cls-1" data-name="패스 901" transform="translate(0 -.462)"/>
        <path id="prefix__패스_902" d="M1770.516 837.8a15.782 15.782 0 00.99-6.837" class="prefix__cls-1" data-name="패스 902" transform="translate(-4.395 -.203)"/>
        <path id="prefix__패스_903" d="M1780.926 838.973s1.471-4.534.43-8.069" class="prefix__cls-1" data-name="패스 903" transform="translate(-5.719 -.195)"/>
        <path id="prefix__패스_904" d="M1791.085 841.751a22.815 22.815 0 00.547-10.032" class="prefix__cls-1" data-name="패스 904" transform="translate(-7.011 -.299)"/>
        <path id="prefix__패스_905" d="M1801.244 844.851s2.007-3.956.724-11.592" class="prefix__cls-1" data-name="패스 905" transform="translate(-8.303 -.495)"/>
        <path id="prefix__패스_906" d="M1812.279 846.618s1.186-6.641 0-12.178" class="prefix__cls-1" data-name="패스 906" transform="translate(-9.707 -.645)"/>
        <path id="prefix__패스_907" d="M1773.2 840l-1.935 1.37s1.131 2.873.967 3.874-1.193 3.187-2.633 3.634a3.571 3.571 0 00-1.508-1.51s.514-3.748.72-5a12.276 12.276 0 011.7-3.4" class="prefix__cls-1" data-name="패스 907" transform="translate(-4.088 -1.22)"/>
        <path id="prefix__패스_908" d="M1768.295 849.713a6.1 6.1 0 01-1.524 3.156 9.384 9.384 0 01-7.084 2.842l7.338-7.121" class="prefix__cls-1" data-name="패스 908" transform="translate(-3.018 -2.444)"/>
        <path id="prefix__패스_909" d="M1784.412 842.177l-2.207 1.616a3.35 3.35 0 00-1.979 0l-.792-3.213" class="prefix__cls-1" data-name="패스 909" transform="translate(-5.53 -1.426)"/>
        <path id="prefix__패스_910" d="M1782.233 844.261a42.533 42.533 0 012.207 3.779c.571 1.259.875 3.707-.608 4.677s-1.94-.693-2.511-1.987-2.694-5.3-1.066-6.469" class="prefix__cls-1" data-name="패스 910" transform="translate(-5.557 -1.894)"/>
        <path id="prefix__패스_911" d="M1785.063 852.669s.329 8.033 1.154 10.186 1.526 8.062 1.526 8.062-2.886-4.407-3.339-6.009-2.179-6.8-1.749-11.214" class="prefix__cls-1" data-name="패스 911" transform="translate(-5.93 -2.963)"/>
        <path id="prefix__패스_912" d="M1791.944 843.927a4.539 4.539 0 00-.867 3.277 2.851 2.851 0 012.087.621l2.818-2.074" class="prefix__cls-1" data-name="패스 912" transform="translate(-7.004 -1.851)"/>
        <path id="prefix__패스_913" d="M1793.113 848.3s2.389 3.668 2.818 4.457.592 3.155-.261 3.7-1.5.69-2.557-1.627-3.443-5.865-2.087-7.148" class="prefix__cls-1" data-name="패스 913" transform="translate(-6.952 -2.329)"/>
        <path id="prefix__패스_914" d="M1796.763 856.768s4.938 11.047 4.694 17.258c0 0-3.409-6.211-3.937-7.739s-2.24-8.352-2.24-8.352" class="prefix__cls-1" data-name="패스 914" transform="translate(-7.545 -3.484)"/>
        <path id="prefix__패스_915" d="M1802.481 847.092a6.322 6.322 0 00-.577 2.387 2.281 2.281 0 00.4 1.627s1.684-.641 2.218 0l1.912-2.844" class="prefix__cls-1" data-name="패스 915" transform="translate(-8.387 -2.254)"/>
        <path id="prefix__패스_916" d="M1804.585 851.691s3.253 2.465 3.74 3.352a4.669 4.669 0 01.568 4.141c-.69 1.824-1.786.838-2.233 0s-3.594-4.338-4.293-7.492" class="prefix__cls-1" data-name="패스 916" transform="translate(-8.446 -2.839)"/>
        <path id="prefix__패스_917" d="M1809.9 859.654s2.88 4.757 3.246 9.144-.072 7.393-1.284 9.144c0 0-.339-4.091-.786-6.507s-2.091-10.256-2.091-10.256" class="prefix__cls-1" data-name="패스 917" transform="translate(-9.287 -3.851)"/>
        <path id="prefix__패스_918" d="M1860.589 831.848a37.819 37.819 0 00-4.246.493" class="prefix__cls-1" data-name="패스 918" transform="translate(-15.31 -.315)"/>
        <path id="prefix__패스_919" d="M1813.84 846.722a5.583 5.583 0 000 4.058c.813 2.464 3.737 3.352 5.109 4.032a26.4 26.4 0 0012.651 1.34c5.371-.878 8.832.247 10.384.264s7.937 2.282 12.234-.264 6.5-5.8 6.564-8.958a9.7 9.7 0 00-1.551-5.392s8.891-2.4 11.338-1.1c0 0-1.91-1.45-3.521-2.392 0 0 4.058-.072 4.953 0s.537-2.1-.358-3.044c-.662-.7-7.21-2.412-11.658-3.159" class="prefix__cls-1" data-name="패스 919" transform="translate(-9.859 -.349)"/>
        <ellipse id="prefix__타원_73" cx="2.507" cy="3.044" class="prefix__cls-1" data-name="타원 73" rx="2.507" ry="3.044" transform="translate(1845.172 829.37)"/>
        <path id="prefix__패스_920" d="M1823.172 859.262a18.533 18.533 0 01.395 5.869c-.394 2.529-2.531 6.833-3.656 7.653a7.644 7.644 0 005.933-4.7 10.053 10.053 0 00-.084-8.406" class="prefix__cls-1" data-name="패스 920" transform="translate(-10.677 -3.801)"/>
        <path id="prefix__패스_921" d="M1867.263 850.32a8.138 8.138 0 011.592 6.436c-.726 3.957-2.068 5.124-3.89 6.435" class="prefix__cls-1" data-name="패스 921" transform="translate(-16.407 -2.664)"/>
        <path id="prefix__패스_922" d="M1867.546 847.551a7.8 7.8 0 014.293 4.306c1.417 3.36 1.012 7.539 0 9.425a5.106 5.106 0 01-3.239 2.869" class="prefix__cls-1" data-name="패스 922" transform="translate(-16.735 -2.312)"/>
        <path id="prefix__패스_923" d="M1873.005 841.769s13.363 1.239 22.676 5.747" class="prefix__cls-1" data-name="패스 923" transform="translate(-17.429 -1.577)"/>
        <path id="prefix__패스_924" d="M1881.122 838.3s15.929 11.311 20.991 19.425" class="prefix__cls-1" data-name="패스 924" transform="translate(-18.461 -1.136)"/>
        <path id="prefix__패스_925" d="M1900.037 835.774c-6.411 1.486-19.315.279-19.315.279s11.284-1.891 15.4-4.205" class="prefix__cls-1" data-name="패스 925" transform="translate(-18.411 -.315)"/>
    </g>
</svg>
