<svg xmlns="http://www.w3.org/2000/svg" viewBox="0 0 180 152"><defs><style>.cls-1,.cls-2{fill:none;}.cls-2{stroke:#fff;stroke-linecap:round;stroke-linejoin:round;stroke-width:2.27px;}</style></defs><title>1</title><g id="Layer_2" data-name="Layer 2"><rect class="cls-1" width="180" height="152"/><path class="cls-2" d="M98.19,71s18.43-2.9,22.07-6.63,3.53-6.49,2.5-8.43-5-.55-8-.55-19.57,2.76-27.42,2.35-16.95-1.79-23.55-2.83-22.41-1.32-28.44.76c0,0-1.48,4.28,1.25,5.8s8-.14,8-.14,5.58,2.87,9.44,1.23c0,0,4.9,3.61,9.22,2.78a14.5,14.5,0,0,0,9.22,3s6.25,2.92,10,1.68C82.49,70,92.39,73.19,98.19,71Z"/><path class="cls-2" d="M35.22,56.23a3.15,3.15,0,0,0-2,0c-1.13.38-16.58,4-16.88,4s0,.63,0,.63a18.16,18.16,0,0,0-3,1.69s14,.83,22.41-2"/><path class="cls-2" d="M44.6,61.31a16.33,16.33,0,0,0,1-7.1"/><path class="cls-2" d="M54,62.54s1.53-4.71.45-8.39"/><path class="cls-2" d="M63.26,65.32a23.64,23.64,0,0,0,.57-10.43"/><path class="cls-2" d="M72.48,68.34s2.08-4.11.75-12.05"/><path class="cls-2" d="M82.49,70s1.23-6.91,0-12.66"/><path class="cls-2" d="M47.71,62.54,45.7,64s1.18,3,1,4S45.47,71.3,44,71.77A3.68,3.68,0,0,0,42.4,70.2s.54-3.9.75-5.2a12.88,12.88,0,0,1,1.77-3.54"/><path class="cls-2" d="M43.72,71.36a6.31,6.31,0,0,1-1.58,3.28,9.74,9.74,0,0,1-7.36,3l7.62-7.4"/><path class="cls-2" d="M57.86,64.59l-2.29,1.68a3.49,3.49,0,0,0-2,0l-.83-3.34"/><path class="cls-2" d="M55.57,66.27a43.52,43.52,0,0,1,2.29,3.93c.6,1.3.91,3.85-.63,4.86s-2-.72-2.61-2.07-2.8-5.5-1.1-6.72"/><path class="cls-2" d="M58.13,73.9s.34,8.34,1.19,10.58,1.59,8.38,1.59,8.38-3-4.58-3.47-6.24S55.17,79.54,55.62,75"/><path class="cls-2" d="M64.16,66a4.73,4.73,0,0,0-.9,3.4,3,3,0,0,1,2.17.65l2.93-2.16"/><path class="cls-2" d="M65.43,70s2.48,3.81,2.93,4.63.61,3.28-.27,3.84-1.56.72-2.66-1.69-3.58-6.1-2.17-7.43"/><path class="cls-2" d="M68.61,77.62s5.13,11.48,4.88,17.93c0,0-3.55-6.45-4.1-8s-2.32-8.68-2.32-8.68"/><path class="cls-2" d="M73.67,68.84a6.61,6.61,0,0,0-.59,2.48c0,1.28.42,1.69.42,1.69s1.74-.67,2.3,0l2-3"/><path class="cls-2" d="M75.8,73s3.38,2.56,3.89,3.48a4.91,4.91,0,0,1,.59,4.31c-.72,1.89-1.86.87-2.32,0S74.22,76.29,73.5,73"/><path class="cls-2" d="M80.45,80.23s3,5,3.37,9.51-.07,7.68-1.33,9.5c0,0-.36-4.25-.82-6.76S79.5,81.82,79.5,81.82"/><path class="cls-2" d="M126.87,55a41.67,41.67,0,0,0-4.41.51"/><path class="cls-2" d="M84,70.43a5.84,5.84,0,0,0,0,4.22c.85,2.56,3.88,3.48,5.31,4.19a27.33,27.33,0,0,0,13.15,1.39c5.58-.91,9.18.26,10.79.28s8.25,2.37,12.72-.28,6.76-6,6.82-9.31a10.08,10.08,0,0,0-1.61-5.6s9.24-2.5,11.78-1.14c0,0-2-1.51-3.66-2.49,0,0,4.22-.07,5.15,0s.56-2.18-.37-3.16c-.69-.72-7.5-2.51-12.12-3.28"/><ellipse class="cls-2" cx="129.37" cy="55.92" rx="2.61" ry="3.16"/><path class="cls-2" d="M92.8,79.88a19.26,19.26,0,0,1,.41,6.1c-.41,2.62-2.63,7.1-3.8,8A7.94,7.94,0,0,0,95.58,89a10.43,10.43,0,0,0-.09-8.73"/><path class="cls-2" d="M132.67,71.77a8.44,8.44,0,0,1,1.65,6.68c-.75,4.12-2.15,5.33-4,6.69"/><path class="cls-2" d="M132.62,69.25a8.12,8.12,0,0,1,4.46,4.48c1.48,3.49,1.06,7.84,0,9.79a5.31,5.31,0,0,1-3.36,3"/><path class="cls-2" d="M137.57,64s13.89,1.29,23.57,6"/><path class="cls-2" d="M144.94,60.87s16.55,11.75,21.81,20.18"/><path class="cls-2" d="M164.65,59.09c-6.66,1.54-20.08.29-20.08.29s11.73-2,16-4.37"/></g></svg>