<svg xmlns="http://www.w3.org/2000/svg" width="298.223" height="297.878" viewBox="0 0 298.223 297.878">
    <defs>
        <style>
            .prefix__cls-1{fill:#fff}
        </style>
    </defs>
    <g id="prefix__ccif_logo" transform="translate(-1244.352 -234.921)">
        <path id="prefix__패스_1012" d="M1302.167 284.891a6.944 6.944 0 00-4.623-1.753 6.332 6.332 0 104.623 10.907l2.507 2.778c-1.724 1.874-4.05 2.751-7.163 2.751a9.923 9.923 0 01-9.937-10.091 10.025 10.025 0 019.938-10.122 9.592 9.592 0 017.163 2.659zm6.534-5.108h3.775v15.8h9.458v3.565H1308.7zm17.078 0h3.777v19.369h-3.777zm13.208 5.953v13.416h-3.777v-19.37h4.32l6.167 9.608 6.162-9.608h3.867v19.369h-3.777v-13.475l-6.5 9.82zm34.7 9.066h-8.487l-1.693 4.35h-3.959l7.8-19.369h4.414l7.794 19.369h-4.2zm-4.262-11.028l-2.961 7.675h5.92zm19.316-.454v15.833h-3.777v-15.834h-5.741v-3.536h15.29v3.536zm9.526-3.536h12.541v3.536h-8.764v4.291h7.554v3.565h-7.554v4.412h8.764v3.565h-12.541zm-96.1 35.337a6.945 6.945 0 00-4.623-1.753 6.332 6.332 0 104.623 10.907l2.507 2.778c-1.724 1.874-4.05 2.751-7.163 2.751a9.923 9.923 0 01-9.937-10.091 10.027 10.027 0 019.938-10.124 9.592 9.592 0 017.163 2.661zm19.523 6.132h-9.214v8.129h-3.776v-19.371h3.775v7.706h9.214v-7.706h3.808v19.369h-3.808zm21.769 3.779h-8.49l-1.693 4.35h-3.96l7.8-19.369h4.414l7.794 19.369h-4.2zM1339.2 314l-2.961 7.675h5.92zm17.686 2.264v13.116h-3.777v-19.369h4.077l9.036 13.266v-13.266H1370v19.369h-4.079zm27.687 13.537a9.923 9.923 0 01-9.939-10.091 10.027 10.027 0 019.939-10.124 9.592 9.592 0 017.161 2.661l-2.507 2.871a6.945 6.945 0 00-4.624-1.753 6.337 6.337 0 00.24 12.66 7.32 7.32 0 003.265-.756V319.8h3.775v7.885a11.881 11.881 0 01-7.312 2.115zm12.49-19.792h12.537v3.536h-8.764v4.291h7.554v3.564h-7.554v4.412h8.764v3.565h-12.54zm-108.1 30.229h3.774v19.369h-3.774zm13.208 5.953v13.416h-3.777V340.24h4.319l6.164 9.608 6.165-9.608h3.867v19.369h-3.779v-13.476l-6.5 9.82zm22.4-5.953h6.888c4.683 0 7.765 2.54 7.765 6.407 0 3.9-3.111 6.436-7.827 6.436h-3.052v6.526h-3.775zm3.775 3.325v6.2h3.413c2.085 0 3.477-1.239 3.477-3.113 0-1.843-1.391-3.082-3.477-3.082zm24.936 11.694h-8.491l-1.693 4.35h-3.957l7.794-19.369h4.414l7.794 19.369h-4.2zm-4.262-11.028l-2.961 7.675h5.922zm25.844 1.118a6.94 6.94 0 00-4.623-1.753 6.332 6.332 0 104.623 10.907l2.507 2.778c-1.722 1.874-4.05 2.751-7.161 2.751a9.923 9.923 0 01-9.939-10.091 10.027 10.027 0 019.939-10.124 9.592 9.592 0 017.161 2.661zm14.723-1.572v15.833h-3.777v-15.832h-5.741v-3.536h15.29v3.536zm-100.625 26.692h12.265v3.565h-8.491v4.685h7.282v3.565h-7.282v7.554h-3.774zm16.718 0h3.775v19.369h-3.775zm9.428 0h3.777v15.8h9.458v3.565H1315.1zm22.336 3.536v15.833h-3.777v-15.831h-5.739v-3.536h15.288v3.536zm9.528-3.536h12.539v3.536h-8.764v4.29h7.553v3.565h-7.553v4.412h8.764v3.565h-12.539zm17.047 0h6.888c4.564 0 7.584 2.419 7.584 6.1a5.746 5.746 0 01-4.079 5.56l4.5 7.7h-4.381l-3.958-7.132h-2.78v7.132h-3.777zm3.777 3.325v5.591h3.413c1.993 0 3.3-1.118 3.3-2.811 0-1.662-1.3-2.78-3.3-2.78z" class="prefix__cls-1" data-name="패스 1012" transform="translate(45.592 46.877)"/>
        <g id="prefix__그룹_366" data-name="그룹 366" transform="translate(1244.352 234.921)">
            <path id="prefix__패스_1013" d="M1361.664 334q20.312 10.535 40.626 21.074 2.232-4.337 4.173-8.8l-41.5-19.35q-1.651 3.535-3.299 7.076z" class="prefix__cls-1" data-name="패스 1013" transform="translate(-1120.607 -137.876)"/>
            <path id="prefix__패스_1014" d="M1364.408 272.27l14.3-12.551q-3.422-3.449-7.059-6.666-6.476 6.947-12.956 13.893l5.715 5.324z" class="prefix__cls-1" data-name="패스 1014" transform="translate(-1123.737 -215.795)"/>
            <path id="prefix__패스_1015" d="M1298.141 352.905l-21 31.213q4.075 2.672 8.312 5.067l19.381-32.257q-3.348-2.009-6.693-4.023z" class="prefix__cls-1" data-name="패스 1015" transform="translate(-1209.766 -110.467)"/>
            <path id="prefix__패스_1016" d="M1291.626 346.179l-26.234 25.316q3.428 3.461 7.075 6.684 12.434-13.337 24.87-26.672z" class="prefix__cls-1" data-name="패스 1016" transform="translate(-1222.158 -117.561)"/>
            <path id="prefix__패스_1017" d="M1285.7 277.641l5.893-5.119q-8.162-10.853-16.325-21.7-3.795 3.045-7.379 6.331 8.911 10.247 17.811 20.488z" class="prefix__cls-1" data-name="패스 1017" transform="translate(-1219.521 -218.149)"/>
            <path id="prefix__패스_1018" d="M1285.864 337.6q-14.983 9.321-29.97 18.639 2.635 4.1 5.53 8.008l28.92-20.25q-2.244-3.197-4.48-6.397z" class="prefix__cls-1" data-name="패스 1018" transform="translate(-1232.177 -126.612)"/>
            <path id="prefix__패스_1019" d="M1354.288 265.547l11.984-16.25q-4.066-2.663-8.29-5.053l-10.385 17.283z" class="prefix__cls-1" data-name="패스 1019" transform="translate(-1135.445 -225.087)"/>
            <path id="prefix__패스_1020" d="M1372.62 280.862l15.645-8.637q-2.629-4.087-5.515-7.987-7.3 5.113-14.608 10.229z" class="prefix__cls-1" data-name="패스 1020" transform="translate(-1113.773 -203.996)"/>
            <path id="prefix__패스_1021" d="M1292.685 270l6.828-3.785q-5.446-11.8-10.895-23.6-4.343 2.192-8.532 4.658 6.301 11.361 12.599 22.727z" class="prefix__cls-1" data-name="패스 1021" transform="translate(-1206.657 -226.809)"/>
            <path id="prefix__패스_1022" d="M1299.811 396.747l12.631-36.683-7.381-2.544q-7.215 18-14.433 36 4.543 1.765 9.183 3.227z" class="prefix__cls-1" data-name="패스 1022" transform="translate(-1195.538 -105.599)"/>
            <path id="prefix__패스_1023" d="M1285.151 280.036q-10.7-9.265-21.407-18.533-3.079 3.77-5.9 7.728 11.309 8.519 22.613 17.039 2.343-3.116 4.694-6.234z" class="prefix__cls-1" data-name="패스 1023" transform="translate(-1230.125 -206.881)"/>
            <path id="prefix__패스_1024" d="M1342.742 260.9l8.723-19.486q-4.531-1.76-9.162-3.22l-6.943 20.164z" class="prefix__cls-1" data-name="패스 1024" transform="translate(-1148.354 -231.467)"/>
            <path id="prefix__패스_1025" d="M1367.783 388.916q-10.254-18.494-20.507-36.991l-6.831 3.787q9.4 18.934 18.79 37.871 4.352-2.195 8.548-4.667z" class="prefix__cls-1" data-name="패스 1025" transform="translate(-1142.99 -111.5)"/>
            <path id="prefix__패스_1026" d="M1349.2 350.065l27.013 34.016q3.8-3.051 7.389-6.339-14.255-16.4-28.513-32.8z" class="prefix__cls-1" data-name="패스 1026" transform="translate(-1133.753 -118.866)"/>
            <path id="prefix__패스_1027" d="M1327.432 360.127l-7.78.68 1.56 39.919q4.867-.234 9.7-.787l-3.48-39.812z" class="prefix__cls-1" data-name="패스 1027" transform="translate(-1164.923 -102.849)"/>
            <path id="prefix__패스_1028" d="M1356.364 342.708q17.214 14.178 34.427 28.359 3.085-3.773 5.911-7.739-17.818-13.429-35.639-26.857-2.348 3.12-4.699 6.237z" class="prefix__cls-1" data-name="패스 1028" transform="translate(-1126.198 -127.801)"/>
            <path id="prefix__패스_1029" d="M1277.423 297.082l-29.366-8.752q-1.279 4.7-2.248 9.465l29.857 6.892 1.757-7.605z" class="prefix__cls-1" data-name="패스 1029" transform="translate(-1242.815 -178.583)"/>
            <path id="prefix__패스_1030" d="M1364.906 324.338l45.258 12.428q1.282-4.7 2.252-9.473l-45.749-10.564-1.761 7.609z" class="prefix__cls-1" data-name="패스 1030" transform="translate(-1117.187 -148.627)"/>
            <path id="prefix__패스_1031" d="M1280.387 288.359l-25.85-14.168q-2.228 4.327-4.167 8.789 13.358 6.226 26.717 12.456l3.3-7.077z" class="prefix__cls-1" data-name="패스 1031" transform="translate(-1238.004 -193.497)"/>
            <path id="prefix__패스_1032" d="M1277.871 316.318q-16.336 2.194-32.672 4.393.74 4.811 1.794 9.561 16.185-3.147 32.37-6.29l-1.492-7.664z" class="prefix__cls-1" data-name="패스 1032" transform="translate(-1243.459 -149.06)"/>
            <path id="prefix__패스_1033" d="M1378.536 291.008l16.024-4.747q-1.723-4.537-3.734-8.951l-15.343 6.512 3.053 7.186z" class="prefix__cls-1" data-name="패스 1033" transform="translate(-1106.03 -190.207)"/>
            <path id="prefix__패스_1034" d="M1281.181 327.506l-32.117 11.546q1.726 4.555 3.744 8.982l31.425-13.34z" class="prefix__cls-1" data-name="패스 1034" transform="translate(-1239.382 -137.259)"/>
            <path id="prefix__패스_1035" d="M1318.544 258.591l-.154-23.67q-4.857.234-9.687.785 1.029 11.784 2.061 23.565 3.89-.342 7.78-.68z" class="prefix__cls-1" data-name="패스 1035" transform="translate(-1176.472 -234.921)"/>
            <path id="prefix__패스_1036" d="M1301.148 263.749l7.467-2.281-5.411-24.235q-4.7 1.239-9.312 2.782z" class="prefix__cls-1" data-name="패스 1036" transform="translate(-1192.095 -232.482)"/>
            <path id="prefix__패스_1037" d="M1366 314.166q24.008 1.372 48.018 2.741.274-4.851.23-9.707l-48.114-.84-.134 7.806z" class="prefix__cls-1" data-name="패스 1037" transform="translate(-1116.032 -159.564)"/>
            <path id="prefix__패스_1038" d="M1276.3 305.779l-31.71-2.479q-.277 4.861-.232 9.726 15.9.277 31.8.557l.142-7.804z" class="prefix__cls-1" data-name="패스 1038" transform="translate(-1244.352 -162.789)"/>
            <path id="prefix__패스_1039" d="M1337.925 357.076q-3.732 1.143-7.469 2.283l10.165 39.839q4.713-1.242 9.329-2.786-6.01-19.668-12.025-39.336z" class="prefix__cls-1" data-name="패스 1039" transform="translate(-1153.526 -106.067)"/>
            <path id="prefix__패스_1040" d="M1314.92 400.487l4.87-39.669-7.749-.951q-3.387 19.686-6.777 39.371 4.808.783 9.656 1.249z" class="prefix__cls-1" data-name="패스 1040" transform="translate(-1180.1 -103.123)"/>
            <path id="prefix__패스_1041" d="M1330.289 258.447l4.627-22.03q-4.8-.78-9.639-1.247-1.368 11.164-2.739 22.326l7.751.951z" class="prefix__cls-1" data-name="패스 1041" transform="translate(-1161.878 -234.658)"/>
        </g>
    </g>
</svg>
