<svg xmlns="http://www.w3.org/2000/svg" width="70.474" height="70.397" viewBox="0 0 70.474 70.397">
    <path id="prefix__ccif_small" d="M492.473 257.63a3.337 3.337 0 00-2.226-.844 3.049 3.049 0 102.226 5.251l1.207 1.338a4.392 4.392 0 01-3.447 1.324 4.778 4.778 0 01-4.785-4.859 4.827 4.827 0 014.785-4.873 4.617 4.617 0 013.447 1.28zm9.339 0a3.338 3.338 0 00-2.226-.844 3.049 3.049 0 102.226 5.251l1.207 1.338a4.392 4.392 0 01-3.447 1.324 4.778 4.778 0 01-4.786-4.859 4.828 4.828 0 014.786-4.873 4.617 4.617 0 013.447 1.28zm3.142-2.459h1.818v9.329h-1.818zm4.539 0h5.907v1.716h-4.087v2.255h3.505v1.717h-3.505v3.641h-1.818zm12.985 16.265l9.587 4.973q.527-1.023.985-2.076l-9.793-4.566zm-.091-32.953l3.375-2.962q-.807-.814-1.665-1.573l-3.057 3.278zm-35.939 43.883l-4.955 7.366q.962.631 1.961 1.2l4.574-7.612zm-4.461-3.261l-6.191 5.974q.81.817 1.669 1.577l5.869-6.294zm-.775-39.91l1.391-1.208-3.853-5.121q-.9.719-1.741 1.494zm-2.949 35.749l-7.073 4.4q.622.967 1.305 1.89l6.824-4.779zm38.973-40.24l2.828-3.835q-.959-.628-1.956-1.192l-2.451 4.078zm9.44 8.591l3.692-2.038q-.62-.964-1.3-1.885l-3.447 2.413zm-40.781-7.947l1.611-.893-2.571-5.569q-1.025.517-2.013 1.1zm4.305 58.512l2.981-8.656-1.742-.6-3.405 8.495q1.066.416 2.166.761zm-11.621-51.442l-5.052-4.373q-.727.89-1.393 1.824l5.336 4.021zm32.886-10.318l2.058-4.6q-1.07-.415-2.163-.76l-1.639 4.758zm7.175 58.518l-4.839-8.729-1.612.894 4.434 8.937q1.026-.52 2.016-1.1zm-2.205-10.906l6.374 8.027q.9-.72 1.744-1.5l-6.728-7.74zm-12.492 6.154l-1.835.161.368 9.42q1.148-.056 2.29-.186-.414-4.696-.825-9.393zm15.966-10l8.124 6.692q.727-.891 1.4-1.826l-8.41-6.338zm-46.147-22.75l-6.929-2.065q-.3 1.108-.531 2.233l7.046 1.626q.204-.894.412-1.791zm50.29 13.5l10.68 2.933q.3-1.109.532-2.235l-10.8-2.493zM475.6 247.541l-6.1-3.343q-.526 1.021-.983 2.074l6.3 2.939zm-1.881 17.084L466 265.662q.175 1.135.423 2.256l7.639-1.485zm56.181-15.682l3.781-1.12q-.406-1.071-.88-2.112l-3.621 1.537zm-54.443 21.107l-7.579 2.725q.407 1.075.884 2.119l7.415-3.148zm23.661-39.308l-.036-5.586q-1.147.055-2.286.185l.487 5.561zm-7.792 1.793l1.764-.535-1.277-5.719q-1.11.292-2.2.657zm33.253 29.1l11.331.647q.065-1.145.055-2.291l-11.354-.2q-.011.927-.031 1.848zm-51.448-2.74l-7.482-.584q-.065 1.147-.055 2.295l7.505.132.033-1.838zm35.976 25.49l-1.763.539 2.4 9.4q1.112-.293 2.2-.658l-2.836-9.278zm-11.7 10.939l1.149-9.361-1.828-.225-1.6 9.291q1.136.188 2.28.298zm7.927-64.557l1.092-5.2q-1.133-.185-2.275-.294l-.647 5.268z" transform="translate(-465.543 -225.104)" style="fill:#fff;stroke:#fff;stroke-miterlimit:10;stroke-width:.1px"/>
</svg>
